%TF.GenerationSoftware,KiCad,Pcbnew,8.0.8+dfsg-1*%
%TF.CreationDate,2026-03-21T21:18:56-06:00*%
%TF.ProjectId,scann3d,7363616e-6e33-4642-9e6b-696361645f70,rev?*%
%TF.SameCoordinates,Original*%
%TF.FileFunction,Copper,L1,Top*%
%TF.FilePolarity,Positive*%
%FSLAX46Y46*%
G04 Gerber Fmt 4.6, Leading zero omitted, Abs format (unit mm)*
G04 Created by KiCad (PCBNEW 8.0.8+dfsg-1) date 2026-03-21 21:18:56*
%MOMM*%
%LPD*%
G01*
G04 APERTURE LIST*
G04 Aperture macros list*
%AMRoundRect*
0 Rectangle with rounded corners*
0 $1 Rounding radius*
0 $2 $3 $4 $5 $6 $7 $8 $9 X,Y pos of 4 corners*
0 Add a 4 corners polygon primitive as box body*
4,1,4,$2,$3,$4,$5,$6,$7,$8,$9,$2,$3,0*
0 Add four circle primitives for the rounded corners*
1,1,$1+$1,$2,$3*
1,1,$1+$1,$4,$5*
1,1,$1+$1,$6,$7*
1,1,$1+$1,$8,$9*
0 Add four rect primitives between the rounded corners*
20,1,$1+$1,$2,$3,$4,$5,0*
20,1,$1+$1,$4,$5,$6,$7,0*
20,1,$1+$1,$6,$7,$8,$9,0*
20,1,$1+$1,$8,$9,$2,$3,0*%
%AMFreePoly0*
4,1,17,0.253536,0.253536,0.255000,0.250000,0.255000,-0.250000,0.253536,-0.253536,0.250000,-0.255000,-0.045000,-0.255000,-0.045000,-0.350000,-0.046464,-0.353536,-0.050000,-0.355000,-0.250000,-0.355000,-0.253536,-0.353536,-0.255000,-0.350000,-0.255000,0.250000,-0.253536,0.253536,-0.250000,0.255000,0.250000,0.255000,0.253536,0.253536,0.253536,0.253536,$1*%
G04 Aperture macros list end*
%TA.AperFunction,SMDPad,CuDef*%
%ADD10R,0.600000X0.800000*%
%TD*%
%TA.AperFunction,ComponentPad*%
%ADD11R,1.000000X1.000000*%
%TD*%
%TA.AperFunction,ComponentPad*%
%ADD12O,1.000000X1.000000*%
%TD*%
%TA.AperFunction,SMDPad,CuDef*%
%ADD13RoundRect,0.112500X-0.112500X-0.112500X0.112500X-0.112500X0.112500X0.112500X-0.112500X0.112500X0*%
%TD*%
%TA.AperFunction,ComponentPad*%
%ADD14C,1.500000*%
%TD*%
%TA.AperFunction,SMDPad,CuDef*%
%ADD15RoundRect,0.140000X0.140000X0.170000X-0.140000X0.170000X-0.140000X-0.170000X0.140000X-0.170000X0*%
%TD*%
%TA.AperFunction,SMDPad,CuDef*%
%ADD16FreePoly0,0.000000*%
%TD*%
%TA.AperFunction,SMDPad,CuDef*%
%ADD17R,0.500000X0.500000*%
%TD*%
%TA.AperFunction,SMDPad,CuDef*%
%ADD18R,2.316000X1.200000*%
%TD*%
%TA.AperFunction,SMDPad,CuDef*%
%ADD19R,0.800000X0.600000*%
%TD*%
%TA.AperFunction,SMDPad,CuDef*%
%ADD20RoundRect,0.375000X-0.625000X-0.375000X0.625000X-0.375000X0.625000X0.375000X-0.625000X0.375000X0*%
%TD*%
%TA.AperFunction,SMDPad,CuDef*%
%ADD21RoundRect,0.500000X-0.500000X-1.400000X0.500000X-1.400000X0.500000X1.400000X-0.500000X1.400000X0*%
%TD*%
%TA.AperFunction,SMDPad,CuDef*%
%ADD22R,0.650000X0.500000*%
%TD*%
%TA.AperFunction,SMDPad,CuDef*%
%ADD23R,0.750000X0.400000*%
%TD*%
%TA.AperFunction,SMDPad,CuDef*%
%ADD24R,0.400000X0.750000*%
%TD*%
%TA.AperFunction,SMDPad,CuDef*%
%ADD25C,1.500000*%
%TD*%
%TA.AperFunction,SMDPad,CuDef*%
%ADD26R,0.500000X0.650000*%
%TD*%
%TA.AperFunction,SMDPad,CuDef*%
%ADD27R,2.100000X1.400000*%
%TD*%
%TA.AperFunction,ComponentPad*%
%ADD28C,2.500000*%
%TD*%
%TA.AperFunction,SMDPad,CuDef*%
%ADD29R,1.500000X0.900000*%
%TD*%
%TA.AperFunction,HeatsinkPad*%
%ADD30C,0.600000*%
%TD*%
%TA.AperFunction,HeatsinkPad*%
%ADD31R,2.900000X2.900000*%
%TD*%
%TA.AperFunction,ComponentPad*%
%ADD32R,0.850000X0.850000*%
%TD*%
%TA.AperFunction,ComponentPad*%
%ADD33O,0.850000X0.850000*%
%TD*%
%TA.AperFunction,ViaPad*%
%ADD34C,0.600000*%
%TD*%
%TA.AperFunction,Conductor*%
%ADD35C,0.200000*%
%TD*%
%TA.AperFunction,Conductor*%
%ADD36C,0.500000*%
%TD*%
G04 APERTURE END LIST*
D10*
%TO.P,R2,1*%
%TO.N,Net-(D1-A)*%
X156700000Y-68750000D03*
%TO.P,R2,2*%
%TO.N,+3.3V*%
X155300000Y-68750000D03*
%TD*%
D11*
%TO.P,REF\u002A\u002A,1*%
%TO.N,/PWM*%
X135870000Y-93000000D03*
D12*
%TO.P,REF\u002A\u002A,2*%
%TO.N,+5V*%
X134600000Y-93000000D03*
%TO.P,REF\u002A\u002A,3*%
%TO.N,GND*%
X133330000Y-93000000D03*
%TD*%
D13*
%TO.P,D2,1,BK*%
%TO.N,Net-(D2-BK)*%
X158075000Y-71575000D03*
%TO.P,D2,2,GK*%
%TO.N,Net-(D2-GK)*%
X158925000Y-71575000D03*
%TO.P,D2,3,RK*%
%TO.N,Net-(D2-RK)*%
X158925000Y-72425000D03*
%TO.P,D2,4,A*%
%TO.N,Net-(D2-A)*%
X158075000Y-72425000D03*
%TD*%
D14*
%TO.P,REF\u002A\u002A,5*%
%TO.N,+3.3V*%
X154000000Y-104200000D03*
%TD*%
D15*
%TO.P,C2,1*%
%TO.N,+3.3V*%
X128980000Y-90000000D03*
%TO.P,C2,2*%
%TO.N,GND*%
X128020000Y-90000000D03*
%TD*%
D11*
%TO.P,J1,1,Pin_1*%
%TO.N,+5V*%
X142750000Y-96500000D03*
D12*
%TO.P,J1,2,Pin_2*%
%TO.N,+3.3V*%
X144020000Y-96500000D03*
%TO.P,J1,3,Pin_3*%
%TO.N,GND*%
X145290000Y-96500000D03*
%TO.P,J1,4,Pin_4*%
%TO.N,/TXD*%
X146560000Y-96500000D03*
%TO.P,J1,5,Pin_5*%
%TO.N,/RXD*%
X147830000Y-96500000D03*
%TD*%
D16*
%TO.P,U2,A1,I2C_RST*%
%TO.N,/I2C_RST*%
X156500000Y-85000000D03*
D17*
%TO.P,U2,A2,RSVD4*%
%TO.N,GND*%
X157250000Y-85000000D03*
%TO.P,U2,A3,INT*%
%TO.N,Net-(U2-INT)*%
X158000000Y-85000000D03*
%TO.P,U2,A4,IOVDD*%
%TO.N,+3.3V*%
X158750000Y-85000000D03*
%TO.P,U2,A5,LPN*%
%TO.N,Net-(U2-LPN)*%
X159500000Y-85000000D03*
%TO.P,U2,A6,RSVD1*%
%TO.N,GND*%
X160250000Y-85000000D03*
%TO.P,U2,A7,RSVD2*%
X161000000Y-85000000D03*
%TO.P,U2,B1,AVDD*%
%TO.N,+3.3V*%
X156100000Y-86050000D03*
D18*
%TO.P,U2,B4,THERMALPAD*%
%TO.N,GND*%
X158750000Y-86050000D03*
D17*
%TO.P,U2,B7,AVDD__1*%
%TO.N,+3.3V*%
X161400000Y-86050000D03*
%TO.P,U2,C1,GND*%
%TO.N,GND*%
X156500000Y-87100000D03*
%TO.P,U2,C2,RSVD6*%
%TO.N,Net-(U2-RSVD6)*%
X157250000Y-87100000D03*
%TO.P,U2,C3,SDA*%
%TO.N,/SDA*%
X158000000Y-87100000D03*
%TO.P,U2,C4,SCL*%
%TO.N,/SCL*%
X158750000Y-87100000D03*
%TO.P,U2,C5,RSVD5*%
%TO.N,unconnected-(U2-RSVD5-PadC5)*%
X159500000Y-87100000D03*
%TO.P,U2,C6,RSVD3*%
%TO.N,GND*%
X160250000Y-87100000D03*
%TO.P,U2,C7,GND__1*%
X161000000Y-87100000D03*
%TD*%
D19*
%TO.P,R11,1*%
%TO.N,Net-(U4-CS)*%
X159025000Y-106765000D03*
%TO.P,R11,2*%
%TO.N,+3.3V*%
X159025000Y-108165000D03*
%TD*%
D20*
%TO.P,U5,1,GND*%
%TO.N,GND*%
X132000000Y-85500000D03*
%TO.P,U5,2,VO*%
%TO.N,+3.3V*%
X132000000Y-87800000D03*
D21*
X138300000Y-87800000D03*
D20*
%TO.P,U5,3,VI*%
%TO.N,+5V*%
X132000000Y-90100000D03*
%TD*%
D22*
%TO.P,U4,1,SDO/SA0*%
%TO.N,Net-(U4-SDO{slash}SA0)*%
X155025000Y-107070000D03*
D23*
%TO.P,U4,2,SDx*%
%TO.N,GND*%
X155025000Y-107620000D03*
%TO.P,U4,3,SCx*%
X155025000Y-108120000D03*
D22*
%TO.P,U4,4,INT1*%
%TO.N,unconnected-(U4-INT1-Pad4)*%
X155025000Y-108670000D03*
D24*
%TO.P,U4,5,VDDIO*%
%TO.N,+3.3V*%
X155700000Y-108795000D03*
%TO.P,U4,6,GND*%
%TO.N,GND*%
X156200000Y-108795000D03*
%TO.P,U4,7,GND*%
X156700000Y-108795000D03*
D22*
%TO.P,U4,8,VDD*%
%TO.N,+3.3V*%
X157375000Y-108670000D03*
D23*
%TO.P,U4,9,INT2*%
%TO.N,unconnected-(U4-INT2-Pad9)*%
X157375000Y-108120000D03*
%TO.P,U4,10,NC*%
%TO.N,unconnected-(U4-NC-Pad10)*%
X157375000Y-107620000D03*
D22*
%TO.P,U4,11,NC*%
%TO.N,unconnected-(U4-NC-Pad11)*%
X157375000Y-107070000D03*
D24*
%TO.P,U4,12,CS*%
%TO.N,Net-(U4-CS)*%
X156700000Y-106945000D03*
%TO.P,U4,13,SCL*%
%TO.N,/SCL*%
X156200000Y-106945000D03*
%TO.P,U4,14,SDA*%
%TO.N,/SDA*%
X155700000Y-106945000D03*
%TD*%
D25*
%TO.P,IO10,1,1*%
%TO.N,unconnected-(U1-IO10-Pad10)*%
X155400000Y-76800000D03*
%TD*%
D26*
%TO.P,U3,1,SDO/SA0*%
%TO.N,Net-(U3-SDO{slash}SA0)*%
X129300000Y-68400000D03*
D24*
%TO.P,U3,2,SDx*%
%TO.N,GND*%
X128750000Y-68400000D03*
%TO.P,U3,3,SCx*%
X128250000Y-68400000D03*
D26*
%TO.P,U3,4,INT1*%
%TO.N,unconnected-(U3-INT1-Pad4)*%
X127700000Y-68400000D03*
D23*
%TO.P,U3,5,VDDIO*%
%TO.N,+3.3V*%
X127575000Y-69075000D03*
%TO.P,U3,6,GND*%
%TO.N,GND*%
X127575000Y-69575000D03*
%TO.P,U3,7,GND*%
X127575000Y-70075000D03*
D26*
%TO.P,U3,8,VDD*%
%TO.N,+3.3V*%
X127700000Y-70750000D03*
D24*
%TO.P,U3,9,INT2*%
%TO.N,unconnected-(U3-INT2-Pad9)*%
X128250000Y-70750000D03*
%TO.P,U3,10,NC*%
%TO.N,unconnected-(U3-NC-Pad10)*%
X128750000Y-70750000D03*
D26*
%TO.P,U3,11,NC*%
%TO.N,unconnected-(U3-NC-Pad11)*%
X129300000Y-70750000D03*
D23*
%TO.P,U3,12,CS*%
%TO.N,Net-(U3-CS)*%
X129425000Y-70075000D03*
%TO.P,U3,13,SCL*%
%TO.N,/SCL*%
X129425000Y-69575000D03*
%TO.P,U3,14,SDA*%
%TO.N,/SDA*%
X129425000Y-69075000D03*
%TD*%
D27*
%TO.P,S1,1*%
%TO.N,Net-(R1-Pad1)*%
X141700000Y-85250000D03*
%TO.P,S1,2*%
%TO.N,Net-(U1-EN)*%
X150800000Y-85250000D03*
%TO.P,S1,3*%
%TO.N,GND*%
X141700000Y-89750000D03*
%TO.P,S1,4*%
X150800000Y-89750000D03*
%TD*%
D25*
%TO.P,SCL,1,1*%
%TO.N,/SCL*%
X132750000Y-77000000D03*
%TD*%
D11*
%TO.P,J3,1,Pin_1*%
%TO.N,+3.3V*%
X155440000Y-101250000D03*
D12*
%TO.P,J3,2,Pin_2*%
%TO.N,/SDA*%
X156710000Y-101250000D03*
%TO.P,J3,3,Pin_3*%
%TO.N,/SCL*%
X157980000Y-101250000D03*
%TO.P,J3,4,Pin_4*%
%TO.N,GND*%
X159250000Y-101250000D03*
%TD*%
D10*
%TO.P,R8,1*%
%TO.N,/I2C_RST*%
X155800000Y-82750000D03*
%TO.P,R8,2*%
%TO.N,+3.3V*%
X157200000Y-82750000D03*
%TD*%
D28*
%TO.P,,3*%
%TO.N,+3.3V*%
X164000000Y-97000000D03*
%TD*%
D10*
%TO.P,R15,1*%
%TO.N,+3.3V*%
X160700000Y-64600000D03*
%TO.P,R15,2*%
%TO.N,Net-(D1-RK)*%
X159300000Y-64600000D03*
%TD*%
%TO.P,R5,1*%
%TO.N,+3.3V*%
X129050000Y-73000000D03*
%TO.P,R5,2*%
%TO.N,/SDA*%
X130450000Y-73000000D03*
%TD*%
%TO.P,R3,1*%
%TO.N,Net-(D2-A)*%
X156700000Y-73000000D03*
%TO.P,R3,2*%
%TO.N,+3.3V*%
X155300000Y-73000000D03*
%TD*%
%TO.P,R14,1*%
%TO.N,/PWM*%
X131300000Y-96600000D03*
%TO.P,R14,2*%
%TO.N,+3.3V*%
X129900000Y-96600000D03*
%TD*%
%TO.P,R9,1*%
%TO.N,+3.3V*%
X159450000Y-81250000D03*
%TO.P,R9,2*%
%TO.N,Net-(U2-INT)*%
X158050000Y-81250000D03*
%TD*%
D15*
%TO.P,C3,1*%
%TO.N,Net-(U1-EN)*%
X133680000Y-69000000D03*
%TO.P,C3,2*%
%TO.N,GND*%
X132720000Y-69000000D03*
%TD*%
D25*
%TO.P,SDA,1,1*%
%TO.N,/SDA*%
X132750000Y-71750000D03*
%TD*%
D13*
%TO.P,D1,1,BK*%
%TO.N,Net-(D1-BK)*%
X158075000Y-67575000D03*
%TO.P,D1,2,GK*%
%TO.N,Net-(D1-GK)*%
X158925000Y-67575000D03*
%TO.P,D1,3,RK*%
%TO.N,Net-(D1-RK)*%
X158925000Y-68425000D03*
%TO.P,D1,4,A*%
%TO.N,Net-(D1-A)*%
X158075000Y-68425000D03*
%TD*%
D28*
%TO.P,GND,2*%
%TO.N,GND*%
X163600000Y-62800000D03*
%TD*%
D25*
%TO.P,IO8,1,1*%
%TO.N,/I2C_RST*%
X130000000Y-79800000D03*
%TD*%
D28*
%TO.P,GND,1*%
%TO.N,GND*%
X126000000Y-62600000D03*
%TD*%
D10*
%TO.P,R10,1*%
%TO.N,Net-(U3-CS)*%
X127200000Y-73000000D03*
%TO.P,R10,2*%
%TO.N,+3.3V*%
X125800000Y-73000000D03*
%TD*%
%TO.P,C1,1*%
%TO.N,+3.3V*%
X129500000Y-86600000D03*
%TO.P,C1,2*%
%TO.N,GND*%
X128100000Y-86600000D03*
%TD*%
%TO.P,R6,1*%
%TO.N,+3.3V*%
X129050000Y-76250000D03*
%TO.P,R6,2*%
%TO.N,/SCL*%
X130450000Y-76250000D03*
%TD*%
%TO.P,R7,1*%
%TO.N,Net-(U2-LPN)*%
X160050000Y-82750000D03*
%TO.P,R7,2*%
%TO.N,+3.3V*%
X161450000Y-82750000D03*
%TD*%
D29*
%TO.P,U1,1,3V3*%
%TO.N,+3.3V*%
X135340000Y-67650000D03*
%TO.P,U1,2,EN*%
%TO.N,Net-(U1-EN)*%
X135340000Y-69150000D03*
%TO.P,U1,3,IO4*%
%TO.N,Net-(D2-GK)*%
X135340000Y-70650000D03*
%TO.P,U1,4,IO5*%
%TO.N,Net-(D2-RK)*%
X135340000Y-72150000D03*
%TO.P,U1,5,IO6*%
%TO.N,/SDA*%
X135340000Y-73650000D03*
%TO.P,U1,6,IO7*%
%TO.N,/SCL*%
X135340000Y-75150000D03*
%TO.P,U1,7,IO8*%
%TO.N,/I2C_RST*%
X135340000Y-76650000D03*
%TO.P,U1,8,IO9*%
%TO.N,/PWM*%
X135340000Y-78150000D03*
%TO.P,U1,9,GND*%
%TO.N,GND*%
X135340000Y-79650000D03*
%TO.P,U1,10,IO10*%
%TO.N,unconnected-(U1-IO10-Pad10)*%
X152840000Y-79650000D03*
%TO.P,U1,11,IO20/RXD*%
%TO.N,/RXD*%
X152840000Y-78150000D03*
%TO.P,U1,12,IO21/TXD*%
%TO.N,/TXD*%
X152840000Y-76650000D03*
%TO.P,U1,15,IO3*%
%TO.N,Net-(D2-BK)*%
X152840000Y-72150000D03*
%TO.P,U1,16,IO2*%
%TO.N,Net-(D1-RK)*%
X152840000Y-70650000D03*
%TO.P,U1,17,IO1*%
%TO.N,Net-(D1-GK)*%
X152840000Y-69150000D03*
%TO.P,U1,18,IO0*%
%TO.N,Net-(D1-BK)*%
X152840000Y-67650000D03*
D30*
%TO.P,U1,19,GND*%
%TO.N,GND*%
X143950000Y-73300000D03*
X143950000Y-74400000D03*
X144500000Y-72750000D03*
X144500000Y-73850000D03*
X144500000Y-74950000D03*
X145050000Y-73300000D03*
D31*
X145050000Y-73850000D03*
D30*
X145050000Y-74400000D03*
X145600000Y-72750000D03*
X145600000Y-73850000D03*
X145600000Y-74950000D03*
X146150000Y-73300000D03*
X146150000Y-74400000D03*
D29*
%TO.P,U1,USB_D+,IO19*%
%TO.N,unconnected-(U1-IO19-Pad14)*%
X152840000Y-73650000D03*
%TO.P,U1,USB_D-,IO18*%
%TO.N,unconnected-(U1-IO18-Pad13)*%
X152840000Y-75150000D03*
%TD*%
D11*
%TO.P,J2,1,Pin_1*%
%TO.N,+3.3V*%
X155440000Y-96500000D03*
D12*
%TO.P,J2,2,Pin_2*%
%TO.N,/SDA*%
X156710000Y-96500000D03*
%TO.P,J2,3,Pin_3*%
%TO.N,/SCL*%
X157980000Y-96500000D03*
%TO.P,J2,4,Pin_4*%
%TO.N,GND*%
X159250000Y-96500000D03*
%TD*%
D10*
%TO.P,R4,1*%
%TO.N,+3.3V*%
X155800000Y-91200000D03*
%TO.P,R4,2*%
%TO.N,Net-(U2-RSVD6)*%
X157200000Y-91200000D03*
%TD*%
%TO.P,R1,1*%
%TO.N,Net-(R1-Pad1)*%
X140200000Y-93000000D03*
%TO.P,R1,2*%
%TO.N,+3.3V*%
X138800000Y-93000000D03*
%TD*%
D25*
%TO.P,5v,1,1*%
%TO.N,+5V*%
X139000000Y-96250000D03*
%TD*%
%TO.P,IO2,1,1*%
%TO.N,Net-(D1-RK)*%
X161600000Y-70000000D03*
%TD*%
%TO.P,3v3,1,1*%
%TO.N,+3.3V*%
X164200000Y-67400000D03*
%TD*%
D11*
%TO.P,J4,1,Pin_1*%
%TO.N,+5V*%
X159100000Y-77000000D03*
D12*
%TO.P,J4,2,Pin_2*%
%TO.N,unconnected-(U1-IO18-Pad13)*%
X160370000Y-77000000D03*
%TO.P,J4,3,Pin_3*%
%TO.N,unconnected-(U1-IO19-Pad14)*%
X161640000Y-77000000D03*
%TO.P,J4,4,Pin_4*%
%TO.N,GND*%
X162910000Y-77000000D03*
%TD*%
D10*
%TO.P,R12,1*%
%TO.N,+3.3V*%
X159225000Y-105215000D03*
%TO.P,R12,2*%
%TO.N,Net-(U4-SDO{slash}SA0)*%
X157825000Y-105215000D03*
%TD*%
D32*
%TO.P,M1,1,PWM*%
%TO.N,/PWM*%
X135500000Y-96500000D03*
D33*
%TO.P,M1,2,+*%
%TO.N,+5V*%
X134500000Y-96500000D03*
%TO.P,M1,3,-*%
%TO.N,GND*%
X133500000Y-96500000D03*
%TD*%
D28*
%TO.P,,4*%
%TO.N,+5V*%
X126000000Y-97000000D03*
%TD*%
D10*
%TO.P,R13,1*%
%TO.N,GND*%
X127800000Y-66060000D03*
%TO.P,R13,2*%
%TO.N,Net-(U3-SDO{slash}SA0)*%
X129200000Y-66060000D03*
%TD*%
D34*
%TO.N,+3.3V*%
X161000000Y-72000000D03*
X155250000Y-70000000D03*
X139000000Y-75800000D03*
X141800000Y-75800000D03*
%TO.N,GND*%
X132000000Y-85500000D03*
X128500000Y-67250000D03*
X128429270Y-69417486D03*
X132000000Y-68800000D03*
X128020000Y-88200000D03*
X150800000Y-89750000D03*
X145000000Y-68600000D03*
X141700000Y-89750000D03*
X133750000Y-79750000D03*
X156182096Y-108007176D03*
X145600000Y-92800000D03*
X154025000Y-107965000D03*
X158750000Y-86050000D03*
%TO.N,Net-(D2-RK)*%
X134089998Y-70400000D03*
X159750000Y-72500000D03*
%TO.N,Net-(D2-GK)*%
X159750000Y-71500000D03*
X135340000Y-70650000D03*
%TO.N,/PWM*%
X137000000Y-78250000D03*
%TO.N,/SDA*%
X135340000Y-73650000D03*
X155525000Y-105715000D03*
X158000000Y-88250000D03*
%TO.N,/SCL*%
X135340000Y-75150000D03*
X131200000Y-69800000D03*
X156524577Y-105963956D03*
X158800003Y-88250000D03*
%TO.N,/I2C_RST*%
X139750000Y-76750000D03*
X154750000Y-82750000D03*
%TO.N,Net-(U1-EN)*%
X141000000Y-76750000D03*
X150500000Y-82000000D03*
%TO.N,Net-(D1-GK)*%
X152840000Y-69150000D03*
X159750000Y-67500000D03*
%TO.N,unconnected-(U1-IO18-Pad13)*%
X151275061Y-74400000D03*
%TO.N,unconnected-(U1-IO19-Pad14)*%
X151000000Y-73500000D03*
%TD*%
D35*
%TO.N,+3.3V*%
X155300000Y-69950000D02*
X155250000Y-70000000D01*
D36*
X155440000Y-96500000D02*
X155470000Y-96530000D01*
X156250000Y-98689340D02*
X156250000Y-100366497D01*
D35*
X125800000Y-72750000D02*
X125800000Y-69525000D01*
X155300000Y-68750000D02*
X155300000Y-69950000D01*
D36*
X155470000Y-96530000D02*
X155470000Y-97909340D01*
D35*
X125800000Y-72650000D02*
X125800000Y-72750000D01*
X158750000Y-81950000D02*
X159450000Y-81250000D01*
X158750000Y-85000000D02*
X158750000Y-81950000D01*
X157375000Y-109365000D02*
X157375000Y-108670000D01*
X156100000Y-100520000D02*
X155370000Y-101250000D01*
X155700000Y-108795000D02*
X155700000Y-109370000D01*
D36*
X157540000Y-109650000D02*
X154649339Y-109650000D01*
D35*
X157375000Y-108670000D02*
X158520000Y-108670000D01*
D36*
X154649339Y-109650000D02*
X153275000Y-108275661D01*
D35*
X158520000Y-108670000D02*
X159025000Y-108165000D01*
X127700000Y-70750000D02*
X125800000Y-72650000D01*
X125800000Y-69525000D02*
X126250000Y-69075000D01*
X127575000Y-69075000D02*
X126250000Y-69075000D01*
D36*
X159025000Y-108165000D02*
X157540000Y-109650000D01*
X153275000Y-108275661D02*
X153275000Y-104800000D01*
X156250000Y-100366497D02*
X155440000Y-101176497D01*
X155470000Y-97909340D02*
X156250000Y-98689340D01*
X155440000Y-101250000D02*
X155440000Y-102635000D01*
X155440000Y-101176497D02*
X155440000Y-101250000D01*
D35*
X155700000Y-109370000D02*
X155800000Y-109470000D01*
X155800000Y-109470000D02*
X157270000Y-109470000D01*
X157270000Y-109470000D02*
X157375000Y-109365000D01*
D36*
X155440000Y-102635000D02*
X153275000Y-104800000D01*
D35*
%TO.N,GND*%
X127575000Y-70075000D02*
X127575000Y-69575000D01*
X157250000Y-85250000D02*
X158050000Y-86050000D01*
X159180000Y-101250000D02*
X157900000Y-99970000D01*
X160108000Y-86050000D02*
X160250000Y-85908000D01*
X156700000Y-108795000D02*
X156700000Y-108525080D01*
X128750000Y-68400000D02*
X128750000Y-69075000D01*
X128250000Y-68400000D02*
X128750000Y-68400000D01*
X132720000Y-69000000D02*
X132200000Y-69000000D01*
X160250000Y-87100000D02*
X160250000Y-86192000D01*
X133850000Y-79650000D02*
X133750000Y-79750000D01*
D36*
X128710001Y-85500000D02*
X132000000Y-85500000D01*
D35*
X155025000Y-108120000D02*
X154180000Y-108120000D01*
X160108000Y-86050000D02*
X158750000Y-86050000D01*
D36*
X158189340Y-100250000D02*
X157750000Y-99810660D01*
D35*
X157900000Y-99970000D02*
X157900000Y-97850000D01*
D36*
X159250000Y-96573503D02*
X159250000Y-96500000D01*
X145290000Y-96500000D02*
X145290000Y-93110000D01*
D35*
X160250000Y-87100000D02*
X160250000Y-85000000D01*
X157250000Y-85000000D02*
X157250000Y-85250000D01*
X156200000Y-108215000D02*
X156105000Y-108120000D01*
X160850000Y-86950000D02*
X161000000Y-87100000D01*
D36*
X159250000Y-101250000D02*
X159250000Y-101176497D01*
D35*
X128750000Y-69075000D02*
X128250000Y-69575000D01*
D36*
X157750000Y-98073503D02*
X159250000Y-96573503D01*
D35*
X160250000Y-86192000D02*
X160108000Y-86050000D01*
X127800000Y-66060000D02*
X127800000Y-66550000D01*
X156200000Y-108795000D02*
X156200000Y-108215000D01*
X157100000Y-86050000D02*
X158750000Y-86050000D01*
D36*
X128020000Y-88200000D02*
X128020000Y-86500000D01*
D35*
X156700000Y-108525080D02*
X156182096Y-108007176D01*
X161000000Y-87100000D02*
X160250000Y-87100000D01*
X128750000Y-68400000D02*
X128750000Y-69096756D01*
D36*
X158323503Y-100250000D02*
X158189340Y-100250000D01*
D35*
X155794920Y-107620000D02*
X156182096Y-108007176D01*
X135340000Y-79650000D02*
X133850000Y-79650000D01*
D36*
X128020000Y-86190001D02*
X128710001Y-85500000D01*
D35*
X160250000Y-85908000D02*
X160250000Y-85000000D01*
X158050000Y-86050000D02*
X158750000Y-86050000D01*
X132200000Y-69000000D02*
X132000000Y-68800000D01*
X156500000Y-87100000D02*
X156500000Y-86650000D01*
D36*
X157750000Y-99810660D02*
X157750000Y-98073503D01*
D35*
X128750000Y-67500000D02*
X128500000Y-67250000D01*
X155025000Y-108120000D02*
X155025000Y-107620000D01*
X155025000Y-107620000D02*
X155794920Y-107620000D01*
X156105000Y-108120000D02*
X155025000Y-108120000D01*
X160850000Y-85150000D02*
X160850000Y-86950000D01*
X161000000Y-85000000D02*
X160250000Y-85000000D01*
D36*
X145050000Y-73300000D02*
X145050000Y-68650000D01*
D35*
X128750000Y-69096756D02*
X128429270Y-69417486D01*
X161000000Y-85000000D02*
X160850000Y-85150000D01*
D36*
X145050000Y-68650000D02*
X145000000Y-68600000D01*
D35*
X156700000Y-108795000D02*
X156200000Y-108795000D01*
X154180000Y-108120000D02*
X154025000Y-107965000D01*
D36*
X159250000Y-101176497D02*
X158323503Y-100250000D01*
D35*
X156500000Y-86650000D02*
X157100000Y-86050000D01*
X128750000Y-68400000D02*
X128750000Y-67500000D01*
X128250000Y-69575000D02*
X127575000Y-69575000D01*
D36*
X128020000Y-86500000D02*
X128020000Y-86190001D01*
X145290000Y-93110000D02*
X145600000Y-92800000D01*
D35*
X127800000Y-66550000D02*
X128500000Y-67250000D01*
X157900000Y-97850000D02*
X159250000Y-96500000D01*
D36*
X128020000Y-90000000D02*
X128020000Y-88200000D01*
D35*
%TO.N,Net-(D2-RK)*%
X134089998Y-71199998D02*
X135040000Y-72150000D01*
X134089998Y-70400000D02*
X134089998Y-71199998D01*
X135040000Y-72150000D02*
X135340000Y-72150000D01*
X159675000Y-72425000D02*
X159750000Y-72500000D01*
X158925000Y-72425000D02*
X159675000Y-72425000D01*
%TO.N,Net-(D2-GK)*%
X159675000Y-71575000D02*
X159750000Y-71500000D01*
X158925000Y-71575000D02*
X159675000Y-71575000D01*
%TO.N,Net-(D2-BK)*%
X154425000Y-71575000D02*
X158075000Y-71575000D01*
X152840000Y-72150000D02*
X153850000Y-72150000D01*
X153850000Y-72150000D02*
X154425000Y-71575000D01*
%TO.N,/RXD*%
X147830000Y-82860000D02*
X152540000Y-78150000D01*
X147830000Y-96500000D02*
X147830000Y-82860000D01*
X152540000Y-78150000D02*
X152840000Y-78150000D01*
%TO.N,/TXD*%
X152540000Y-76650000D02*
X146560000Y-82630000D01*
X146560000Y-82630000D02*
X146560000Y-96500000D01*
X152840000Y-76650000D02*
X152540000Y-76650000D01*
D36*
%TO.N,+5V*%
X134773960Y-95625000D02*
X138375000Y-95625000D01*
X134500000Y-93770000D02*
X134480000Y-93750000D01*
D35*
X133851040Y-95250000D02*
X134500000Y-95898960D01*
D36*
X130700000Y-91400000D02*
X132000000Y-90100000D01*
X134500000Y-96500000D02*
X134500000Y-95898960D01*
X134600000Y-93000000D02*
X134600000Y-96400000D01*
X142500000Y-96250000D02*
X142750000Y-96500000D01*
X126000000Y-97000000D02*
X127250000Y-98250000D01*
D35*
X134623960Y-95775000D02*
X134500000Y-95898960D01*
D36*
X134500000Y-95898960D02*
X134773960Y-95625000D01*
X130700000Y-95250000D02*
X130700000Y-91400000D01*
X134500000Y-96500000D02*
X134500000Y-93770000D01*
X134500000Y-96500000D02*
X134500000Y-95500000D01*
D35*
X130700000Y-95250000D02*
X133851040Y-95250000D01*
D36*
X134250000Y-95250000D02*
X130700000Y-95250000D01*
X137000000Y-98250000D02*
X139000000Y-96250000D01*
X138375000Y-95625000D02*
X139000000Y-96250000D01*
X134600000Y-96400000D02*
X134500000Y-96500000D01*
X139000000Y-96250000D02*
X142500000Y-96250000D01*
X127250000Y-98250000D02*
X137000000Y-98250000D01*
X134500000Y-95500000D02*
X134250000Y-95250000D01*
D35*
%TO.N,/PWM*%
X131925000Y-97225000D02*
X135400000Y-97225000D01*
X135500000Y-97125000D02*
X135500000Y-96500000D01*
X136900000Y-78150000D02*
X137000000Y-78250000D01*
X135340000Y-78150000D02*
X136900000Y-78150000D01*
X135400000Y-97225000D02*
X135500000Y-97125000D01*
X131300000Y-96600000D02*
X131925000Y-97225000D01*
%TO.N,Net-(R1-Pad1)*%
X140200000Y-93000000D02*
X140200000Y-86750000D01*
X140200000Y-86750000D02*
X141700000Y-85250000D01*
%TO.N,Net-(U2-RSVD6)*%
X157250000Y-87100000D02*
X157250000Y-90800000D01*
%TO.N,/SDA*%
X158000000Y-88250000D02*
X158000000Y-95210000D01*
X158000000Y-95210000D02*
X156710000Y-96500000D01*
X131325000Y-69075000D02*
X132750000Y-70500000D01*
X155700000Y-105890000D02*
X155525000Y-105715000D01*
X156710000Y-96500000D02*
X156800000Y-96590000D01*
X156800000Y-96590000D02*
X156800000Y-101160000D01*
X156800000Y-101160000D02*
X156710000Y-101250000D01*
X155700000Y-106945000D02*
X155700000Y-105890000D01*
X132750000Y-70500000D02*
X132750000Y-71750000D01*
X130450000Y-73000000D02*
X131500000Y-73000000D01*
X129425000Y-69075000D02*
X131325000Y-69075000D01*
X158000000Y-87100000D02*
X158000000Y-88250000D01*
X134650000Y-73650000D02*
X132750000Y-71750000D01*
X135340000Y-73650000D02*
X134650000Y-73650000D01*
X131500000Y-73000000D02*
X131750000Y-72750000D01*
X156640000Y-96570000D02*
X156710000Y-96500000D01*
X132750000Y-71750000D02*
X131750000Y-72750000D01*
%TO.N,/SCL*%
X135340000Y-75150000D02*
X134600000Y-75150000D01*
X158750000Y-87100000D02*
X158750000Y-88199997D01*
X156200000Y-106288533D02*
X156524577Y-105963956D01*
X157200000Y-97280000D02*
X157200000Y-100470000D01*
X157980000Y-96500000D02*
X158800003Y-95679997D01*
X131750000Y-76250000D02*
X130450000Y-76250000D01*
X134600000Y-75150000D02*
X132750000Y-77000000D01*
X158800003Y-95679997D02*
X158800003Y-88250000D01*
X156200000Y-106945000D02*
X156200000Y-106288533D01*
X158750000Y-88199997D02*
X158800003Y-88250000D01*
X129425000Y-69575000D02*
X130100000Y-69575000D01*
X157980000Y-101180000D02*
X157910000Y-101250000D01*
X157200000Y-100470000D02*
X157980000Y-101250000D01*
X157980000Y-96500000D02*
X157200000Y-97280000D01*
X132750000Y-77000000D02*
X132500000Y-77000000D01*
X129425000Y-69575000D02*
X130975000Y-69575000D01*
X132500000Y-77000000D02*
X131750000Y-76250000D01*
X130975000Y-69575000D02*
X131200000Y-69800000D01*
%TO.N,Net-(U2-LPN)*%
X159500000Y-85000000D02*
X159500000Y-84750000D01*
X160050000Y-84200000D02*
X160050000Y-82750000D01*
X159500000Y-84750000D02*
X160050000Y-84200000D01*
%TO.N,/I2C_RST*%
X155800000Y-82750000D02*
X154750000Y-82750000D01*
X135040000Y-76650000D02*
X131890000Y-79800000D01*
X156500000Y-83450000D02*
X155800000Y-82750000D01*
X156500000Y-85000000D02*
X156500000Y-83450000D01*
X139650000Y-76650000D02*
X139750000Y-76750000D01*
X135340000Y-76650000D02*
X135040000Y-76650000D01*
X131890000Y-79800000D02*
X130000000Y-79800000D01*
X135340000Y-76650000D02*
X139650000Y-76650000D01*
%TO.N,Net-(U2-INT)*%
X158050000Y-84950000D02*
X158000000Y-85000000D01*
X158050000Y-81250000D02*
X158050000Y-84950000D01*
%TO.N,Net-(U3-CS)*%
X129625000Y-71600000D02*
X130000000Y-71225000D01*
X127415686Y-71600000D02*
X129625000Y-71600000D01*
X130000000Y-70075000D02*
X129425000Y-70075000D01*
X127200000Y-72750000D02*
X127200000Y-71815686D01*
X130000000Y-71225000D02*
X130000000Y-70075000D01*
X127200000Y-71815686D02*
X127415686Y-71600000D01*
%TO.N,Net-(U4-CS)*%
X156750000Y-106520000D02*
X156700000Y-106570000D01*
X159025000Y-106765000D02*
X158780000Y-106520000D01*
X158780000Y-106520000D02*
X156750000Y-106520000D01*
X156700000Y-106570000D02*
X156700000Y-106945000D01*
%TO.N,Net-(U4-SDO{slash}SA0)*%
X157825000Y-105215000D02*
X157725000Y-105115000D01*
X154925000Y-106970000D02*
X155025000Y-107070000D01*
X157725000Y-105115000D02*
X155276471Y-105115000D01*
X155276471Y-105115000D02*
X154925000Y-105466471D01*
X154925000Y-105466471D02*
X154925000Y-106970000D01*
%TO.N,Net-(U3-SDO{slash}SA0)*%
X129300000Y-66160000D02*
X129200000Y-66060000D01*
X129300000Y-68400000D02*
X129300000Y-66160000D01*
%TO.N,Net-(U1-EN)*%
X141000000Y-76750000D02*
X136500000Y-72250000D01*
X133680000Y-69000000D02*
X135190000Y-69000000D01*
X136500000Y-72250000D02*
X136500000Y-70010000D01*
X150800000Y-82300000D02*
X150500000Y-82000000D01*
X135190000Y-69000000D02*
X135340000Y-69150000D01*
X135640000Y-69150000D02*
X135340000Y-69150000D01*
X136500000Y-70010000D02*
X135640000Y-69150000D01*
X150800000Y-85250000D02*
X150800000Y-82300000D01*
%TO.N,unconnected-(U1-IO10-Pad10)*%
X155400000Y-76800000D02*
X155400000Y-77860660D01*
X155400000Y-77860660D02*
X153610660Y-79650000D01*
X153610660Y-79650000D02*
X152840000Y-79650000D01*
%TO.N,Net-(D1-BK)*%
X158000000Y-67650000D02*
X158075000Y-67575000D01*
X152840000Y-67650000D02*
X158000000Y-67650000D01*
%TO.N,Net-(D1-A)*%
X158075000Y-68425000D02*
X157025000Y-68425000D01*
X157025000Y-68425000D02*
X156700000Y-68750000D01*
%TO.N,Net-(D1-RK)*%
X160350000Y-65650000D02*
X160350000Y-67748529D01*
X156700000Y-70650000D02*
X152840000Y-70650000D01*
X158925000Y-68425000D02*
X156700000Y-70650000D01*
X160025000Y-68425000D02*
X159400000Y-68425000D01*
X160350000Y-67748529D02*
X159673529Y-68425000D01*
X159673529Y-68425000D02*
X159400000Y-68425000D01*
X159400000Y-68425000D02*
X158925000Y-68425000D01*
X161600000Y-70000000D02*
X160025000Y-68425000D01*
X159300000Y-64600000D02*
X160350000Y-65650000D01*
%TO.N,Net-(D1-GK)*%
X158925000Y-67575000D02*
X159675000Y-67575000D01*
X159675000Y-67575000D02*
X159750000Y-67500000D01*
%TO.N,Net-(D2-A)*%
X157500000Y-73000000D02*
X158075000Y-72425000D01*
X156700000Y-73000000D02*
X157500000Y-73000000D01*
%TO.N,unconnected-(U1-IO18-Pad13)*%
X152840000Y-75150000D02*
X152025061Y-75150000D01*
X152025061Y-75150000D02*
X151275061Y-74400000D01*
%TO.N,unconnected-(U1-IO19-Pad14)*%
X152840000Y-73650000D02*
X151150000Y-73650000D01*
X151150000Y-73650000D02*
X151000000Y-73500000D01*
%TD*%
%TA.AperFunction,Conductor*%
%TO.N,+3.3V*%
G36*
X156152152Y-99654736D02*
G01*
X156192680Y-99711650D01*
X156199500Y-99752206D01*
X156199500Y-100135632D01*
X156179815Y-100202671D01*
X156127011Y-100248426D01*
X156057853Y-100258370D01*
X156047597Y-100256425D01*
X155987844Y-100250000D01*
X155690000Y-100250000D01*
X155690000Y-101040382D01*
X155639554Y-100989936D01*
X155565445Y-100947149D01*
X155482787Y-100925000D01*
X155397213Y-100925000D01*
X155314555Y-100947149D01*
X155240446Y-100989936D01*
X155179936Y-101050446D01*
X155137149Y-101124555D01*
X155115000Y-101207213D01*
X155115000Y-101292787D01*
X155137149Y-101375445D01*
X155179936Y-101449554D01*
X155240446Y-101510064D01*
X155314555Y-101552851D01*
X155397213Y-101575000D01*
X155482787Y-101575000D01*
X155565445Y-101552851D01*
X155639554Y-101510064D01*
X155690000Y-101459618D01*
X155690000Y-102250000D01*
X155987828Y-102250000D01*
X155987844Y-102249999D01*
X156047372Y-102243598D01*
X156047376Y-102243597D01*
X156182089Y-102193351D01*
X156189890Y-102187512D01*
X156255353Y-102163091D01*
X156319529Y-102176751D01*
X156319641Y-102176482D01*
X156321100Y-102177086D01*
X156322663Y-102177419D01*
X156325273Y-102178814D01*
X156513868Y-102236024D01*
X156710000Y-102255341D01*
X156906132Y-102236024D01*
X157094727Y-102178814D01*
X157268538Y-102085910D01*
X157268544Y-102085904D01*
X157273607Y-102082523D01*
X157274703Y-102084164D01*
X157330639Y-102060405D01*
X157399507Y-102072194D01*
X157416148Y-102082888D01*
X157416393Y-102082523D01*
X157421458Y-102085907D01*
X157421462Y-102085910D01*
X157595273Y-102178814D01*
X157783868Y-102236024D01*
X157980000Y-102255341D01*
X158176132Y-102236024D01*
X158364727Y-102178814D01*
X158538538Y-102085910D01*
X158538544Y-102085904D01*
X158543607Y-102082523D01*
X158544703Y-102084164D01*
X158600639Y-102060405D01*
X158669507Y-102072194D01*
X158686148Y-102082888D01*
X158686393Y-102082523D01*
X158691458Y-102085907D01*
X158691462Y-102085910D01*
X158865273Y-102178814D01*
X159053868Y-102236024D01*
X159250000Y-102255341D01*
X159446132Y-102236024D01*
X159634727Y-102178814D01*
X159808538Y-102085910D01*
X159960883Y-101960883D01*
X160085910Y-101808538D01*
X160178814Y-101634727D01*
X160236024Y-101446132D01*
X160255341Y-101250000D01*
X160236024Y-101053868D01*
X160178814Y-100865273D01*
X160178811Y-100865269D01*
X160178811Y-100865266D01*
X160085913Y-100691467D01*
X160085909Y-100691460D01*
X159960883Y-100539116D01*
X159808539Y-100414090D01*
X159808532Y-100414086D01*
X159634733Y-100321188D01*
X159634727Y-100321186D01*
X159446132Y-100263976D01*
X159446131Y-100263975D01*
X159446125Y-100263974D01*
X159437828Y-100263157D01*
X159373042Y-100236994D01*
X159362306Y-100227436D01*
X159347051Y-100212181D01*
X159313566Y-100150858D01*
X159318550Y-100081166D01*
X159360422Y-100025233D01*
X159425886Y-100000816D01*
X159434732Y-100000500D01*
X160575500Y-100000500D01*
X160642539Y-100020185D01*
X160688294Y-100072989D01*
X160699500Y-100124500D01*
X160699500Y-109775500D01*
X160679815Y-109842539D01*
X160627011Y-109888294D01*
X160575500Y-109899500D01*
X157063614Y-109899500D01*
X156996575Y-109879815D01*
X156950820Y-109827011D01*
X156940876Y-109757853D01*
X156969901Y-109694297D01*
X157020281Y-109659318D01*
X157142328Y-109613797D01*
X157142327Y-109613797D01*
X157142331Y-109613796D01*
X157257546Y-109527546D01*
X157343796Y-109412331D01*
X157384818Y-109302344D01*
X157426689Y-109246412D01*
X157492153Y-109221994D01*
X157560426Y-109236845D01*
X157609832Y-109286250D01*
X157625000Y-109345678D01*
X157625000Y-109420000D01*
X157747828Y-109420000D01*
X157747844Y-109419999D01*
X157807372Y-109413598D01*
X157807379Y-109413596D01*
X157942086Y-109363354D01*
X157942093Y-109363350D01*
X158057187Y-109277190D01*
X158057190Y-109277187D01*
X158143350Y-109162093D01*
X158143354Y-109162086D01*
X158193596Y-109027379D01*
X158193598Y-109027373D01*
X158196345Y-109001827D01*
X158223083Y-108937276D01*
X158280475Y-108897428D01*
X158350301Y-108894935D01*
X158379063Y-108906252D01*
X158382911Y-108908353D01*
X158517620Y-108958596D01*
X158517627Y-108958598D01*
X158577155Y-108964999D01*
X158577172Y-108965000D01*
X158775000Y-108965000D01*
X159275000Y-108965000D01*
X159472828Y-108965000D01*
X159472844Y-108964999D01*
X159532372Y-108958598D01*
X159532379Y-108958596D01*
X159667086Y-108908354D01*
X159667093Y-108908350D01*
X159782187Y-108822190D01*
X159782190Y-108822187D01*
X159868350Y-108707093D01*
X159868354Y-108707086D01*
X159918596Y-108572379D01*
X159918598Y-108572372D01*
X159924999Y-108512844D01*
X159925000Y-108512827D01*
X159925000Y-108415000D01*
X159275000Y-108415000D01*
X159275000Y-108965000D01*
X158775000Y-108965000D01*
X158775000Y-108289000D01*
X158794685Y-108221961D01*
X158847489Y-108176206D01*
X158899000Y-108165000D01*
X159025000Y-108165000D01*
X159025000Y-108039000D01*
X159044685Y-107971961D01*
X159097489Y-107926206D01*
X159149000Y-107915000D01*
X159925000Y-107915000D01*
X159925000Y-107817172D01*
X159924999Y-107817155D01*
X159918598Y-107757627D01*
X159918596Y-107757620D01*
X159868354Y-107622913D01*
X159868352Y-107622910D01*
X159806082Y-107539727D01*
X159781665Y-107474262D01*
X159796517Y-107405989D01*
X159806083Y-107391104D01*
X159868796Y-107307331D01*
X159919091Y-107172483D01*
X159925500Y-107112873D01*
X159925499Y-106417128D01*
X159919091Y-106357517D01*
X159868796Y-106222669D01*
X159868795Y-106222668D01*
X159868793Y-106222664D01*
X159827750Y-106167838D01*
X159803332Y-106102374D01*
X159818183Y-106034101D01*
X159852705Y-105994260D01*
X159882190Y-105972186D01*
X159968350Y-105857093D01*
X159968354Y-105857086D01*
X160018596Y-105722379D01*
X160018598Y-105722372D01*
X160024999Y-105662844D01*
X160025000Y-105662827D01*
X160025000Y-105465000D01*
X159349000Y-105465000D01*
X159281961Y-105445315D01*
X159236206Y-105392511D01*
X159225000Y-105341000D01*
X159225000Y-105215000D01*
X159099000Y-105215000D01*
X159031961Y-105195315D01*
X158986206Y-105142511D01*
X158975000Y-105091000D01*
X158975000Y-104965000D01*
X159475000Y-104965000D01*
X160025000Y-104965000D01*
X160025000Y-104767172D01*
X160024999Y-104767155D01*
X160018598Y-104707627D01*
X160018596Y-104707620D01*
X159968354Y-104572913D01*
X159968350Y-104572906D01*
X159882190Y-104457812D01*
X159882187Y-104457809D01*
X159767093Y-104371649D01*
X159767086Y-104371645D01*
X159632379Y-104321403D01*
X159632372Y-104321401D01*
X159572844Y-104315000D01*
X159475000Y-104315000D01*
X159475000Y-104965000D01*
X158975000Y-104965000D01*
X158975000Y-104315000D01*
X158877155Y-104315000D01*
X158817627Y-104321401D01*
X158817620Y-104321403D01*
X158682913Y-104371645D01*
X158682910Y-104371647D01*
X158599727Y-104433918D01*
X158534262Y-104458335D01*
X158465989Y-104443483D01*
X158451106Y-104433918D01*
X158367331Y-104371204D01*
X158367328Y-104371202D01*
X158232486Y-104320910D01*
X158232485Y-104320909D01*
X158232483Y-104320909D01*
X158172873Y-104314500D01*
X158172863Y-104314500D01*
X157477129Y-104314500D01*
X157477123Y-104314501D01*
X157417516Y-104320908D01*
X157282671Y-104371202D01*
X157282664Y-104371206D01*
X157167457Y-104457451D01*
X157167451Y-104457457D01*
X157161948Y-104464809D01*
X157106015Y-104506681D01*
X157062680Y-104514500D01*
X155362582Y-104514500D01*
X155295543Y-104494815D01*
X155249788Y-104442011D01*
X155239054Y-104379693D01*
X155254775Y-104200001D01*
X155254775Y-104199999D01*
X155235712Y-103982115D01*
X155235710Y-103982105D01*
X155179105Y-103770849D01*
X155179101Y-103770840D01*
X155086668Y-103572615D01*
X155043123Y-103510428D01*
X154350000Y-104203553D01*
X154350000Y-104153922D01*
X154326148Y-104064905D01*
X154280070Y-103985095D01*
X154214905Y-103919930D01*
X154135095Y-103873852D01*
X154046078Y-103850000D01*
X153953922Y-103850000D01*
X153864905Y-103873852D01*
X153785095Y-103919930D01*
X153719930Y-103985095D01*
X153673852Y-104064905D01*
X153650000Y-104153922D01*
X153650000Y-104246078D01*
X153673852Y-104335095D01*
X153719930Y-104414905D01*
X153785095Y-104480070D01*
X153864905Y-104526148D01*
X153953922Y-104550000D01*
X154003553Y-104550000D01*
X153310427Y-105243124D01*
X153372612Y-105286666D01*
X153570840Y-105379101D01*
X153570849Y-105379105D01*
X153782105Y-105435710D01*
X153782115Y-105435712D01*
X153999999Y-105454775D01*
X154000001Y-105454775D01*
X154189692Y-105438178D01*
X154258192Y-105451944D01*
X154308375Y-105500559D01*
X154324500Y-105561706D01*
X154324500Y-106445165D01*
X154304815Y-106512204D01*
X154299767Y-106519476D01*
X154256204Y-106577668D01*
X154256202Y-106577671D01*
X154205908Y-106712517D01*
X154199501Y-106772116D01*
X154199500Y-106772135D01*
X154199500Y-107040340D01*
X154179815Y-107107379D01*
X154127011Y-107153134D01*
X154061618Y-107163560D01*
X154025004Y-107159435D01*
X154024996Y-107159435D01*
X153845750Y-107179630D01*
X153845745Y-107179631D01*
X153675476Y-107239211D01*
X153522737Y-107335184D01*
X153395184Y-107462737D01*
X153299211Y-107615476D01*
X153239631Y-107785745D01*
X153239630Y-107785750D01*
X153219435Y-107964996D01*
X153219435Y-107965003D01*
X153239630Y-108144249D01*
X153239631Y-108144254D01*
X153299211Y-108314523D01*
X153370189Y-108427483D01*
X153395184Y-108467262D01*
X153522738Y-108594816D01*
X153675478Y-108690789D01*
X153845745Y-108750368D01*
X153845750Y-108750369D01*
X154024997Y-108770565D01*
X154025000Y-108770565D01*
X154025001Y-108770565D01*
X154033723Y-108769582D01*
X154061616Y-108766439D01*
X154130437Y-108778493D01*
X154181817Y-108825841D01*
X154199500Y-108889657D01*
X154199500Y-108967869D01*
X154199501Y-108967876D01*
X154205908Y-109027483D01*
X154256202Y-109162328D01*
X154256206Y-109162335D01*
X154342452Y-109277544D01*
X154342455Y-109277547D01*
X154457664Y-109363793D01*
X154457671Y-109363797D01*
X154502618Y-109380561D01*
X154592517Y-109414091D01*
X154652127Y-109420500D01*
X155000874Y-109420499D01*
X155067912Y-109440183D01*
X155100139Y-109470187D01*
X155142812Y-109527190D01*
X155257906Y-109613350D01*
X155257913Y-109613354D01*
X155381148Y-109659318D01*
X155437082Y-109701189D01*
X155461499Y-109766654D01*
X155446647Y-109834927D01*
X155397242Y-109884332D01*
X155337815Y-109899500D01*
X153024500Y-109899500D01*
X152957461Y-109879815D01*
X152911706Y-109827011D01*
X152900500Y-109775500D01*
X152900500Y-104997308D01*
X152920185Y-104930269D01*
X152936819Y-104909627D01*
X153646446Y-104200000D01*
X153646446Y-104199999D01*
X152936819Y-103490371D01*
X152903334Y-103429048D01*
X152900500Y-103402690D01*
X152900500Y-103156875D01*
X153310427Y-103156875D01*
X154000000Y-103846446D01*
X154000001Y-103846446D01*
X154689571Y-103156874D01*
X154627387Y-103113333D01*
X154429159Y-103020898D01*
X154429150Y-103020894D01*
X154217894Y-102964289D01*
X154217884Y-102964287D01*
X154000001Y-102945225D01*
X153999999Y-102945225D01*
X153782115Y-102964287D01*
X153782105Y-102964289D01*
X153570849Y-103020894D01*
X153570840Y-103020898D01*
X153372614Y-103113332D01*
X153372612Y-103113333D01*
X153310428Y-103156875D01*
X153310427Y-103156875D01*
X152900500Y-103156875D01*
X152900500Y-101797844D01*
X154440000Y-101797844D01*
X154446401Y-101857372D01*
X154446403Y-101857379D01*
X154496645Y-101992086D01*
X154496649Y-101992093D01*
X154582809Y-102107187D01*
X154582812Y-102107190D01*
X154697906Y-102193350D01*
X154697913Y-102193354D01*
X154832620Y-102243596D01*
X154832627Y-102243598D01*
X154892155Y-102249999D01*
X154892172Y-102250000D01*
X155190000Y-102250000D01*
X155190000Y-101500000D01*
X154440000Y-101500000D01*
X154440000Y-101797844D01*
X152900500Y-101797844D01*
X152900500Y-100702155D01*
X154440000Y-100702155D01*
X154440000Y-101000000D01*
X155190000Y-101000000D01*
X155190000Y-100250000D01*
X154892155Y-100250000D01*
X154832627Y-100256401D01*
X154832620Y-100256403D01*
X154697913Y-100306645D01*
X154697906Y-100306649D01*
X154582812Y-100392809D01*
X154582809Y-100392812D01*
X154496649Y-100507906D01*
X154496645Y-100507913D01*
X154446403Y-100642620D01*
X154446401Y-100642627D01*
X154440000Y-100702155D01*
X152900500Y-100702155D01*
X152900500Y-100124500D01*
X152920185Y-100057461D01*
X152972989Y-100011706D01*
X153024500Y-100000500D01*
X155565890Y-100000500D01*
X155565892Y-100000500D01*
X155693186Y-99966392D01*
X155807314Y-99900500D01*
X155900500Y-99807314D01*
X155966392Y-99693186D01*
X155968113Y-99690206D01*
X156018680Y-99641990D01*
X156087287Y-99628768D01*
X156152152Y-99654736D01*
G37*
%TD.AperFunction*%
%TA.AperFunction,Conductor*%
G36*
X162825970Y-61020185D02*
G01*
X162871725Y-61072989D01*
X162881669Y-61142147D01*
X162852644Y-61205703D01*
X162812732Y-61236220D01*
X162722304Y-61279767D01*
X162722302Y-61279768D01*
X162505520Y-61427567D01*
X162313198Y-61606014D01*
X162149614Y-61811143D01*
X162018432Y-62038356D01*
X161922582Y-62282578D01*
X161922576Y-62282597D01*
X161864197Y-62538374D01*
X161864196Y-62538379D01*
X161844592Y-62799995D01*
X161844592Y-62800004D01*
X161864196Y-63061620D01*
X161864197Y-63061625D01*
X161922576Y-63317402D01*
X161922578Y-63317411D01*
X161922580Y-63317416D01*
X162018432Y-63561643D01*
X162149614Y-63788857D01*
X162192642Y-63842812D01*
X162313198Y-63993985D01*
X162483624Y-64152116D01*
X162505521Y-64172433D01*
X162722296Y-64320228D01*
X162722301Y-64320230D01*
X162722302Y-64320231D01*
X162722303Y-64320232D01*
X162847843Y-64380688D01*
X162958673Y-64434061D01*
X162958674Y-64434061D01*
X162958677Y-64434063D01*
X163209385Y-64511396D01*
X163468818Y-64550500D01*
X163731182Y-64550500D01*
X163990615Y-64511396D01*
X164241323Y-64434063D01*
X164477704Y-64320228D01*
X164694479Y-64172433D01*
X164886805Y-63993981D01*
X165050386Y-63788857D01*
X165181568Y-63561643D01*
X165260072Y-63361615D01*
X165302888Y-63306403D01*
X165368757Y-63283102D01*
X165436768Y-63299113D01*
X165485327Y-63349351D01*
X165499500Y-63406919D01*
X165499500Y-66683292D01*
X165479815Y-66750331D01*
X165427011Y-66796086D01*
X165357853Y-66806030D01*
X165294297Y-66777005D01*
X165273926Y-66754416D01*
X165243124Y-66710427D01*
X164553553Y-67399999D01*
X164553553Y-67400000D01*
X165243124Y-68089570D01*
X165273926Y-68045583D01*
X165328503Y-68001959D01*
X165398002Y-67994767D01*
X165460356Y-68026290D01*
X165495769Y-68086520D01*
X165499500Y-68116708D01*
X165499500Y-95825736D01*
X165479815Y-95892775D01*
X165427011Y-95938530D01*
X165412239Y-95941312D01*
X164564612Y-96788939D01*
X164559111Y-96768409D01*
X164480119Y-96631592D01*
X164368408Y-96519881D01*
X164231591Y-96440889D01*
X164211058Y-96435387D01*
X165049168Y-95597278D01*
X164877454Y-95480206D01*
X164877445Y-95480201D01*
X164641142Y-95366404D01*
X164641144Y-95366404D01*
X164390505Y-95289092D01*
X164390499Y-95289090D01*
X164131151Y-95250000D01*
X163868848Y-95250000D01*
X163609500Y-95289090D01*
X163609494Y-95289092D01*
X163358858Y-95366404D01*
X163358854Y-95366405D01*
X163122547Y-95480205D01*
X163122539Y-95480210D01*
X162950830Y-95597277D01*
X163788941Y-96435387D01*
X163768409Y-96440889D01*
X163631592Y-96519881D01*
X163519881Y-96631592D01*
X163440889Y-96768409D01*
X163435387Y-96788940D01*
X162597874Y-95951427D01*
X162550028Y-96011425D01*
X162418883Y-96238573D01*
X162323058Y-96482729D01*
X162264693Y-96738449D01*
X162264692Y-96738454D01*
X162245093Y-96999995D01*
X162245093Y-97000004D01*
X162264692Y-97261545D01*
X162264693Y-97261550D01*
X162323058Y-97517270D01*
X162418883Y-97761426D01*
X162418882Y-97761426D01*
X162550029Y-97988576D01*
X162597873Y-98048572D01*
X163435387Y-97211058D01*
X163440889Y-97231591D01*
X163519881Y-97368408D01*
X163631592Y-97480119D01*
X163768409Y-97559111D01*
X163788940Y-97564612D01*
X162936945Y-98416605D01*
X162933852Y-98432509D01*
X162885550Y-98482993D01*
X162823734Y-98499500D01*
X158684732Y-98499500D01*
X158617693Y-98479815D01*
X158571938Y-98427011D01*
X158561994Y-98357853D01*
X158591019Y-98294297D01*
X158597051Y-98287819D01*
X158768366Y-98116504D01*
X159362307Y-97522561D01*
X159423628Y-97489078D01*
X159437836Y-97486841D01*
X159439303Y-97486696D01*
X159446132Y-97486024D01*
X159634727Y-97428814D01*
X159637476Y-97427345D01*
X159747013Y-97368796D01*
X159808538Y-97335910D01*
X159960883Y-97210883D01*
X160085910Y-97058538D01*
X160178814Y-96884727D01*
X160236024Y-96696132D01*
X160255341Y-96500000D01*
X160236024Y-96303868D01*
X160178814Y-96115273D01*
X160178811Y-96115269D01*
X160178811Y-96115266D01*
X160085913Y-95941467D01*
X160085909Y-95941460D01*
X159960883Y-95789116D01*
X159808539Y-95664090D01*
X159808532Y-95664086D01*
X159634728Y-95571186D01*
X159488507Y-95526829D01*
X159430068Y-95488531D01*
X159401612Y-95424719D01*
X159400503Y-95408169D01*
X159400503Y-88832412D01*
X159420188Y-88765373D01*
X159427558Y-88755097D01*
X159429813Y-88752267D01*
X159429819Y-88752262D01*
X159525792Y-88599522D01*
X159585371Y-88429255D01*
X159591005Y-88379254D01*
X159605568Y-88250003D01*
X159605568Y-88249996D01*
X159585372Y-88070750D01*
X159585370Y-88070742D01*
X159566024Y-88015453D01*
X159562463Y-87945675D01*
X159597192Y-87885047D01*
X159659185Y-87852820D01*
X159683066Y-87850499D01*
X159797871Y-87850499D01*
X159797872Y-87850499D01*
X159857483Y-87844091D01*
X159857486Y-87844089D01*
X159861744Y-87843632D01*
X159888254Y-87843632D01*
X159892514Y-87844089D01*
X159892517Y-87844091D01*
X159952127Y-87850500D01*
X160547872Y-87850499D01*
X160607483Y-87844091D01*
X160607486Y-87844089D01*
X160611744Y-87843632D01*
X160638254Y-87843632D01*
X160642514Y-87844089D01*
X160642517Y-87844091D01*
X160702127Y-87850500D01*
X161297872Y-87850499D01*
X161357483Y-87844091D01*
X161492331Y-87793796D01*
X161607546Y-87707546D01*
X161693796Y-87592331D01*
X161744091Y-87457483D01*
X161750500Y-87397873D01*
X161750499Y-86882257D01*
X161770183Y-86815219D01*
X161822987Y-86769464D01*
X161831166Y-86766076D01*
X161892086Y-86743354D01*
X161892093Y-86743350D01*
X162007187Y-86657190D01*
X162007190Y-86657187D01*
X162093350Y-86542093D01*
X162093354Y-86542086D01*
X162143596Y-86407379D01*
X162143598Y-86407372D01*
X162149999Y-86347844D01*
X162150000Y-86347827D01*
X162150000Y-86300000D01*
X161574500Y-86300000D01*
X161507461Y-86280315D01*
X161461706Y-86227511D01*
X161450500Y-86176000D01*
X161450500Y-85924000D01*
X161470185Y-85856961D01*
X161522989Y-85811206D01*
X161574500Y-85800000D01*
X162150000Y-85800000D01*
X162150000Y-85752172D01*
X162149999Y-85752155D01*
X162143598Y-85692627D01*
X162143596Y-85692620D01*
X162093354Y-85557913D01*
X162093350Y-85557906D01*
X162007190Y-85442812D01*
X162007187Y-85442809D01*
X161892093Y-85356649D01*
X161892087Y-85356646D01*
X161831165Y-85333923D01*
X161775231Y-85292051D01*
X161750815Y-85226586D01*
X161750499Y-85217765D01*
X161750499Y-84702128D01*
X161744091Y-84642517D01*
X161712026Y-84556547D01*
X161693797Y-84507671D01*
X161693793Y-84507664D01*
X161607547Y-84392455D01*
X161607544Y-84392452D01*
X161492335Y-84306206D01*
X161492328Y-84306202D01*
X161357486Y-84255910D01*
X161357485Y-84255909D01*
X161357483Y-84255909D01*
X161297873Y-84249500D01*
X161297864Y-84249500D01*
X160774500Y-84249500D01*
X160707461Y-84229815D01*
X160661706Y-84177011D01*
X160650500Y-84125500D01*
X160650500Y-83648377D01*
X160670185Y-83581338D01*
X160722989Y-83535583D01*
X160792147Y-83525639D01*
X160848812Y-83549111D01*
X160907910Y-83593352D01*
X160907913Y-83593354D01*
X161042620Y-83643596D01*
X161042627Y-83643598D01*
X161102155Y-83649999D01*
X161102172Y-83650000D01*
X161200000Y-83650000D01*
X161700000Y-83650000D01*
X161797828Y-83650000D01*
X161797844Y-83649999D01*
X161857372Y-83643598D01*
X161857379Y-83643596D01*
X161992086Y-83593354D01*
X161992093Y-83593350D01*
X162107187Y-83507190D01*
X162107190Y-83507187D01*
X162193350Y-83392093D01*
X162193354Y-83392086D01*
X162243596Y-83257379D01*
X162243598Y-83257372D01*
X162249999Y-83197844D01*
X162250000Y-83197827D01*
X162250000Y-83000000D01*
X161700000Y-83000000D01*
X161700000Y-83650000D01*
X161200000Y-83650000D01*
X161200000Y-82500000D01*
X161700000Y-82500000D01*
X162250000Y-82500000D01*
X162250000Y-82302172D01*
X162249999Y-82302155D01*
X162243598Y-82242627D01*
X162243596Y-82242620D01*
X162193354Y-82107913D01*
X162193350Y-82107906D01*
X162107190Y-81992812D01*
X162107187Y-81992809D01*
X161992093Y-81906649D01*
X161992086Y-81906645D01*
X161857379Y-81856403D01*
X161857372Y-81856401D01*
X161797844Y-81850000D01*
X161700000Y-81850000D01*
X161700000Y-82500000D01*
X161200000Y-82500000D01*
X161200000Y-81850000D01*
X161102155Y-81850000D01*
X161042627Y-81856401D01*
X161042620Y-81856403D01*
X160907913Y-81906645D01*
X160907910Y-81906647D01*
X160824727Y-81968918D01*
X160759262Y-81993335D01*
X160690989Y-81978483D01*
X160676106Y-81968918D01*
X160592331Y-81906204D01*
X160592328Y-81906202D01*
X160457482Y-81855908D01*
X160457483Y-81855908D01*
X160397883Y-81849501D01*
X160397881Y-81849500D01*
X160397873Y-81849500D01*
X160397865Y-81849500D01*
X160371740Y-81849500D01*
X160304701Y-81829815D01*
X160258946Y-81777011D01*
X160248450Y-81712245D01*
X160249999Y-81697828D01*
X160250000Y-81697827D01*
X160250000Y-81500000D01*
X159574000Y-81500000D01*
X159506961Y-81480315D01*
X159461206Y-81427511D01*
X159450000Y-81376000D01*
X159450000Y-81250000D01*
X159324000Y-81250000D01*
X159256961Y-81230315D01*
X159211206Y-81177511D01*
X159200000Y-81126000D01*
X159200000Y-81000000D01*
X159700000Y-81000000D01*
X160250000Y-81000000D01*
X160250000Y-80802172D01*
X160249999Y-80802155D01*
X160243598Y-80742627D01*
X160243596Y-80742620D01*
X160193354Y-80607913D01*
X160193350Y-80607906D01*
X160107190Y-80492812D01*
X160107187Y-80492809D01*
X159992093Y-80406649D01*
X159992086Y-80406645D01*
X159857379Y-80356403D01*
X159857372Y-80356401D01*
X159797844Y-80350000D01*
X159700000Y-80350000D01*
X159700000Y-81000000D01*
X159200000Y-81000000D01*
X159200000Y-80350000D01*
X159102155Y-80350000D01*
X159042627Y-80356401D01*
X159042620Y-80356403D01*
X158907913Y-80406645D01*
X158907910Y-80406647D01*
X158824727Y-80468918D01*
X158759262Y-80493335D01*
X158690989Y-80478483D01*
X158676106Y-80468918D01*
X158592331Y-80406204D01*
X158592328Y-80406202D01*
X158457486Y-80355910D01*
X158457485Y-80355909D01*
X158457483Y-80355909D01*
X158397873Y-80349500D01*
X158397863Y-80349500D01*
X157702129Y-80349500D01*
X157702123Y-80349501D01*
X157642516Y-80355908D01*
X157507671Y-80406202D01*
X157507664Y-80406206D01*
X157392455Y-80492452D01*
X157392452Y-80492455D01*
X157306206Y-80607664D01*
X157306202Y-80607671D01*
X157255908Y-80742517D01*
X157249501Y-80802116D01*
X157249500Y-80802135D01*
X157249500Y-81697870D01*
X157249501Y-81697876D01*
X157255908Y-81757483D01*
X157306202Y-81892328D01*
X157306203Y-81892329D01*
X157306204Y-81892331D01*
X157375377Y-81984734D01*
X157392454Y-82007546D01*
X157399808Y-82013051D01*
X157441681Y-82068983D01*
X157449500Y-82112320D01*
X157449500Y-84125500D01*
X157429815Y-84192539D01*
X157377011Y-84238294D01*
X157325500Y-84249500D01*
X157224500Y-84249500D01*
X157157461Y-84229815D01*
X157111706Y-84177011D01*
X157100500Y-84125500D01*
X157100500Y-83370945D01*
X157100500Y-83370943D01*
X157059577Y-83218216D01*
X157047832Y-83197873D01*
X156980522Y-83081287D01*
X156975624Y-83074903D01*
X156950430Y-83009734D01*
X156950000Y-82999417D01*
X156950000Y-81850000D01*
X156852155Y-81850000D01*
X156792627Y-81856401D01*
X156792620Y-81856403D01*
X156657913Y-81906645D01*
X156657910Y-81906647D01*
X156574727Y-81968918D01*
X156509262Y-81993335D01*
X156440989Y-81978483D01*
X156426106Y-81968918D01*
X156342331Y-81906204D01*
X156342328Y-81906202D01*
X156207486Y-81855910D01*
X156207485Y-81855909D01*
X156207483Y-81855909D01*
X156147873Y-81849500D01*
X156147863Y-81849500D01*
X155452129Y-81849500D01*
X155452123Y-81849501D01*
X155392516Y-81855908D01*
X155257671Y-81906202D01*
X155257668Y-81906204D01*
X155152766Y-81984734D01*
X155087301Y-82009151D01*
X155037500Y-82002508D01*
X154929262Y-81964633D01*
X154929249Y-81964630D01*
X154750004Y-81944435D01*
X154749996Y-81944435D01*
X154570750Y-81964630D01*
X154570745Y-81964631D01*
X154400476Y-82024211D01*
X154247737Y-82120184D01*
X154120184Y-82247737D01*
X154024211Y-82400476D01*
X153964631Y-82570745D01*
X153964630Y-82570750D01*
X153944435Y-82749996D01*
X153944435Y-82750003D01*
X153964630Y-82929249D01*
X153964631Y-82929254D01*
X154024211Y-83099523D01*
X154062272Y-83160096D01*
X154120184Y-83252262D01*
X154247738Y-83379816D01*
X154400478Y-83475789D01*
X154506967Y-83513051D01*
X154570745Y-83535368D01*
X154570750Y-83535369D01*
X154749996Y-83555565D01*
X154750000Y-83555565D01*
X154750004Y-83555565D01*
X154929249Y-83535369D01*
X154929252Y-83535368D01*
X154929255Y-83535368D01*
X154929256Y-83535367D01*
X154929259Y-83535367D01*
X154993033Y-83513051D01*
X155037501Y-83497490D01*
X155107279Y-83493928D01*
X155152764Y-83515264D01*
X155257076Y-83593352D01*
X155257668Y-83593795D01*
X155257671Y-83593797D01*
X155302618Y-83610561D01*
X155392517Y-83644091D01*
X155452127Y-83650500D01*
X155775500Y-83650499D01*
X155842539Y-83670183D01*
X155888294Y-83722987D01*
X155899500Y-83774499D01*
X155899500Y-84325052D01*
X155879815Y-84392091D01*
X155859997Y-84415806D01*
X155849328Y-84425738D01*
X155849326Y-84425740D01*
X155775910Y-84549474D01*
X155772981Y-84556547D01*
X155772973Y-84556568D01*
X155754976Y-84607582D01*
X155734500Y-84750001D01*
X155734500Y-85223337D01*
X155714815Y-85290376D01*
X155662011Y-85336131D01*
X155653835Y-85339518D01*
X155607908Y-85356648D01*
X155607907Y-85356648D01*
X155492812Y-85442809D01*
X155492809Y-85442812D01*
X155406649Y-85557906D01*
X155406645Y-85557913D01*
X155356403Y-85692620D01*
X155356401Y-85692627D01*
X155350000Y-85752155D01*
X155350000Y-85800000D01*
X155974858Y-85800000D01*
X156038090Y-85817333D01*
X156039234Y-85818012D01*
X156086863Y-85869131D01*
X156100000Y-85924677D01*
X156100000Y-86149401D01*
X156080315Y-86216440D01*
X156063681Y-86237082D01*
X156037082Y-86263681D01*
X155975759Y-86297166D01*
X155949401Y-86300000D01*
X155350000Y-86300000D01*
X155350000Y-86347844D01*
X155356401Y-86407372D01*
X155356403Y-86407379D01*
X155406645Y-86542086D01*
X155406649Y-86542093D01*
X155492809Y-86657187D01*
X155492812Y-86657190D01*
X155607906Y-86743350D01*
X155607915Y-86743355D01*
X155668832Y-86766075D01*
X155724766Y-86807945D01*
X155749184Y-86873409D01*
X155749500Y-86882257D01*
X155749500Y-87397870D01*
X155749501Y-87397876D01*
X155755908Y-87457483D01*
X155806202Y-87592328D01*
X155806206Y-87592335D01*
X155892452Y-87707544D01*
X155892455Y-87707547D01*
X156007664Y-87793793D01*
X156007671Y-87793797D01*
X156052618Y-87810561D01*
X156142517Y-87844091D01*
X156202127Y-87850500D01*
X156525500Y-87850499D01*
X156592539Y-87870183D01*
X156638294Y-87922987D01*
X156649500Y-87974499D01*
X156649500Y-90300249D01*
X156629815Y-90367288D01*
X156599812Y-90399515D01*
X156573895Y-90418917D01*
X156508431Y-90443335D01*
X156440158Y-90428484D01*
X156425272Y-90418918D01*
X156342088Y-90356646D01*
X156342086Y-90356645D01*
X156207379Y-90306403D01*
X156207372Y-90306401D01*
X156147844Y-90300000D01*
X156050000Y-90300000D01*
X156050000Y-92100000D01*
X156147828Y-92100000D01*
X156147844Y-92099999D01*
X156207372Y-92093598D01*
X156207379Y-92093596D01*
X156342086Y-92043354D01*
X156342089Y-92043352D01*
X156425271Y-91981082D01*
X156490735Y-91956664D01*
X156559008Y-91971515D01*
X156573887Y-91981077D01*
X156657076Y-92043352D01*
X156657668Y-92043795D01*
X156657671Y-92043797D01*
X156690939Y-92056205D01*
X156792517Y-92094091D01*
X156852127Y-92100500D01*
X157275500Y-92100499D01*
X157342539Y-92120183D01*
X157388294Y-92172987D01*
X157399500Y-92224499D01*
X157399500Y-94909902D01*
X157379815Y-94976941D01*
X157363181Y-94997583D01*
X156893579Y-95467184D01*
X156832256Y-95500669D01*
X156793746Y-95502906D01*
X156710001Y-95494659D01*
X156710000Y-95494659D01*
X156513870Y-95513975D01*
X156458278Y-95530839D01*
X156325273Y-95571186D01*
X156325270Y-95571187D01*
X156325268Y-95571188D01*
X156322647Y-95572589D01*
X156321118Y-95572907D01*
X156319646Y-95573517D01*
X156319530Y-95573237D01*
X156254243Y-95586823D01*
X156189894Y-95562490D01*
X156182091Y-95556648D01*
X156047376Y-95506402D01*
X156047372Y-95506401D01*
X155987844Y-95500000D01*
X155690000Y-95500000D01*
X155690000Y-96290382D01*
X155639554Y-96239936D01*
X155565445Y-96197149D01*
X155482787Y-96175000D01*
X155397213Y-96175000D01*
X155314555Y-96197149D01*
X155240446Y-96239936D01*
X155179936Y-96300446D01*
X155137149Y-96374555D01*
X155115000Y-96457213D01*
X155115000Y-96542787D01*
X155137149Y-96625445D01*
X155179936Y-96699554D01*
X155240446Y-96760064D01*
X155314555Y-96802851D01*
X155397213Y-96825000D01*
X155482787Y-96825000D01*
X155565445Y-96802851D01*
X155639554Y-96760064D01*
X155690000Y-96709618D01*
X155690000Y-97500000D01*
X155987828Y-97500000D01*
X155987844Y-97499999D01*
X156055087Y-97492769D01*
X156055233Y-97494132D01*
X156116757Y-97497432D01*
X156173427Y-97538300D01*
X156199007Y-97603319D01*
X156199500Y-97614367D01*
X156199500Y-98747793D01*
X156179815Y-98814832D01*
X156127011Y-98860587D01*
X156057853Y-98870531D01*
X155994297Y-98841506D01*
X155968113Y-98809794D01*
X155932316Y-98747793D01*
X155900500Y-98692686D01*
X155807314Y-98599500D01*
X155750250Y-98566554D01*
X155693187Y-98533608D01*
X155629539Y-98516554D01*
X155565892Y-98499500D01*
X155565891Y-98499500D01*
X138111230Y-98499500D01*
X138044191Y-98479815D01*
X137998436Y-98427011D01*
X137988492Y-98357853D01*
X138017517Y-98294297D01*
X138023549Y-98287819D01*
X138194864Y-98116504D01*
X138780805Y-97530561D01*
X138842126Y-97497078D01*
X138879288Y-97494716D01*
X138981665Y-97503672D01*
X138999999Y-97505277D01*
X139000000Y-97505277D01*
X139000002Y-97505277D01*
X139028254Y-97502805D01*
X139217977Y-97486207D01*
X139429330Y-97429575D01*
X139627639Y-97337102D01*
X139806877Y-97211598D01*
X139961598Y-97056877D01*
X139964050Y-97053374D01*
X140018628Y-97009751D01*
X140065624Y-97000500D01*
X141633023Y-97000500D01*
X141700062Y-97020185D01*
X141745817Y-97072989D01*
X141753266Y-97100134D01*
X141754124Y-97099932D01*
X141755907Y-97107479D01*
X141806202Y-97242328D01*
X141806206Y-97242335D01*
X141892452Y-97357544D01*
X141892455Y-97357547D01*
X142007664Y-97443793D01*
X142007671Y-97443797D01*
X142142517Y-97494091D01*
X142142516Y-97494091D01*
X142148330Y-97494716D01*
X142202127Y-97500500D01*
X143297872Y-97500499D01*
X143357483Y-97494091D01*
X143395759Y-97479815D01*
X143492329Y-97443797D01*
X143492329Y-97443796D01*
X143492331Y-97443796D01*
X143500822Y-97437439D01*
X143566284Y-97413021D01*
X143629628Y-97426502D01*
X143629830Y-97426016D01*
X143632461Y-97427105D01*
X143633585Y-97427345D01*
X143635462Y-97428348D01*
X143770000Y-97469159D01*
X143770000Y-96709618D01*
X143820446Y-96760064D01*
X143894555Y-96802851D01*
X143977213Y-96825000D01*
X144062787Y-96825000D01*
X144145445Y-96802851D01*
X144219554Y-96760064D01*
X144270000Y-96709618D01*
X144270000Y-97469159D01*
X144404534Y-97428349D01*
X144578259Y-97335492D01*
X144583320Y-97332111D01*
X144584444Y-97333793D01*
X144640203Y-97310086D01*
X144709075Y-97321851D01*
X144726186Y-97332843D01*
X144726399Y-97332526D01*
X144731457Y-97335906D01*
X144731462Y-97335910D01*
X144869594Y-97409743D01*
X144902524Y-97427345D01*
X144905273Y-97428814D01*
X145093868Y-97486024D01*
X145290000Y-97505341D01*
X145486132Y-97486024D01*
X145674727Y-97428814D01*
X145848538Y-97335910D01*
X145848544Y-97335904D01*
X145853607Y-97332523D01*
X145854703Y-97334164D01*
X145910639Y-97310405D01*
X145979507Y-97322194D01*
X145996148Y-97332888D01*
X145996393Y-97332523D01*
X146001458Y-97335907D01*
X146001462Y-97335910D01*
X146145726Y-97413021D01*
X146172524Y-97427345D01*
X146175273Y-97428814D01*
X146363868Y-97486024D01*
X146560000Y-97505341D01*
X146756132Y-97486024D01*
X146944727Y-97428814D01*
X147118538Y-97335910D01*
X147118544Y-97335904D01*
X147123607Y-97332523D01*
X147124703Y-97334164D01*
X147180639Y-97310405D01*
X147249507Y-97322194D01*
X147266148Y-97332888D01*
X147266393Y-97332523D01*
X147271458Y-97335907D01*
X147271462Y-97335910D01*
X147415726Y-97413021D01*
X147442524Y-97427345D01*
X147445273Y-97428814D01*
X147633868Y-97486024D01*
X147830000Y-97505341D01*
X148026132Y-97486024D01*
X148214727Y-97428814D01*
X148217476Y-97427345D01*
X148327013Y-97368796D01*
X148388538Y-97335910D01*
X148540883Y-97210883D01*
X148665910Y-97058538D01*
X148671626Y-97047844D01*
X154440000Y-97047844D01*
X154446401Y-97107372D01*
X154446403Y-97107379D01*
X154496645Y-97242086D01*
X154496649Y-97242093D01*
X154582809Y-97357187D01*
X154582812Y-97357190D01*
X154697906Y-97443350D01*
X154697913Y-97443354D01*
X154832620Y-97493596D01*
X154832627Y-97493598D01*
X154892155Y-97499999D01*
X154892172Y-97500000D01*
X155190000Y-97500000D01*
X155190000Y-96750000D01*
X154440000Y-96750000D01*
X154440000Y-97047844D01*
X148671626Y-97047844D01*
X148758814Y-96884727D01*
X148816024Y-96696132D01*
X148835341Y-96500000D01*
X148816024Y-96303868D01*
X148758814Y-96115273D01*
X148758811Y-96115269D01*
X148758811Y-96115266D01*
X148671626Y-95952155D01*
X154440000Y-95952155D01*
X154440000Y-96250000D01*
X155190000Y-96250000D01*
X155190000Y-95500000D01*
X154892155Y-95500000D01*
X154832627Y-95506401D01*
X154832620Y-95506403D01*
X154697913Y-95556645D01*
X154697906Y-95556649D01*
X154582812Y-95642809D01*
X154582809Y-95642812D01*
X154496649Y-95757906D01*
X154496645Y-95757913D01*
X154446403Y-95892620D01*
X154446401Y-95892627D01*
X154440000Y-95952155D01*
X148671626Y-95952155D01*
X148665913Y-95941467D01*
X148665909Y-95941460D01*
X148540887Y-95789122D01*
X148540883Y-95789117D01*
X148475832Y-95735730D01*
X148436500Y-95677987D01*
X148430500Y-95639880D01*
X148430500Y-91647844D01*
X155000000Y-91647844D01*
X155006401Y-91707372D01*
X155006403Y-91707379D01*
X155056645Y-91842086D01*
X155056649Y-91842093D01*
X155142809Y-91957187D01*
X155142812Y-91957190D01*
X155257906Y-92043350D01*
X155257913Y-92043354D01*
X155392620Y-92093596D01*
X155392627Y-92093598D01*
X155452155Y-92099999D01*
X155452172Y-92100000D01*
X155550000Y-92100000D01*
X155550000Y-91450000D01*
X155000000Y-91450000D01*
X155000000Y-91647844D01*
X148430500Y-91647844D01*
X148430500Y-89002135D01*
X149249500Y-89002135D01*
X149249500Y-90497870D01*
X149249501Y-90497876D01*
X149255908Y-90557483D01*
X149306202Y-90692328D01*
X149306206Y-90692335D01*
X149392452Y-90807544D01*
X149392455Y-90807547D01*
X149507664Y-90893793D01*
X149507671Y-90893797D01*
X149642517Y-90944091D01*
X149642516Y-90944091D01*
X149649444Y-90944835D01*
X149702127Y-90950500D01*
X151897872Y-90950499D01*
X151957483Y-90944091D01*
X152092331Y-90893796D01*
X152207546Y-90807546D01*
X152249012Y-90752155D01*
X155000000Y-90752155D01*
X155000000Y-90950000D01*
X155550000Y-90950000D01*
X155550000Y-90300000D01*
X155452155Y-90300000D01*
X155392627Y-90306401D01*
X155392620Y-90306403D01*
X155257913Y-90356645D01*
X155257906Y-90356649D01*
X155142812Y-90442809D01*
X155142809Y-90442812D01*
X155056649Y-90557906D01*
X155056645Y-90557913D01*
X155006403Y-90692620D01*
X155006401Y-90692627D01*
X155000000Y-90752155D01*
X152249012Y-90752155D01*
X152293796Y-90692331D01*
X152344091Y-90557483D01*
X152350500Y-90497873D01*
X152350499Y-89002128D01*
X152344091Y-88942517D01*
X152312952Y-88859030D01*
X152293797Y-88807671D01*
X152293793Y-88807664D01*
X152207547Y-88692455D01*
X152207544Y-88692452D01*
X152092335Y-88606206D01*
X152092328Y-88606202D01*
X151957482Y-88555908D01*
X151957483Y-88555908D01*
X151897883Y-88549501D01*
X151897881Y-88549500D01*
X151897873Y-88549500D01*
X151897864Y-88549500D01*
X149702129Y-88549500D01*
X149702123Y-88549501D01*
X149642516Y-88555908D01*
X149507671Y-88606202D01*
X149507664Y-88606206D01*
X149392455Y-88692452D01*
X149392452Y-88692455D01*
X149306206Y-88807664D01*
X149306202Y-88807671D01*
X149255908Y-88942517D01*
X149250913Y-88988985D01*
X149249501Y-89002123D01*
X149249500Y-89002135D01*
X148430500Y-89002135D01*
X148430500Y-83160096D01*
X148450185Y-83093057D01*
X148466814Y-83072420D01*
X149496648Y-82042585D01*
X149557969Y-82009102D01*
X149627661Y-82014086D01*
X149683594Y-82055958D01*
X149707547Y-82116383D01*
X149714631Y-82179251D01*
X149714631Y-82179254D01*
X149774211Y-82349523D01*
X149868763Y-82500000D01*
X149870184Y-82502262D01*
X149997738Y-82629816D01*
X150141474Y-82720131D01*
X150187763Y-82772463D01*
X150199500Y-82825123D01*
X150199500Y-83925500D01*
X150179815Y-83992539D01*
X150127011Y-84038294D01*
X150075500Y-84049500D01*
X149702130Y-84049500D01*
X149702123Y-84049501D01*
X149642516Y-84055908D01*
X149507671Y-84106202D01*
X149507664Y-84106206D01*
X149392455Y-84192452D01*
X149392452Y-84192455D01*
X149306206Y-84307664D01*
X149306202Y-84307671D01*
X149255908Y-84442517D01*
X149249501Y-84502116D01*
X149249501Y-84502123D01*
X149249500Y-84502135D01*
X149249500Y-85997870D01*
X149249501Y-85997876D01*
X149255908Y-86057483D01*
X149306202Y-86192328D01*
X149306206Y-86192335D01*
X149392452Y-86307544D01*
X149392455Y-86307547D01*
X149507664Y-86393793D01*
X149507671Y-86393797D01*
X149642517Y-86444091D01*
X149642516Y-86444091D01*
X149649444Y-86444835D01*
X149702127Y-86450500D01*
X151897872Y-86450499D01*
X151957483Y-86444091D01*
X152092331Y-86393796D01*
X152207546Y-86307546D01*
X152293796Y-86192331D01*
X152344091Y-86057483D01*
X152350500Y-85997873D01*
X152350499Y-84502128D01*
X152344091Y-84442517D01*
X152337833Y-84425739D01*
X152293797Y-84307671D01*
X152293793Y-84307664D01*
X152207547Y-84192455D01*
X152207544Y-84192452D01*
X152092335Y-84106206D01*
X152092328Y-84106202D01*
X151957482Y-84055908D01*
X151957483Y-84055908D01*
X151897883Y-84049501D01*
X151897881Y-84049500D01*
X151897873Y-84049500D01*
X151897865Y-84049500D01*
X151524500Y-84049500D01*
X151457461Y-84029815D01*
X151411706Y-83977011D01*
X151400500Y-83925500D01*
X151400500Y-82220945D01*
X151400500Y-82220943D01*
X151373502Y-82120184D01*
X151359577Y-82068215D01*
X151359575Y-82068211D01*
X151314954Y-81990925D01*
X151299121Y-81942808D01*
X151285369Y-81820750D01*
X151285368Y-81820745D01*
X151225788Y-81650476D01*
X151129815Y-81497737D01*
X151002262Y-81370184D01*
X150849523Y-81274211D01*
X150679252Y-81214631D01*
X150616383Y-81207547D01*
X150551970Y-81180480D01*
X150512415Y-81122885D01*
X150510278Y-81053048D01*
X150542585Y-80996648D01*
X151388196Y-80151037D01*
X151449517Y-80117554D01*
X151519209Y-80122538D01*
X151575142Y-80164410D01*
X151592077Y-80200632D01*
X151593198Y-80200215D01*
X151646202Y-80342328D01*
X151646206Y-80342335D01*
X151732452Y-80457544D01*
X151732455Y-80457547D01*
X151847664Y-80543793D01*
X151847671Y-80543797D01*
X151982517Y-80594091D01*
X151982516Y-80594091D01*
X151989444Y-80594835D01*
X152042127Y-80600500D01*
X153637872Y-80600499D01*
X153697483Y-80594091D01*
X153832331Y-80543796D01*
X153947546Y-80457546D01*
X154033796Y-80342331D01*
X154084091Y-80207483D01*
X154088259Y-80168716D01*
X154090499Y-80147886D01*
X154090499Y-80147882D01*
X154090500Y-80147873D01*
X154090499Y-80070756D01*
X154110183Y-80003718D01*
X154126813Y-79983080D01*
X155758506Y-78351388D01*
X155758511Y-78351384D01*
X155768714Y-78341180D01*
X155768716Y-78341180D01*
X155880520Y-78229376D01*
X155959120Y-78093236D01*
X155959151Y-78093183D01*
X155959574Y-78092450D01*
X155959576Y-78092446D01*
X155959577Y-78092445D01*
X155999907Y-77941931D01*
X156036271Y-77882274D01*
X156048544Y-77872463D01*
X156206877Y-77761598D01*
X156361598Y-77606877D01*
X156487102Y-77427639D01*
X156579575Y-77229330D01*
X156636207Y-77017977D01*
X156652805Y-76828254D01*
X156655277Y-76800002D01*
X156655277Y-76799997D01*
X156650902Y-76749996D01*
X156636207Y-76582023D01*
X156601404Y-76452135D01*
X158099500Y-76452135D01*
X158099500Y-77547870D01*
X158099501Y-77547876D01*
X158105908Y-77607483D01*
X158156202Y-77742328D01*
X158156206Y-77742335D01*
X158242452Y-77857544D01*
X158242455Y-77857547D01*
X158357664Y-77943793D01*
X158357671Y-77943797D01*
X158492517Y-77994091D01*
X158492516Y-77994091D01*
X158499444Y-77994835D01*
X158552127Y-78000500D01*
X159647872Y-78000499D01*
X159707483Y-77994091D01*
X159842331Y-77943796D01*
X159850379Y-77937770D01*
X159915842Y-77913351D01*
X159979474Y-77926895D01*
X159979645Y-77926483D01*
X159981875Y-77927406D01*
X159983146Y-77927677D01*
X159985273Y-77928814D01*
X160173868Y-77986024D01*
X160370000Y-78005341D01*
X160566132Y-77986024D01*
X160754727Y-77928814D01*
X160928538Y-77835910D01*
X160928544Y-77835904D01*
X160933607Y-77832523D01*
X160934703Y-77834164D01*
X160990639Y-77810405D01*
X161059507Y-77822194D01*
X161076148Y-77832888D01*
X161076393Y-77832523D01*
X161081458Y-77835907D01*
X161081462Y-77835910D01*
X161202260Y-77900478D01*
X161253147Y-77927678D01*
X161255273Y-77928814D01*
X161443868Y-77986024D01*
X161640000Y-78005341D01*
X161836132Y-77986024D01*
X162024727Y-77928814D01*
X162198538Y-77835910D01*
X162198544Y-77835904D01*
X162203607Y-77832523D01*
X162204703Y-77834164D01*
X162260639Y-77810405D01*
X162329507Y-77822194D01*
X162346148Y-77832888D01*
X162346393Y-77832523D01*
X162351458Y-77835907D01*
X162351462Y-77835910D01*
X162472260Y-77900478D01*
X162523147Y-77927678D01*
X162525273Y-77928814D01*
X162713868Y-77986024D01*
X162910000Y-78005341D01*
X163106132Y-77986024D01*
X163294727Y-77928814D01*
X163296853Y-77927678D01*
X163428060Y-77857546D01*
X163468538Y-77835910D01*
X163620883Y-77710883D01*
X163745910Y-77558538D01*
X163814973Y-77429330D01*
X163838811Y-77384733D01*
X163838811Y-77384732D01*
X163838814Y-77384727D01*
X163896024Y-77196132D01*
X163915341Y-77000000D01*
X163896024Y-76803868D01*
X163838814Y-76615273D01*
X163838811Y-76615269D01*
X163838811Y-76615266D01*
X163745913Y-76441467D01*
X163745909Y-76441460D01*
X163620883Y-76289116D01*
X163468539Y-76164090D01*
X163468532Y-76164086D01*
X163294733Y-76071188D01*
X163294727Y-76071186D01*
X163106132Y-76013976D01*
X163106129Y-76013975D01*
X162910000Y-75994659D01*
X162713870Y-76013975D01*
X162525266Y-76071188D01*
X162351467Y-76164086D01*
X162346399Y-76167473D01*
X162345305Y-76165836D01*
X162289337Y-76189596D01*
X162220471Y-76177795D01*
X162203843Y-76167109D01*
X162203601Y-76167473D01*
X162198532Y-76164086D01*
X162024733Y-76071188D01*
X162024727Y-76071186D01*
X161836132Y-76013976D01*
X161836129Y-76013975D01*
X161640000Y-75994659D01*
X161443870Y-76013975D01*
X161255266Y-76071188D01*
X161081467Y-76164086D01*
X161076399Y-76167473D01*
X161075305Y-76165836D01*
X161019337Y-76189596D01*
X160950471Y-76177795D01*
X160933843Y-76167109D01*
X160933601Y-76167473D01*
X160928532Y-76164086D01*
X160754733Y-76071188D01*
X160754727Y-76071186D01*
X160566132Y-76013976D01*
X160566129Y-76013975D01*
X160370000Y-75994659D01*
X160173870Y-76013975D01*
X160057803Y-76049184D01*
X159985273Y-76071186D01*
X159985272Y-76071186D01*
X159985267Y-76071188D01*
X159983143Y-76072324D01*
X159981898Y-76072583D01*
X159979641Y-76073518D01*
X159979463Y-76073089D01*
X159914740Y-76086564D01*
X159850382Y-76062231D01*
X159842331Y-76056204D01*
X159842328Y-76056202D01*
X159707482Y-76005908D01*
X159707483Y-76005908D01*
X159647883Y-75999501D01*
X159647881Y-75999500D01*
X159647873Y-75999500D01*
X159647864Y-75999500D01*
X158552129Y-75999500D01*
X158552123Y-75999501D01*
X158492516Y-76005908D01*
X158357671Y-76056202D01*
X158357664Y-76056206D01*
X158242455Y-76142452D01*
X158242452Y-76142455D01*
X158156206Y-76257664D01*
X158156202Y-76257671D01*
X158105908Y-76392517D01*
X158099501Y-76452116D01*
X158099500Y-76452135D01*
X156601404Y-76452135D01*
X156579575Y-76370670D01*
X156487102Y-76172362D01*
X156487100Y-76172359D01*
X156487099Y-76172357D01*
X156361599Y-75993124D01*
X156287773Y-75919298D01*
X156206877Y-75838402D01*
X156027639Y-75712898D01*
X156027640Y-75712898D01*
X156027638Y-75712897D01*
X155908932Y-75657544D01*
X155829330Y-75620425D01*
X155829326Y-75620424D01*
X155829322Y-75620422D01*
X155617977Y-75563793D01*
X155400002Y-75544723D01*
X155399998Y-75544723D01*
X155254682Y-75557436D01*
X155182023Y-75563793D01*
X155182020Y-75563793D01*
X154970677Y-75620422D01*
X154970668Y-75620426D01*
X154772361Y-75712898D01*
X154772357Y-75712900D01*
X154593121Y-75838402D01*
X154438405Y-75993118D01*
X154311528Y-76174318D01*
X154256951Y-76217942D01*
X154187452Y-76225135D01*
X154125098Y-76193613D01*
X154089684Y-76133383D01*
X154086663Y-76116445D01*
X154084091Y-76092518D01*
X154084091Y-76092517D01*
X154033796Y-75957669D01*
X154033794Y-75957666D01*
X154030696Y-75949360D01*
X154032426Y-75948714D01*
X154019902Y-75891163D01*
X154031691Y-75851011D01*
X154030696Y-75850640D01*
X154033794Y-75842333D01*
X154033796Y-75842331D01*
X154084091Y-75707483D01*
X154090500Y-75647873D01*
X154090499Y-74652128D01*
X154084091Y-74592517D01*
X154033796Y-74457669D01*
X154033794Y-74457666D01*
X154030696Y-74449360D01*
X154032426Y-74448714D01*
X154019902Y-74391163D01*
X154031691Y-74351011D01*
X154030696Y-74350640D01*
X154033794Y-74342333D01*
X154033796Y-74342331D01*
X154084091Y-74207483D01*
X154090500Y-74147873D01*
X154090499Y-73447844D01*
X154500000Y-73447844D01*
X154506401Y-73507372D01*
X154506403Y-73507379D01*
X154556645Y-73642086D01*
X154556649Y-73642093D01*
X154642809Y-73757187D01*
X154642812Y-73757190D01*
X154757906Y-73843350D01*
X154757913Y-73843354D01*
X154892620Y-73893596D01*
X154892627Y-73893598D01*
X154952155Y-73899999D01*
X154952172Y-73900000D01*
X155050000Y-73900000D01*
X155050000Y-73250000D01*
X154500000Y-73250000D01*
X154500000Y-73447844D01*
X154090499Y-73447844D01*
X154090499Y-73152128D01*
X154084091Y-73092517D01*
X154033796Y-72957669D01*
X154033794Y-72957666D01*
X154030696Y-72949360D01*
X154032426Y-72948714D01*
X154019902Y-72891163D01*
X154031694Y-72851013D01*
X154030697Y-72850642D01*
X154068150Y-72750222D01*
X154110020Y-72694288D01*
X154122335Y-72686165D01*
X154134306Y-72679254D01*
X154188661Y-72647872D01*
X154218716Y-72630520D01*
X154288319Y-72560917D01*
X154349642Y-72527432D01*
X154419334Y-72532416D01*
X154475267Y-72574288D01*
X154499684Y-72639752D01*
X154500000Y-72648598D01*
X154500000Y-72750000D01*
X155176000Y-72750000D01*
X155243039Y-72769685D01*
X155288794Y-72822489D01*
X155300000Y-72874000D01*
X155300000Y-73000000D01*
X155426000Y-73000000D01*
X155493039Y-73019685D01*
X155538794Y-73072489D01*
X155550000Y-73124000D01*
X155550000Y-73900000D01*
X155647828Y-73900000D01*
X155647844Y-73899999D01*
X155707372Y-73893598D01*
X155707379Y-73893596D01*
X155842086Y-73843354D01*
X155842089Y-73843352D01*
X155925271Y-73781082D01*
X155990735Y-73756664D01*
X156059008Y-73771515D01*
X156073887Y-73781077D01*
X156157076Y-73843352D01*
X156157668Y-73843795D01*
X156157671Y-73843797D01*
X156202618Y-73860561D01*
X156292517Y-73894091D01*
X156352127Y-73900500D01*
X157047872Y-73900499D01*
X157107483Y-73894091D01*
X157242331Y-73843796D01*
X157357546Y-73757546D01*
X157416159Y-73679249D01*
X157437914Y-73650189D01*
X157493848Y-73608319D01*
X157537180Y-73600501D01*
X157579054Y-73600501D01*
X157579057Y-73600501D01*
X157731785Y-73559577D01*
X157781904Y-73530639D01*
X157868716Y-73480520D01*
X157980520Y-73368716D01*
X157980521Y-73368714D01*
X158162417Y-73186818D01*
X158223740Y-73153333D01*
X158246983Y-73150833D01*
X158246978Y-73150709D01*
X158246977Y-73150690D01*
X158246977Y-73150689D01*
X158246974Y-73150594D01*
X158249390Y-73150499D01*
X158249404Y-73150499D01*
X158284156Y-73147765D01*
X158432887Y-73104555D01*
X158436876Y-73102195D01*
X158504599Y-73085011D01*
X158563123Y-73102195D01*
X158567113Y-73104555D01*
X158715844Y-73147765D01*
X158750595Y-73150500D01*
X159099404Y-73150499D01*
X159134156Y-73147765D01*
X159177917Y-73135051D01*
X159247782Y-73135249D01*
X159278480Y-73149133D01*
X159315358Y-73172304D01*
X159400475Y-73225788D01*
X159570745Y-73285368D01*
X159570750Y-73285369D01*
X159749996Y-73305565D01*
X159750000Y-73305565D01*
X159750004Y-73305565D01*
X159929249Y-73285369D01*
X159929252Y-73285368D01*
X159929255Y-73285368D01*
X160099522Y-73225789D01*
X160252262Y-73129816D01*
X160379816Y-73002262D01*
X160475789Y-72849522D01*
X160535368Y-72679255D01*
X160535369Y-72679249D01*
X160555565Y-72500003D01*
X160555565Y-72499996D01*
X160535369Y-72320750D01*
X160535368Y-72320745D01*
X160475788Y-72150475D01*
X160422691Y-72065973D01*
X160403690Y-71998736D01*
X160422691Y-71934027D01*
X160475788Y-71849524D01*
X160501690Y-71775500D01*
X160535368Y-71679255D01*
X160551957Y-71532023D01*
X160555565Y-71500003D01*
X160555565Y-71499996D01*
X160535369Y-71320750D01*
X160535368Y-71320745D01*
X160505787Y-71236207D01*
X160475789Y-71150478D01*
X160474466Y-71148373D01*
X160379815Y-70997737D01*
X160252262Y-70870184D01*
X160099523Y-70774211D01*
X159929254Y-70714631D01*
X159929249Y-70714630D01*
X159750004Y-70694435D01*
X159749996Y-70694435D01*
X159570750Y-70714630D01*
X159570745Y-70714631D01*
X159400474Y-70774212D01*
X159278481Y-70850865D01*
X159211245Y-70869865D01*
X159177917Y-70864948D01*
X159134159Y-70852236D01*
X159134160Y-70852236D01*
X159134156Y-70852235D01*
X159134153Y-70852234D01*
X159134150Y-70852234D01*
X159103912Y-70849854D01*
X159099405Y-70849500D01*
X159099404Y-70849500D01*
X158750606Y-70849500D01*
X158750584Y-70849501D01*
X158715847Y-70852234D01*
X158672085Y-70864948D01*
X158567113Y-70895445D01*
X158567112Y-70895445D01*
X158567107Y-70895447D01*
X158567105Y-70895448D01*
X158563120Y-70897805D01*
X158495396Y-70914988D01*
X158436880Y-70897805D01*
X158432894Y-70895448D01*
X158432892Y-70895447D01*
X158432888Y-70895446D01*
X158432887Y-70895445D01*
X158284156Y-70852235D01*
X158284153Y-70852234D01*
X158284151Y-70852234D01*
X158253395Y-70849814D01*
X158249405Y-70849500D01*
X158249404Y-70849500D01*
X157900606Y-70849500D01*
X157900584Y-70849501D01*
X157865847Y-70852234D01*
X157830950Y-70862372D01*
X157717113Y-70895445D01*
X157717111Y-70895445D01*
X157717111Y-70895446D01*
X157612637Y-70957232D01*
X157549516Y-70974500D01*
X157524097Y-70974500D01*
X157457058Y-70954815D01*
X157411303Y-70902011D01*
X157401359Y-70832853D01*
X157430384Y-70769297D01*
X157436416Y-70762819D01*
X159012416Y-69186818D01*
X159073739Y-69153333D01*
X159096983Y-69150833D01*
X159096978Y-69150709D01*
X159096977Y-69150690D01*
X159096977Y-69150689D01*
X159096974Y-69150594D01*
X159099390Y-69150499D01*
X159099404Y-69150499D01*
X159134156Y-69147765D01*
X159282887Y-69104555D01*
X159387363Y-69042768D01*
X159450484Y-69025500D01*
X159586860Y-69025500D01*
X159586876Y-69025501D01*
X159724904Y-69025501D01*
X159791943Y-69045186D01*
X159812585Y-69061820D01*
X160348882Y-69598117D01*
X160382367Y-69659440D01*
X160380976Y-69717889D01*
X160363795Y-69782011D01*
X160363792Y-69782029D01*
X160344723Y-69999997D01*
X160344723Y-70000002D01*
X160363793Y-70217975D01*
X160363793Y-70217979D01*
X160420422Y-70429322D01*
X160420424Y-70429326D01*
X160420425Y-70429330D01*
X160444185Y-70480284D01*
X160512897Y-70627638D01*
X160524284Y-70643900D01*
X160638402Y-70806877D01*
X160793123Y-70961598D01*
X160972361Y-71087102D01*
X161170670Y-71179575D01*
X161382023Y-71236207D01*
X161564926Y-71252208D01*
X161599998Y-71255277D01*
X161600000Y-71255277D01*
X161600002Y-71255277D01*
X161628254Y-71252805D01*
X161817977Y-71236207D01*
X162029330Y-71179575D01*
X162227639Y-71087102D01*
X162406877Y-70961598D01*
X162561598Y-70806877D01*
X162687102Y-70627639D01*
X162779575Y-70429330D01*
X162836207Y-70217977D01*
X162855277Y-70000000D01*
X162836207Y-69782023D01*
X162798495Y-69641282D01*
X162779577Y-69570677D01*
X162779576Y-69570676D01*
X162779575Y-69570670D01*
X162687102Y-69372362D01*
X162687100Y-69372359D01*
X162687099Y-69372357D01*
X162561599Y-69193124D01*
X162501143Y-69132668D01*
X162406877Y-69038402D01*
X162227639Y-68912898D01*
X162227640Y-68912898D01*
X162227638Y-68912897D01*
X162055188Y-68832483D01*
X162029330Y-68820425D01*
X162029326Y-68820424D01*
X162029322Y-68820422D01*
X161817977Y-68763793D01*
X161600002Y-68744723D01*
X161599998Y-68744723D01*
X161382029Y-68763792D01*
X161382011Y-68763795D01*
X161317889Y-68780976D01*
X161248039Y-68779312D01*
X161198117Y-68748882D01*
X160892359Y-68443124D01*
X163510427Y-68443124D01*
X163572612Y-68486666D01*
X163770840Y-68579101D01*
X163770849Y-68579105D01*
X163982105Y-68635710D01*
X163982115Y-68635712D01*
X164199999Y-68654775D01*
X164200001Y-68654775D01*
X164417884Y-68635712D01*
X164417894Y-68635710D01*
X164629150Y-68579105D01*
X164629164Y-68579100D01*
X164827383Y-68486669D01*
X164827385Y-68486668D01*
X164889571Y-68443124D01*
X164200001Y-67753553D01*
X164200000Y-67753553D01*
X163510427Y-68443124D01*
X160892359Y-68443124D01*
X160786181Y-68336946D01*
X160752696Y-68275623D01*
X160757680Y-68205931D01*
X160786181Y-68161584D01*
X160804421Y-68143344D01*
X160830520Y-68117245D01*
X160909577Y-67980313D01*
X160944628Y-67849500D01*
X160950500Y-67827587D01*
X160950500Y-67669472D01*
X160950500Y-67399999D01*
X162945225Y-67399999D01*
X162945225Y-67400000D01*
X162964287Y-67617884D01*
X162964289Y-67617894D01*
X163020894Y-67829150D01*
X163020898Y-67829159D01*
X163113333Y-68027387D01*
X163156874Y-68089571D01*
X163846446Y-67400000D01*
X163846446Y-67399999D01*
X163156875Y-66710427D01*
X163156875Y-66710428D01*
X163113333Y-66772612D01*
X163113332Y-66772614D01*
X163020898Y-66970840D01*
X163020894Y-66970849D01*
X162964289Y-67182105D01*
X162964287Y-67182115D01*
X162945225Y-67399999D01*
X160950500Y-67399999D01*
X160950500Y-66356875D01*
X163510427Y-66356875D01*
X164200000Y-67046446D01*
X164200001Y-67046446D01*
X164889571Y-66356874D01*
X164827387Y-66313333D01*
X164629159Y-66220898D01*
X164629150Y-66220894D01*
X164417894Y-66164289D01*
X164417884Y-66164287D01*
X164200001Y-66145225D01*
X164199999Y-66145225D01*
X163982115Y-66164287D01*
X163982105Y-66164289D01*
X163770849Y-66220894D01*
X163770840Y-66220898D01*
X163572614Y-66313332D01*
X163572612Y-66313333D01*
X163510428Y-66356875D01*
X163510427Y-66356875D01*
X160950500Y-66356875D01*
X160950500Y-65621847D01*
X160970185Y-65554808D01*
X161022989Y-65509053D01*
X161061244Y-65498558D01*
X161107373Y-65493598D01*
X161107379Y-65493596D01*
X161242086Y-65443354D01*
X161242093Y-65443350D01*
X161357187Y-65357190D01*
X161357190Y-65357187D01*
X161443350Y-65242093D01*
X161443354Y-65242086D01*
X161493596Y-65107379D01*
X161493598Y-65107372D01*
X161499999Y-65047844D01*
X161500000Y-65047827D01*
X161500000Y-64850000D01*
X160824000Y-64850000D01*
X160756961Y-64830315D01*
X160711206Y-64777511D01*
X160700000Y-64726000D01*
X160700000Y-64600000D01*
X160574000Y-64600000D01*
X160506961Y-64580315D01*
X160461206Y-64527511D01*
X160450000Y-64476000D01*
X160450000Y-64350000D01*
X160950000Y-64350000D01*
X161500000Y-64350000D01*
X161500000Y-64152172D01*
X161499999Y-64152155D01*
X161493598Y-64092627D01*
X161493596Y-64092620D01*
X161443354Y-63957913D01*
X161443350Y-63957906D01*
X161357190Y-63842812D01*
X161357187Y-63842809D01*
X161242093Y-63756649D01*
X161242086Y-63756645D01*
X161107379Y-63706403D01*
X161107372Y-63706401D01*
X161047844Y-63700000D01*
X160950000Y-63700000D01*
X160950000Y-64350000D01*
X160450000Y-64350000D01*
X160450000Y-63700000D01*
X160352155Y-63700000D01*
X160292627Y-63706401D01*
X160292620Y-63706403D01*
X160157913Y-63756645D01*
X160157910Y-63756647D01*
X160074727Y-63818918D01*
X160009262Y-63843335D01*
X159940989Y-63828483D01*
X159926106Y-63818918D01*
X159842331Y-63756204D01*
X159842328Y-63756202D01*
X159707486Y-63705910D01*
X159707485Y-63705909D01*
X159707483Y-63705909D01*
X159647873Y-63699500D01*
X159647863Y-63699500D01*
X158952129Y-63699500D01*
X158952123Y-63699501D01*
X158892516Y-63705908D01*
X158757671Y-63756202D01*
X158757664Y-63756206D01*
X158642455Y-63842452D01*
X158642452Y-63842455D01*
X158556206Y-63957664D01*
X158556202Y-63957671D01*
X158505908Y-64092517D01*
X158499501Y-64152116D01*
X158499500Y-64152135D01*
X158499500Y-65047870D01*
X158499501Y-65047876D01*
X158505908Y-65107483D01*
X158556202Y-65242328D01*
X158556206Y-65242335D01*
X158642452Y-65357544D01*
X158642455Y-65357547D01*
X158757664Y-65443793D01*
X158757671Y-65443797D01*
X158802618Y-65460561D01*
X158892517Y-65494091D01*
X158952127Y-65500500D01*
X159299902Y-65500499D01*
X159366941Y-65520183D01*
X159387583Y-65536818D01*
X159713181Y-65862416D01*
X159746666Y-65923739D01*
X159749500Y-65950097D01*
X159749500Y-66583677D01*
X159729815Y-66650716D01*
X159677011Y-66696471D01*
X159639384Y-66706897D01*
X159570750Y-66714630D01*
X159400475Y-66774211D01*
X159278481Y-66850865D01*
X159211245Y-66869865D01*
X159177917Y-66864948D01*
X159134159Y-66852236D01*
X159134160Y-66852236D01*
X159134156Y-66852235D01*
X159134153Y-66852234D01*
X159134150Y-66852234D01*
X159103912Y-66849854D01*
X159099405Y-66849500D01*
X159099404Y-66849500D01*
X158750606Y-66849500D01*
X158750584Y-66849501D01*
X158715847Y-66852234D01*
X158672085Y-66864948D01*
X158567113Y-66895445D01*
X158567112Y-66895445D01*
X158567107Y-66895447D01*
X158567105Y-66895448D01*
X158563120Y-66897805D01*
X158495396Y-66914988D01*
X158436880Y-66897805D01*
X158432894Y-66895448D01*
X158432892Y-66895447D01*
X158432888Y-66895446D01*
X158432887Y-66895445D01*
X158284156Y-66852235D01*
X158284153Y-66852234D01*
X158284151Y-66852234D01*
X158253395Y-66849814D01*
X158249405Y-66849500D01*
X158249404Y-66849500D01*
X157900606Y-66849500D01*
X157900584Y-66849501D01*
X157865847Y-66852234D01*
X157830950Y-66862372D01*
X157717113Y-66895445D01*
X157717111Y-66895445D01*
X157717111Y-66895446D01*
X157583805Y-66974282D01*
X157583796Y-66974289D01*
X157544907Y-67013180D01*
X157483584Y-67046666D01*
X157457225Y-67049500D01*
X154154141Y-67049500D01*
X154087102Y-67029815D01*
X154041347Y-66977011D01*
X154037969Y-66968859D01*
X154033796Y-66957669D01*
X154033793Y-66957665D01*
X154033793Y-66957664D01*
X153947547Y-66842455D01*
X153947544Y-66842452D01*
X153855124Y-66773266D01*
X153813253Y-66717332D01*
X153808269Y-66647641D01*
X153841755Y-66586318D01*
X153903078Y-66552834D01*
X153929435Y-66550000D01*
X158090000Y-66550000D01*
X158090000Y-61124500D01*
X158109685Y-61057461D01*
X158162489Y-61011706D01*
X158214000Y-61000500D01*
X162758931Y-61000500D01*
X162825970Y-61020185D01*
G37*
%TD.AperFunction*%
%TA.AperFunction,Conductor*%
G36*
X165414819Y-98061266D02*
G01*
X165436582Y-98066350D01*
X165485227Y-98116504D01*
X165499500Y-98174262D01*
X165499500Y-98375500D01*
X165479815Y-98442539D01*
X165427011Y-98488294D01*
X165375500Y-98499500D01*
X165176265Y-98499500D01*
X165109226Y-98479815D01*
X165063471Y-98427011D01*
X165061438Y-98414990D01*
X164211059Y-97564612D01*
X164231591Y-97559111D01*
X164368408Y-97480119D01*
X164480119Y-97368408D01*
X164559111Y-97231591D01*
X164564612Y-97211059D01*
X165414819Y-98061266D01*
G37*
%TD.AperFunction*%
%TA.AperFunction,Conductor*%
G36*
X130033039Y-61020185D02*
G01*
X130078794Y-61072989D01*
X130090000Y-61124500D01*
X130090000Y-65240416D01*
X130070315Y-65307455D01*
X130017511Y-65353210D01*
X129948353Y-65363154D01*
X129884797Y-65334129D01*
X129866734Y-65314727D01*
X129857547Y-65302455D01*
X129857544Y-65302452D01*
X129742335Y-65216206D01*
X129742328Y-65216202D01*
X129607486Y-65165910D01*
X129607485Y-65165909D01*
X129607483Y-65165909D01*
X129547873Y-65159500D01*
X129547863Y-65159500D01*
X128852129Y-65159500D01*
X128852123Y-65159501D01*
X128792516Y-65165908D01*
X128657671Y-65216202D01*
X128657669Y-65216203D01*
X128574311Y-65278606D01*
X128508847Y-65303023D01*
X128440574Y-65288172D01*
X128425689Y-65278606D01*
X128342330Y-65216203D01*
X128342328Y-65216202D01*
X128207486Y-65165910D01*
X128207485Y-65165909D01*
X128207483Y-65165909D01*
X128147873Y-65159500D01*
X128147863Y-65159500D01*
X127452129Y-65159500D01*
X127452123Y-65159501D01*
X127392516Y-65165908D01*
X127257671Y-65216202D01*
X127257664Y-65216206D01*
X127142455Y-65302452D01*
X127142452Y-65302455D01*
X127056206Y-65417664D01*
X127056202Y-65417671D01*
X127005908Y-65552517D01*
X126999501Y-65612116D01*
X126999500Y-65612135D01*
X126999500Y-66507870D01*
X126999501Y-66507876D01*
X127005908Y-66567483D01*
X127056202Y-66702328D01*
X127056206Y-66702335D01*
X127142452Y-66817544D01*
X127142455Y-66817547D01*
X127257664Y-66903793D01*
X127257669Y-66903796D01*
X127307178Y-66922261D01*
X127351526Y-66950762D01*
X127438349Y-67037585D01*
X127438355Y-67037590D01*
X127669298Y-67268533D01*
X127702783Y-67329856D01*
X127704837Y-67342330D01*
X127715411Y-67436174D01*
X127712388Y-67436514D01*
X127708828Y-67492868D01*
X127667423Y-67549147D01*
X127602163Y-67574106D01*
X127592292Y-67574500D01*
X127402130Y-67574500D01*
X127402123Y-67574501D01*
X127342516Y-67580908D01*
X127207671Y-67631202D01*
X127207664Y-67631206D01*
X127092455Y-67717452D01*
X127092452Y-67717455D01*
X127006206Y-67832664D01*
X127006202Y-67832671D01*
X126955908Y-67967517D01*
X126950843Y-68014632D01*
X126949501Y-68027123D01*
X126949500Y-68027135D01*
X126949500Y-68375873D01*
X126929815Y-68442912D01*
X126899812Y-68475139D01*
X126842814Y-68517807D01*
X126842808Y-68517814D01*
X126756649Y-68632906D01*
X126756645Y-68632913D01*
X126706403Y-68767620D01*
X126706401Y-68767627D01*
X126700000Y-68827155D01*
X126700000Y-68875000D01*
X126701373Y-68875000D01*
X126768412Y-68894685D01*
X126814167Y-68947489D01*
X126824111Y-69016647D01*
X126800639Y-69073312D01*
X126756204Y-69132668D01*
X126756203Y-69132669D01*
X126714398Y-69244755D01*
X126700000Y-69267158D01*
X126700000Y-69315826D01*
X126699572Y-69323797D01*
X126699678Y-69323803D01*
X126699500Y-69327128D01*
X126699500Y-70322870D01*
X126699501Y-70322876D01*
X126705908Y-70382483D01*
X126756202Y-70517328D01*
X126756206Y-70517335D01*
X126842452Y-70632544D01*
X126842455Y-70632547D01*
X126957664Y-70718793D01*
X126957671Y-70718797D01*
X127067654Y-70759818D01*
X127123588Y-70801689D01*
X127148005Y-70867153D01*
X127133154Y-70935426D01*
X127083748Y-70984832D01*
X127024321Y-71000000D01*
X126950000Y-71000000D01*
X126950000Y-71122841D01*
X126952746Y-71148373D01*
X126940342Y-71217133D01*
X126917139Y-71249311D01*
X126831286Y-71335164D01*
X126719481Y-71446968D01*
X126719479Y-71446971D01*
X126713814Y-71456784D01*
X126678347Y-71518215D01*
X126640423Y-71583901D01*
X126599499Y-71736629D01*
X126599499Y-71736631D01*
X126599499Y-71904732D01*
X126599500Y-71904745D01*
X126599500Y-72101622D01*
X126579815Y-72168661D01*
X126527011Y-72214416D01*
X126457853Y-72224360D01*
X126401189Y-72200889D01*
X126342089Y-72156647D01*
X126342086Y-72156645D01*
X126207379Y-72106403D01*
X126207372Y-72106401D01*
X126147844Y-72100000D01*
X126050000Y-72100000D01*
X126050000Y-73900000D01*
X126147828Y-73900000D01*
X126147844Y-73899999D01*
X126207372Y-73893598D01*
X126207379Y-73893596D01*
X126342086Y-73843354D01*
X126342089Y-73843352D01*
X126425271Y-73781082D01*
X126490735Y-73756664D01*
X126559008Y-73771515D01*
X126573887Y-73781077D01*
X126657076Y-73843352D01*
X126657668Y-73843795D01*
X126657671Y-73843797D01*
X126702618Y-73860561D01*
X126792517Y-73894091D01*
X126852127Y-73900500D01*
X127547872Y-73900499D01*
X127607483Y-73894091D01*
X127742331Y-73843796D01*
X127857546Y-73757546D01*
X127943796Y-73642331D01*
X127994091Y-73507483D01*
X128000500Y-73447873D01*
X128000500Y-73447844D01*
X128250000Y-73447844D01*
X128256401Y-73507372D01*
X128256403Y-73507379D01*
X128306645Y-73642086D01*
X128306649Y-73642093D01*
X128392809Y-73757187D01*
X128392812Y-73757190D01*
X128507906Y-73843350D01*
X128507913Y-73843354D01*
X128642620Y-73893596D01*
X128642627Y-73893598D01*
X128702155Y-73899999D01*
X128702172Y-73900000D01*
X128800000Y-73900000D01*
X128800000Y-73250000D01*
X128250000Y-73250000D01*
X128250000Y-73447844D01*
X128000500Y-73447844D01*
X128000499Y-72552128D01*
X127994091Y-72492517D01*
X127947587Y-72367833D01*
X127942603Y-72298141D01*
X127976088Y-72236818D01*
X128037411Y-72203334D01*
X128063769Y-72200500D01*
X128186764Y-72200500D01*
X128253803Y-72220185D01*
X128299558Y-72272989D01*
X128309502Y-72342147D01*
X128302946Y-72367833D01*
X128256403Y-72492620D01*
X128256401Y-72492627D01*
X128250000Y-72552155D01*
X128250000Y-72750000D01*
X128926000Y-72750000D01*
X128993039Y-72769685D01*
X129038794Y-72822489D01*
X129050000Y-72874000D01*
X129050000Y-73000000D01*
X129176000Y-73000000D01*
X129243039Y-73019685D01*
X129288794Y-73072489D01*
X129300000Y-73124000D01*
X129300000Y-73900000D01*
X129397828Y-73900000D01*
X129397844Y-73899999D01*
X129457372Y-73893598D01*
X129457379Y-73893596D01*
X129592086Y-73843354D01*
X129592089Y-73843352D01*
X129675271Y-73781082D01*
X129740735Y-73756664D01*
X129809008Y-73771515D01*
X129823887Y-73781077D01*
X129907076Y-73843352D01*
X129907668Y-73843795D01*
X129907671Y-73843797D01*
X129952618Y-73860561D01*
X130042517Y-73894091D01*
X130102127Y-73900500D01*
X130797872Y-73900499D01*
X130857483Y-73894091D01*
X130992331Y-73843796D01*
X131107546Y-73757546D01*
X131187914Y-73650188D01*
X131243847Y-73608318D01*
X131287180Y-73600500D01*
X131413331Y-73600500D01*
X131413347Y-73600501D01*
X131420943Y-73600501D01*
X131579054Y-73600501D01*
X131579057Y-73600501D01*
X131731785Y-73559577D01*
X131781904Y-73530639D01*
X131868716Y-73480520D01*
X131980520Y-73368716D01*
X131980521Y-73368713D01*
X132230519Y-73118716D01*
X132230518Y-73118716D01*
X132348119Y-73001116D01*
X132409442Y-72967632D01*
X132467891Y-72969022D01*
X132532023Y-72986207D01*
X132719787Y-73002633D01*
X132749998Y-73005277D01*
X132750000Y-73005277D01*
X132750002Y-73005277D01*
X132819702Y-72999179D01*
X132967977Y-72986207D01*
X133032107Y-72969023D01*
X133101956Y-72970686D01*
X133151881Y-73001117D01*
X134053181Y-73902417D01*
X134086666Y-73963740D01*
X134089500Y-73990097D01*
X134089500Y-74147869D01*
X134089501Y-74147876D01*
X134095908Y-74207483D01*
X134149303Y-74350641D01*
X134147575Y-74351285D01*
X134160095Y-74408853D01*
X134148310Y-74448988D01*
X134149303Y-74449359D01*
X134095908Y-74592517D01*
X134089501Y-74652116D01*
X134089501Y-74652123D01*
X134089500Y-74652135D01*
X134089500Y-74759902D01*
X134069815Y-74826941D01*
X134053181Y-74847583D01*
X133151881Y-75748882D01*
X133090558Y-75782367D01*
X133032108Y-75780976D01*
X132967984Y-75763795D01*
X132967986Y-75763795D01*
X132967977Y-75763793D01*
X132967973Y-75763792D01*
X132967970Y-75763792D01*
X132750002Y-75744723D01*
X132749998Y-75744723D01*
X132604682Y-75757436D01*
X132532023Y-75763793D01*
X132532020Y-75763793D01*
X132320677Y-75820422D01*
X132320663Y-75820427D01*
X132296374Y-75831754D01*
X132227297Y-75842246D01*
X132163513Y-75813726D01*
X132156289Y-75807053D01*
X132118717Y-75769481D01*
X132118709Y-75769475D01*
X131997509Y-75699501D01*
X131997506Y-75699500D01*
X131981785Y-75690423D01*
X131829057Y-75649499D01*
X131670943Y-75649499D01*
X131663347Y-75649499D01*
X131663331Y-75649500D01*
X131287180Y-75649500D01*
X131220141Y-75629815D01*
X131187913Y-75599811D01*
X131107546Y-75492454D01*
X131076106Y-75468918D01*
X130992335Y-75406206D01*
X130992328Y-75406202D01*
X130857486Y-75355910D01*
X130857485Y-75355909D01*
X130857483Y-75355909D01*
X130797873Y-75349500D01*
X130797863Y-75349500D01*
X130102129Y-75349500D01*
X130102123Y-75349501D01*
X130042516Y-75355908D01*
X129907671Y-75406202D01*
X129907669Y-75406204D01*
X129823894Y-75468918D01*
X129758430Y-75493335D01*
X129690157Y-75478484D01*
X129675272Y-75468918D01*
X129592088Y-75406646D01*
X129592086Y-75406645D01*
X129457379Y-75356403D01*
X129457372Y-75356401D01*
X129397844Y-75350000D01*
X129300000Y-75350000D01*
X129300000Y-77150000D01*
X129397828Y-77150000D01*
X129397844Y-77149999D01*
X129457372Y-77143598D01*
X129457379Y-77143596D01*
X129592086Y-77093354D01*
X129592089Y-77093352D01*
X129675271Y-77031082D01*
X129740735Y-77006664D01*
X129809008Y-77021515D01*
X129823887Y-77031077D01*
X129907076Y-77093352D01*
X129907668Y-77093795D01*
X129907671Y-77093797D01*
X129952618Y-77110561D01*
X130042517Y-77144091D01*
X130102127Y-77150500D01*
X130797872Y-77150499D01*
X130857483Y-77144091D01*
X130992331Y-77093796D01*
X131107546Y-77007546D01*
X131187914Y-76900188D01*
X131243847Y-76858318D01*
X131287180Y-76850500D01*
X131372480Y-76850500D01*
X131439519Y-76870185D01*
X131485274Y-76922989D01*
X131496008Y-76985305D01*
X131494723Y-76999995D01*
X131494723Y-77000002D01*
X131513793Y-77217975D01*
X131513793Y-77217979D01*
X131570422Y-77429322D01*
X131570424Y-77429326D01*
X131570425Y-77429330D01*
X131580446Y-77450820D01*
X131662897Y-77627638D01*
X131662898Y-77627639D01*
X131788402Y-77806877D01*
X131943123Y-77961598D01*
X132122361Y-78087102D01*
X132320670Y-78179575D01*
X132381772Y-78195947D01*
X132441432Y-78232311D01*
X132471962Y-78295158D01*
X132463668Y-78364534D01*
X132437360Y-78403403D01*
X131677584Y-79163181D01*
X131616261Y-79196666D01*
X131589903Y-79199500D01*
X131170655Y-79199500D01*
X131103616Y-79179815D01*
X131069080Y-79146623D01*
X130961599Y-78993124D01*
X130912910Y-78944435D01*
X130806877Y-78838402D01*
X130627639Y-78712898D01*
X130627640Y-78712898D01*
X130627638Y-78712897D01*
X130488190Y-78647872D01*
X130429330Y-78620425D01*
X130429326Y-78620424D01*
X130429322Y-78620422D01*
X130217977Y-78563793D01*
X130000002Y-78544723D01*
X129999998Y-78544723D01*
X129854682Y-78557436D01*
X129782023Y-78563793D01*
X129782020Y-78563793D01*
X129570677Y-78620422D01*
X129570668Y-78620426D01*
X129372361Y-78712898D01*
X129372357Y-78712900D01*
X129193121Y-78838402D01*
X129038402Y-78993121D01*
X128912900Y-79172357D01*
X128912898Y-79172361D01*
X128820426Y-79370668D01*
X128820422Y-79370677D01*
X128763793Y-79582020D01*
X128763793Y-79582024D01*
X128744723Y-79799997D01*
X128744723Y-79800002D01*
X128763793Y-80017975D01*
X128763793Y-80017979D01*
X128820422Y-80229322D01*
X128820424Y-80229326D01*
X128820425Y-80229330D01*
X128844297Y-80280524D01*
X128912897Y-80427638D01*
X128912898Y-80427639D01*
X129038402Y-80606877D01*
X129193123Y-80761598D01*
X129372361Y-80887102D01*
X129570670Y-80979575D01*
X129782023Y-81036207D01*
X129964926Y-81052208D01*
X129999998Y-81055277D01*
X130000000Y-81055277D01*
X130000002Y-81055277D01*
X130028254Y-81052805D01*
X130217977Y-81036207D01*
X130429330Y-80979575D01*
X130627639Y-80887102D01*
X130806877Y-80761598D01*
X130961598Y-80606877D01*
X131069081Y-80453374D01*
X131123657Y-80409751D01*
X131170655Y-80400500D01*
X131803331Y-80400500D01*
X131803347Y-80400501D01*
X131810943Y-80400501D01*
X131969054Y-80400501D01*
X131969057Y-80400501D01*
X132121785Y-80359577D01*
X132208387Y-80309577D01*
X132258716Y-80280520D01*
X132370520Y-80168716D01*
X132370520Y-80168714D01*
X132380724Y-80158511D01*
X132380727Y-80158506D01*
X132746649Y-79792585D01*
X132807969Y-79759102D01*
X132877661Y-79764086D01*
X132933594Y-79805958D01*
X132957547Y-79866383D01*
X132964631Y-79929251D01*
X132964631Y-79929254D01*
X133024211Y-80099523D01*
X133092047Y-80207482D01*
X133120184Y-80252262D01*
X133247738Y-80379816D01*
X133400478Y-80475789D01*
X133450622Y-80493335D01*
X133570745Y-80535368D01*
X133570750Y-80535369D01*
X133749996Y-80555565D01*
X133750000Y-80555565D01*
X133750004Y-80555565D01*
X133929249Y-80535369D01*
X133929251Y-80535368D01*
X133929255Y-80535368D01*
X133929258Y-80535366D01*
X133929262Y-80535366D01*
X134050873Y-80492812D01*
X134099522Y-80475789D01*
X134112932Y-80467362D01*
X134180167Y-80448361D01*
X134247003Y-80468727D01*
X134253216Y-80473089D01*
X134347664Y-80543793D01*
X134347671Y-80543797D01*
X134482517Y-80594091D01*
X134482516Y-80594091D01*
X134489444Y-80594835D01*
X134542127Y-80600500D01*
X136137872Y-80600499D01*
X136197483Y-80594091D01*
X136332331Y-80543796D01*
X136447546Y-80457546D01*
X136533796Y-80342331D01*
X136584091Y-80207483D01*
X136590500Y-80147873D01*
X136590499Y-79152128D01*
X136590498Y-79152126D01*
X136590498Y-79152112D01*
X136589432Y-79142197D01*
X136601837Y-79073437D01*
X136649447Y-79022300D01*
X136717146Y-79005020D01*
X136753676Y-79011900D01*
X136820737Y-79035366D01*
X136820743Y-79035367D01*
X136820745Y-79035368D01*
X136820746Y-79035368D01*
X136820750Y-79035369D01*
X136999996Y-79055565D01*
X137000000Y-79055565D01*
X137000004Y-79055565D01*
X137179249Y-79035369D01*
X137179252Y-79035368D01*
X137179255Y-79035368D01*
X137349522Y-78975789D01*
X137502262Y-78879816D01*
X137629816Y-78752262D01*
X137725789Y-78599522D01*
X137785368Y-78429255D01*
X137788281Y-78403403D01*
X137805565Y-78250003D01*
X137805565Y-78249996D01*
X137785369Y-78070750D01*
X137785368Y-78070745D01*
X137760788Y-78000499D01*
X137725789Y-77900478D01*
X137725335Y-77899756D01*
X137666978Y-77806881D01*
X137629816Y-77747738D01*
X137502262Y-77620184D01*
X137349521Y-77524210D01*
X137256160Y-77491542D01*
X137199383Y-77450820D01*
X137173636Y-77385867D01*
X137187092Y-77317306D01*
X137235479Y-77266903D01*
X137297114Y-77250500D01*
X139067059Y-77250500D01*
X139134098Y-77270185D01*
X139154740Y-77286818D01*
X139247738Y-77379816D01*
X139400478Y-77475789D01*
X139538857Y-77524210D01*
X139570745Y-77535368D01*
X139570750Y-77535369D01*
X139749996Y-77555565D01*
X139750000Y-77555565D01*
X139750004Y-77555565D01*
X139929249Y-77535369D01*
X139929252Y-77535368D01*
X139929255Y-77535368D01*
X140099522Y-77475789D01*
X140252262Y-77379816D01*
X140287319Y-77344759D01*
X140348642Y-77311274D01*
X140418334Y-77316258D01*
X140462681Y-77344759D01*
X140497738Y-77379816D01*
X140515797Y-77391163D01*
X140632721Y-77464632D01*
X140650478Y-77475789D01*
X140788857Y-77524210D01*
X140820745Y-77535368D01*
X140820750Y-77535369D01*
X140999996Y-77555565D01*
X141000000Y-77555565D01*
X141000004Y-77555565D01*
X141179249Y-77535369D01*
X141179252Y-77535368D01*
X141179255Y-77535368D01*
X141349522Y-77475789D01*
X141502262Y-77379816D01*
X141629816Y-77252262D01*
X141725789Y-77099522D01*
X141785368Y-76929255D01*
X141788643Y-76900189D01*
X141805565Y-76750003D01*
X141805565Y-76749996D01*
X141785369Y-76570750D01*
X141785368Y-76570745D01*
X141760613Y-76500000D01*
X141725789Y-76400478D01*
X141707059Y-76370670D01*
X141655816Y-76289117D01*
X141629816Y-76247738D01*
X141502262Y-76120184D01*
X141426506Y-76072583D01*
X141349521Y-76024210D01*
X141201849Y-75972538D01*
X141179255Y-75964632D01*
X141179254Y-75964631D01*
X141179249Y-75964630D01*
X141092330Y-75954837D01*
X141027916Y-75927770D01*
X141018533Y-75919298D01*
X137451370Y-72352135D01*
X143099500Y-72352135D01*
X143099500Y-75347870D01*
X143099501Y-75347876D01*
X143105908Y-75407483D01*
X143156202Y-75542328D01*
X143156206Y-75542335D01*
X143242452Y-75657544D01*
X143242455Y-75657547D01*
X143357664Y-75743793D01*
X143357671Y-75743797D01*
X143492517Y-75794091D01*
X143492516Y-75794091D01*
X143499444Y-75794835D01*
X143552127Y-75800500D01*
X146547872Y-75800499D01*
X146607483Y-75794091D01*
X146742331Y-75743796D01*
X146857546Y-75657546D01*
X146943796Y-75542331D01*
X146994091Y-75407483D01*
X147000500Y-75347873D01*
X147000499Y-72352128D01*
X146994091Y-72292517D01*
X146975552Y-72242812D01*
X146943797Y-72157671D01*
X146943793Y-72157664D01*
X146857547Y-72042455D01*
X146857544Y-72042452D01*
X146742335Y-71956206D01*
X146742328Y-71956202D01*
X146607482Y-71905908D01*
X146607483Y-71905908D01*
X146547883Y-71899501D01*
X146547881Y-71899500D01*
X146547873Y-71899500D01*
X146547865Y-71899500D01*
X145924500Y-71899500D01*
X145857461Y-71879815D01*
X145811706Y-71827011D01*
X145800500Y-71775500D01*
X145800500Y-68651914D01*
X145801280Y-68638029D01*
X145801857Y-68632913D01*
X145805565Y-68600000D01*
X145803210Y-68579101D01*
X145785369Y-68420750D01*
X145785368Y-68420745D01*
X145760838Y-68350643D01*
X145725789Y-68250478D01*
X145698773Y-68207483D01*
X145658472Y-68143344D01*
X145629816Y-68097738D01*
X145502262Y-67970184D01*
X145349523Y-67874211D01*
X145179254Y-67814631D01*
X145179249Y-67814630D01*
X145000004Y-67794435D01*
X144999996Y-67794435D01*
X144820750Y-67814630D01*
X144820745Y-67814631D01*
X144650476Y-67874211D01*
X144497737Y-67970184D01*
X144370184Y-68097737D01*
X144274211Y-68250476D01*
X144214631Y-68420745D01*
X144214630Y-68420750D01*
X144194435Y-68599996D01*
X144194435Y-68600003D01*
X144214630Y-68779249D01*
X144214631Y-68779254D01*
X144274212Y-68949525D01*
X144280492Y-68959519D01*
X144299500Y-69025493D01*
X144299500Y-71775500D01*
X144279815Y-71842539D01*
X144227011Y-71888294D01*
X144175500Y-71899500D01*
X143552129Y-71899500D01*
X143552123Y-71899501D01*
X143492516Y-71905908D01*
X143357671Y-71956202D01*
X143357664Y-71956206D01*
X143242455Y-72042452D01*
X143242452Y-72042455D01*
X143156206Y-72157664D01*
X143156202Y-72157671D01*
X143105908Y-72292517D01*
X143100573Y-72342147D01*
X143099501Y-72352123D01*
X143099500Y-72352135D01*
X137451370Y-72352135D01*
X137136819Y-72037584D01*
X137103334Y-71976261D01*
X137100500Y-71949903D01*
X137100500Y-70099060D01*
X137100501Y-70099047D01*
X137100501Y-69930944D01*
X137094582Y-69908853D01*
X137059577Y-69778216D01*
X136997205Y-69670183D01*
X136980524Y-69641290D01*
X136980518Y-69641282D01*
X136626818Y-69287582D01*
X136593333Y-69226259D01*
X136590499Y-69199901D01*
X136590499Y-68652129D01*
X136590498Y-68652123D01*
X136590497Y-68652116D01*
X136584091Y-68592517D01*
X136579089Y-68579105D01*
X136530697Y-68449359D01*
X136532266Y-68448773D01*
X136519616Y-68390630D01*
X136531314Y-68350793D01*
X136530253Y-68350398D01*
X136583597Y-68207376D01*
X136583598Y-68207372D01*
X136589999Y-68147844D01*
X136590000Y-68147827D01*
X136590000Y-67900000D01*
X134090000Y-67900000D01*
X134090000Y-68076305D01*
X134070315Y-68143344D01*
X134017511Y-68189099D01*
X133948353Y-68199043D01*
X133931409Y-68195382D01*
X133921000Y-68192358D01*
X133920991Y-68192356D01*
X133884697Y-68189500D01*
X133884690Y-68189500D01*
X133475310Y-68189500D01*
X133475302Y-68189500D01*
X133439008Y-68192356D01*
X133439002Y-68192357D01*
X133283608Y-68237504D01*
X133283602Y-68237506D01*
X133263120Y-68249620D01*
X133195396Y-68266801D01*
X133136880Y-68249620D01*
X133116397Y-68237506D01*
X133116391Y-68237504D01*
X132960997Y-68192357D01*
X132960991Y-68192356D01*
X132924697Y-68189500D01*
X132924690Y-68189500D01*
X132568727Y-68189500D01*
X132502755Y-68170494D01*
X132466749Y-68147870D01*
X132418012Y-68117246D01*
X132349523Y-68074211D01*
X132179254Y-68014631D01*
X132179249Y-68014630D01*
X132000004Y-67994435D01*
X131999996Y-67994435D01*
X131820750Y-68014630D01*
X131820745Y-68014631D01*
X131650476Y-68074211D01*
X131497737Y-68170184D01*
X131370184Y-68297737D01*
X131336847Y-68350793D01*
X131295577Y-68416473D01*
X131243244Y-68462763D01*
X131190585Y-68474500D01*
X130174499Y-68474500D01*
X130107460Y-68454815D01*
X130061705Y-68402011D01*
X130050499Y-68350500D01*
X130050499Y-68027129D01*
X130050498Y-68027123D01*
X130050497Y-68027116D01*
X130044091Y-67967517D01*
X129993796Y-67832669D01*
X129934570Y-67753553D01*
X129925233Y-67741080D01*
X129900816Y-67675615D01*
X129900500Y-67666769D01*
X129900500Y-66801438D01*
X129920185Y-66734399D01*
X129925234Y-66727126D01*
X129943796Y-66702331D01*
X129970525Y-66630667D01*
X130012396Y-66574734D01*
X130077860Y-66550316D01*
X130086707Y-66550000D01*
X134251399Y-66550000D01*
X134318438Y-66569685D01*
X134364193Y-66622489D01*
X134374137Y-66691647D01*
X134345112Y-66755203D01*
X134325710Y-66773266D01*
X134232812Y-66842809D01*
X134232809Y-66842812D01*
X134146649Y-66957906D01*
X134146645Y-66957913D01*
X134096403Y-67092620D01*
X134096401Y-67092627D01*
X134090000Y-67152155D01*
X134090000Y-67400000D01*
X136590000Y-67400000D01*
X136590000Y-67152172D01*
X136589999Y-67152155D01*
X136583598Y-67092627D01*
X136583596Y-67092620D01*
X136533354Y-66957913D01*
X136533350Y-66957906D01*
X136447190Y-66842812D01*
X136447187Y-66842809D01*
X136354290Y-66773266D01*
X136312419Y-66717332D01*
X136307435Y-66647641D01*
X136340921Y-66586318D01*
X136402244Y-66552834D01*
X136428601Y-66550000D01*
X151750565Y-66550000D01*
X151817604Y-66569685D01*
X151863359Y-66622489D01*
X151873303Y-66691647D01*
X151844278Y-66755203D01*
X151824876Y-66773266D01*
X151732455Y-66842452D01*
X151732452Y-66842455D01*
X151646206Y-66957664D01*
X151646202Y-66957671D01*
X151595908Y-67092517D01*
X151589501Y-67152116D01*
X151589500Y-67152135D01*
X151589500Y-68147870D01*
X151589501Y-68147876D01*
X151595908Y-68207483D01*
X151649303Y-68350641D01*
X151647575Y-68351285D01*
X151660095Y-68408853D01*
X151648310Y-68448988D01*
X151649303Y-68449359D01*
X151595908Y-68592517D01*
X151590271Y-68644953D01*
X151589501Y-68652123D01*
X151589500Y-68652135D01*
X151589500Y-69647870D01*
X151589501Y-69647876D01*
X151595908Y-69707483D01*
X151649303Y-69850641D01*
X151647575Y-69851285D01*
X151660095Y-69908853D01*
X151648310Y-69948988D01*
X151649303Y-69949359D01*
X151595908Y-70092517D01*
X151589501Y-70152116D01*
X151589500Y-70152135D01*
X151589500Y-71147870D01*
X151589501Y-71147876D01*
X151595908Y-71207483D01*
X151649303Y-71350641D01*
X151647575Y-71351285D01*
X151660095Y-71408853D01*
X151648310Y-71448988D01*
X151649303Y-71449359D01*
X151595908Y-71592517D01*
X151589501Y-71652116D01*
X151589500Y-71652135D01*
X151589500Y-72647870D01*
X151589501Y-72647879D01*
X151594107Y-72690727D01*
X151581700Y-72759486D01*
X151534088Y-72810622D01*
X151466388Y-72827900D01*
X151404844Y-72808972D01*
X151349524Y-72774211D01*
X151179254Y-72714631D01*
X151179249Y-72714630D01*
X151000004Y-72694435D01*
X150999996Y-72694435D01*
X150820750Y-72714630D01*
X150820745Y-72714631D01*
X150650476Y-72774211D01*
X150497737Y-72870184D01*
X150370184Y-72997737D01*
X150274211Y-73150476D01*
X150214631Y-73320745D01*
X150214630Y-73320750D01*
X150194435Y-73499996D01*
X150194435Y-73500003D01*
X150214630Y-73679249D01*
X150214631Y-73679254D01*
X150274211Y-73849523D01*
X150370184Y-74002262D01*
X150460254Y-74092332D01*
X150493739Y-74153655D01*
X150490061Y-74213686D01*
X150491242Y-74213956D01*
X150489692Y-74220746D01*
X150469496Y-74399996D01*
X150469496Y-74400003D01*
X150489691Y-74579249D01*
X150489692Y-74579254D01*
X150549272Y-74749523D01*
X150610888Y-74847583D01*
X150645245Y-74902262D01*
X150772799Y-75029816D01*
X150925539Y-75125789D01*
X151095806Y-75185368D01*
X151182730Y-75195161D01*
X151247141Y-75222226D01*
X151256526Y-75230700D01*
X151540200Y-75514374D01*
X151540221Y-75514397D01*
X151553181Y-75527357D01*
X151586666Y-75588680D01*
X151589500Y-75615035D01*
X151589500Y-75647867D01*
X151589501Y-75647877D01*
X151595908Y-75707483D01*
X151649303Y-75850641D01*
X151647575Y-75851285D01*
X151660095Y-75908853D01*
X151648310Y-75948988D01*
X151649303Y-75949359D01*
X151595908Y-76092517D01*
X151589501Y-76152116D01*
X151589500Y-76152135D01*
X151589500Y-76699902D01*
X151569815Y-76766941D01*
X151553181Y-76787583D01*
X146079481Y-82261282D01*
X146079480Y-82261284D01*
X146048196Y-82315470D01*
X146000423Y-82398215D01*
X145959499Y-82550943D01*
X145959499Y-82550945D01*
X145959499Y-82719046D01*
X145959500Y-82719059D01*
X145959500Y-91902940D01*
X145939815Y-91969979D01*
X145887011Y-92015734D01*
X145817853Y-92025678D01*
X145794546Y-92019982D01*
X145779257Y-92014632D01*
X145779249Y-92014630D01*
X145600004Y-91994435D01*
X145599996Y-91994435D01*
X145420750Y-92014630D01*
X145420745Y-92014631D01*
X145250476Y-92074211D01*
X145097737Y-92170184D01*
X144970184Y-92297737D01*
X144874212Y-92450475D01*
X144871191Y-92456750D01*
X144869366Y-92455871D01*
X144846695Y-92491935D01*
X144707047Y-92631584D01*
X144699300Y-92643180D01*
X144699299Y-92643182D01*
X144624913Y-92754508D01*
X144568343Y-92891082D01*
X144568340Y-92891092D01*
X144539500Y-93036079D01*
X144539500Y-95445396D01*
X144519815Y-95512435D01*
X144467011Y-95558190D01*
X144397853Y-95568134D01*
X144379505Y-95564057D01*
X144270000Y-95530839D01*
X144270000Y-96290382D01*
X144219554Y-96239936D01*
X144145445Y-96197149D01*
X144062787Y-96175000D01*
X143977213Y-96175000D01*
X143894555Y-96197149D01*
X143820446Y-96239936D01*
X143770000Y-96290382D01*
X143770000Y-95530839D01*
X143769999Y-95530839D01*
X143635464Y-95571650D01*
X143633586Y-95572655D01*
X143632486Y-95572883D01*
X143629838Y-95573981D01*
X143629629Y-95573478D01*
X143565183Y-95586895D01*
X143500824Y-95562561D01*
X143492335Y-95556206D01*
X143492328Y-95556202D01*
X143357482Y-95505908D01*
X143357483Y-95505908D01*
X143297883Y-95499501D01*
X143297881Y-95499500D01*
X143297873Y-95499500D01*
X143297865Y-95499500D01*
X140065624Y-95499500D01*
X139998585Y-95479815D01*
X139964048Y-95446622D01*
X139961598Y-95443123D01*
X139884412Y-95365937D01*
X139806877Y-95288402D01*
X139627639Y-95162898D01*
X139627640Y-95162898D01*
X139627638Y-95162897D01*
X139528484Y-95116661D01*
X139429330Y-95070425D01*
X139429326Y-95070424D01*
X139429322Y-95070422D01*
X139217977Y-95013793D01*
X139000002Y-94994723D01*
X138999996Y-94994723D01*
X138851197Y-95007740D01*
X138782697Y-94993973D01*
X138771502Y-94987315D01*
X138757884Y-94978216D01*
X138757883Y-94978216D01*
X138730495Y-94959916D01*
X138730492Y-94959914D01*
X138730491Y-94959914D01*
X138593917Y-94903343D01*
X138593907Y-94903340D01*
X138448920Y-94874500D01*
X138448918Y-94874500D01*
X135474500Y-94874500D01*
X135407461Y-94854815D01*
X135361706Y-94802011D01*
X135350500Y-94750500D01*
X135350500Y-94124499D01*
X135370185Y-94057460D01*
X135422989Y-94011705D01*
X135474500Y-94000499D01*
X136417871Y-94000499D01*
X136417872Y-94000499D01*
X136477483Y-93994091D01*
X136612331Y-93943796D01*
X136727546Y-93857546D01*
X136813796Y-93742331D01*
X136864091Y-93607483D01*
X136870500Y-93547873D01*
X136870500Y-93447844D01*
X138000000Y-93447844D01*
X138006401Y-93507372D01*
X138006403Y-93507379D01*
X138056645Y-93642086D01*
X138056649Y-93642093D01*
X138142809Y-93757187D01*
X138142812Y-93757190D01*
X138257906Y-93843350D01*
X138257913Y-93843354D01*
X138392620Y-93893596D01*
X138392627Y-93893598D01*
X138452155Y-93899999D01*
X138452172Y-93900000D01*
X138550000Y-93900000D01*
X138550000Y-93250000D01*
X138000000Y-93250000D01*
X138000000Y-93447844D01*
X136870500Y-93447844D01*
X136870499Y-92552155D01*
X138000000Y-92552155D01*
X138000000Y-92750000D01*
X138550000Y-92750000D01*
X138550000Y-92100000D01*
X138452155Y-92100000D01*
X138392627Y-92106401D01*
X138392620Y-92106403D01*
X138257913Y-92156645D01*
X138257906Y-92156649D01*
X138142812Y-92242809D01*
X138142809Y-92242812D01*
X138056649Y-92357906D01*
X138056645Y-92357913D01*
X138006403Y-92492620D01*
X138006401Y-92492627D01*
X138000000Y-92552155D01*
X136870499Y-92552155D01*
X136870499Y-92452128D01*
X136864091Y-92392517D01*
X136851094Y-92357671D01*
X136813797Y-92257671D01*
X136813793Y-92257664D01*
X136727547Y-92142455D01*
X136727544Y-92142452D01*
X136612335Y-92056206D01*
X136612328Y-92056202D01*
X136477482Y-92005908D01*
X136477483Y-92005908D01*
X136417883Y-91999501D01*
X136417881Y-91999500D01*
X136417873Y-91999500D01*
X136417864Y-91999500D01*
X135322129Y-91999500D01*
X135322123Y-91999501D01*
X135262516Y-92005908D01*
X135127671Y-92056202D01*
X135127666Y-92056205D01*
X135119614Y-92062233D01*
X135054149Y-92086648D01*
X134990530Y-92073104D01*
X134990359Y-92073518D01*
X134988123Y-92072592D01*
X134986850Y-92072321D01*
X134984729Y-92071187D01*
X134984728Y-92071186D01*
X134984727Y-92071186D01*
X134815931Y-92019982D01*
X134796129Y-92013975D01*
X134600000Y-91994659D01*
X134403870Y-92013975D01*
X134215266Y-92071188D01*
X134041467Y-92164086D01*
X134036399Y-92167473D01*
X134035305Y-92165836D01*
X133979337Y-92189596D01*
X133910471Y-92177795D01*
X133893843Y-92167109D01*
X133893601Y-92167473D01*
X133888532Y-92164086D01*
X133714733Y-92071188D01*
X133714727Y-92071186D01*
X133545931Y-92019982D01*
X133526129Y-92013975D01*
X133330000Y-91994659D01*
X133133870Y-92013975D01*
X132945266Y-92071188D01*
X132771467Y-92164086D01*
X132771460Y-92164090D01*
X132619116Y-92289116D01*
X132494090Y-92441460D01*
X132494086Y-92441467D01*
X132401188Y-92615266D01*
X132343975Y-92803870D01*
X132324659Y-93000000D01*
X132343975Y-93196129D01*
X132401188Y-93384733D01*
X132494086Y-93558532D01*
X132494090Y-93558539D01*
X132619116Y-93710883D01*
X132771460Y-93835909D01*
X132771467Y-93835913D01*
X132945266Y-93928811D01*
X132945269Y-93928811D01*
X132945273Y-93928814D01*
X133133868Y-93986024D01*
X133330000Y-94005341D01*
X133526132Y-93986024D01*
X133589504Y-93966799D01*
X133659370Y-93966175D01*
X133718484Y-94003423D01*
X133748075Y-94066717D01*
X133749500Y-94085460D01*
X133749500Y-94375500D01*
X133729815Y-94442539D01*
X133677011Y-94488294D01*
X133625500Y-94499500D01*
X131574500Y-94499500D01*
X131507461Y-94479815D01*
X131461706Y-94427011D01*
X131450500Y-94375500D01*
X131450500Y-91762228D01*
X131470185Y-91695189D01*
X131486815Y-91674551D01*
X131774548Y-91386817D01*
X131835871Y-91353333D01*
X131862229Y-91350499D01*
X132701123Y-91350499D01*
X132701123Y-91350498D01*
X132743889Y-91347600D01*
X132928693Y-91301641D01*
X133099296Y-91217030D01*
X133247722Y-91097722D01*
X133367030Y-90949296D01*
X133451641Y-90778693D01*
X133497600Y-90593889D01*
X133500500Y-90551123D01*
X133500499Y-89648878D01*
X133497600Y-89606111D01*
X133451641Y-89421307D01*
X133401539Y-89320285D01*
X133370649Y-89258000D01*
X136800000Y-89258000D01*
X136810608Y-89377325D01*
X136810609Y-89377328D01*
X136866557Y-89572861D01*
X136960721Y-89753129D01*
X137089246Y-89910753D01*
X137246870Y-90039278D01*
X137427138Y-90133442D01*
X137622671Y-90189390D01*
X137622674Y-90189391D01*
X137741999Y-90199999D01*
X137742002Y-90200000D01*
X138050000Y-90200000D01*
X138050000Y-88050000D01*
X136800000Y-88050000D01*
X136800000Y-89258000D01*
X133370649Y-89258000D01*
X133367032Y-89250707D01*
X133367030Y-89250704D01*
X133247724Y-89102280D01*
X133247722Y-89102278D01*
X133178112Y-89046324D01*
X133138196Y-88988985D01*
X133135616Y-88919163D01*
X133171194Y-88859030D01*
X133178115Y-88853033D01*
X133247366Y-88797367D01*
X133247367Y-88797366D01*
X133366607Y-88649025D01*
X133366609Y-88649022D01*
X133451168Y-88478523D01*
X133497102Y-88293824D01*
X133500000Y-88251096D01*
X133500000Y-88050000D01*
X130500000Y-88050000D01*
X130500000Y-88251096D01*
X130502897Y-88293824D01*
X130548831Y-88478523D01*
X130633390Y-88649022D01*
X130633392Y-88649025D01*
X130752630Y-88797364D01*
X130821884Y-88853031D01*
X130861803Y-88910375D01*
X130864383Y-88980197D01*
X130828805Y-89040329D01*
X130821885Y-89046326D01*
X130752276Y-89102280D01*
X130632969Y-89250704D01*
X130632967Y-89250707D01*
X130548360Y-89421302D01*
X130502400Y-89606107D01*
X130499500Y-89648879D01*
X130499500Y-90487769D01*
X130479815Y-90554808D01*
X130463181Y-90575450D01*
X130117052Y-90921578D01*
X130117049Y-90921581D01*
X130067812Y-90995271D01*
X130034921Y-91044496D01*
X130034914Y-91044508D01*
X129978342Y-91181086D01*
X129978340Y-91181092D01*
X129949500Y-91326079D01*
X129949500Y-91326082D01*
X129949500Y-95176082D01*
X129949500Y-95323918D01*
X129949500Y-95323920D01*
X129949499Y-95323920D01*
X129978340Y-95468907D01*
X129978343Y-95468917D01*
X130034912Y-95605488D01*
X130034919Y-95605501D01*
X130117048Y-95728415D01*
X130120914Y-95733126D01*
X130118955Y-95734733D01*
X130147152Y-95786306D01*
X130150000Y-95812729D01*
X130150000Y-96476000D01*
X130130315Y-96543039D01*
X130077511Y-96588794D01*
X130026000Y-96600000D01*
X129900000Y-96600000D01*
X129900000Y-96726000D01*
X129880315Y-96793039D01*
X129827511Y-96838794D01*
X129776000Y-96850000D01*
X129100000Y-96850000D01*
X129100000Y-97047844D01*
X129106401Y-97107372D01*
X129106403Y-97107379D01*
X129156645Y-97242086D01*
X129156647Y-97242089D01*
X129200889Y-97301188D01*
X129225307Y-97366652D01*
X129210456Y-97434926D01*
X129161051Y-97484331D01*
X129101623Y-97499500D01*
X127837000Y-97499500D01*
X127769961Y-97479815D01*
X127724206Y-97427011D01*
X127714262Y-97357853D01*
X127716106Y-97347920D01*
X127735802Y-97261630D01*
X127735808Y-97261550D01*
X127755408Y-97000004D01*
X127755408Y-96999995D01*
X127735803Y-96738379D01*
X127735802Y-96738374D01*
X127735802Y-96738370D01*
X127677420Y-96482584D01*
X127581568Y-96238357D01*
X127531799Y-96152155D01*
X129100000Y-96152155D01*
X129100000Y-96350000D01*
X129650000Y-96350000D01*
X129650000Y-95700000D01*
X129552155Y-95700000D01*
X129492627Y-95706401D01*
X129492620Y-95706403D01*
X129357913Y-95756645D01*
X129357906Y-95756649D01*
X129242812Y-95842809D01*
X129242809Y-95842812D01*
X129156649Y-95957906D01*
X129156645Y-95957913D01*
X129106403Y-96092620D01*
X129106401Y-96092627D01*
X129100000Y-96152155D01*
X127531799Y-96152155D01*
X127450386Y-96011143D01*
X127286805Y-95806019D01*
X127286804Y-95806018D01*
X127286801Y-95806014D01*
X127094479Y-95627567D01*
X127034824Y-95586895D01*
X126877704Y-95479772D01*
X126877700Y-95479770D01*
X126877697Y-95479768D01*
X126877696Y-95479767D01*
X126641325Y-95365938D01*
X126641327Y-95365938D01*
X126390623Y-95288606D01*
X126390619Y-95288605D01*
X126390615Y-95288604D01*
X126265823Y-95269794D01*
X126131187Y-95249500D01*
X126131182Y-95249500D01*
X125868818Y-95249500D01*
X125868812Y-95249500D01*
X125707247Y-95273853D01*
X125609385Y-95288604D01*
X125609382Y-95288605D01*
X125609376Y-95288606D01*
X125358673Y-95365938D01*
X125122303Y-95479767D01*
X125122302Y-95479768D01*
X125122296Y-95479771D01*
X125122296Y-95479772D01*
X125121654Y-95480210D01*
X124905520Y-95627567D01*
X124709793Y-95809175D01*
X124708482Y-95807762D01*
X124655370Y-95839398D01*
X124585540Y-95837023D01*
X124528080Y-95797272D01*
X124501233Y-95732766D01*
X124500500Y-95719302D01*
X124500500Y-88199996D01*
X127214435Y-88199996D01*
X127214435Y-88200003D01*
X127234630Y-88379249D01*
X127234631Y-88379254D01*
X127262542Y-88459017D01*
X127269500Y-88499972D01*
X127269500Y-89617934D01*
X127264576Y-89652530D01*
X127242357Y-89729005D01*
X127242356Y-89729008D01*
X127239500Y-89765302D01*
X127239500Y-90234697D01*
X127242356Y-90270991D01*
X127242357Y-90270997D01*
X127287504Y-90426390D01*
X127287505Y-90426393D01*
X127287506Y-90426395D01*
X127292731Y-90435230D01*
X127369881Y-90565684D01*
X127369887Y-90565692D01*
X127484307Y-90680112D01*
X127484311Y-90680115D01*
X127484313Y-90680117D01*
X127623605Y-90762494D01*
X127664587Y-90774400D01*
X127779002Y-90807642D01*
X127779005Y-90807642D01*
X127779007Y-90807643D01*
X127815310Y-90810500D01*
X127815318Y-90810500D01*
X128224682Y-90810500D01*
X128224690Y-90810500D01*
X128260993Y-90807643D01*
X128260995Y-90807642D01*
X128260997Y-90807642D01*
X128301975Y-90795736D01*
X128416395Y-90762494D01*
X128437369Y-90750089D01*
X128505088Y-90732906D01*
X128563613Y-90750090D01*
X128583803Y-90762031D01*
X128730000Y-90804504D01*
X128730000Y-90804503D01*
X129230000Y-90804503D01*
X129376195Y-90762031D01*
X129515374Y-90679721D01*
X129515383Y-90679714D01*
X129629714Y-90565383D01*
X129629721Y-90565374D01*
X129712031Y-90426195D01*
X129712033Y-90426190D01*
X129757144Y-90270918D01*
X129757145Y-90270912D01*
X129758790Y-90250000D01*
X129230000Y-90250000D01*
X129230000Y-90804503D01*
X128730000Y-90804503D01*
X128730000Y-90498352D01*
X128747267Y-90435233D01*
X128752494Y-90426395D01*
X128754667Y-90418918D01*
X128797642Y-90270997D01*
X128797643Y-90270991D01*
X128800499Y-90234697D01*
X128800500Y-90234690D01*
X128800500Y-89765310D01*
X128797643Y-89729007D01*
X128775423Y-89652528D01*
X128770500Y-89617934D01*
X128770500Y-89195494D01*
X129230000Y-89195494D01*
X129230000Y-89750000D01*
X129758790Y-89750000D01*
X129757145Y-89729089D01*
X129712031Y-89573804D01*
X129629721Y-89434625D01*
X129629714Y-89434616D01*
X129515383Y-89320285D01*
X129515374Y-89320278D01*
X129376193Y-89237967D01*
X129376190Y-89237965D01*
X129230001Y-89195493D01*
X129230000Y-89195494D01*
X128770500Y-89195494D01*
X128770500Y-88499972D01*
X128777458Y-88459017D01*
X128787872Y-88429255D01*
X128805368Y-88379255D01*
X128819931Y-88250003D01*
X128825565Y-88200003D01*
X128825565Y-88199996D01*
X128805368Y-88020747D01*
X128805368Y-88020745D01*
X128777458Y-87940982D01*
X128770500Y-87900028D01*
X128770500Y-87550010D01*
X128790185Y-87482971D01*
X128842989Y-87437216D01*
X128912147Y-87427272D01*
X128953928Y-87441179D01*
X128957908Y-87443352D01*
X129092620Y-87493596D01*
X129092627Y-87493598D01*
X129152155Y-87499999D01*
X129152172Y-87500000D01*
X129250000Y-87500000D01*
X129750000Y-87500000D01*
X129847828Y-87500000D01*
X129847844Y-87499999D01*
X129907372Y-87493598D01*
X129907379Y-87493596D01*
X130042086Y-87443354D01*
X130042093Y-87443350D01*
X130157187Y-87357190D01*
X130157190Y-87357187D01*
X130243350Y-87242093D01*
X130243354Y-87242086D01*
X130293596Y-87107379D01*
X130293598Y-87107372D01*
X130299999Y-87047844D01*
X130300000Y-87047827D01*
X130300000Y-86850000D01*
X129750000Y-86850000D01*
X129750000Y-87500000D01*
X129250000Y-87500000D01*
X129250000Y-86724000D01*
X129269685Y-86656961D01*
X129322489Y-86611206D01*
X129374000Y-86600000D01*
X129500000Y-86600000D01*
X129500000Y-86474000D01*
X129519685Y-86406961D01*
X129572489Y-86361206D01*
X129624000Y-86350000D01*
X130300000Y-86350000D01*
X130310184Y-86339815D01*
X130319685Y-86307461D01*
X130372489Y-86261706D01*
X130424000Y-86250500D01*
X130507058Y-86250500D01*
X130574097Y-86270185D01*
X130618146Y-86319406D01*
X130632969Y-86349295D01*
X130752277Y-86497721D01*
X130752278Y-86497722D01*
X130821884Y-86553673D01*
X130861803Y-86611016D01*
X130864383Y-86680838D01*
X130828804Y-86740971D01*
X130821885Y-86746967D01*
X130752631Y-86802635D01*
X130633392Y-86950974D01*
X130633390Y-86950977D01*
X130548831Y-87121476D01*
X130502897Y-87306175D01*
X130500000Y-87348903D01*
X130500000Y-87550000D01*
X133500000Y-87550000D01*
X133500000Y-87348903D01*
X133497102Y-87306175D01*
X133451168Y-87121476D01*
X133366609Y-86950977D01*
X133366607Y-86950974D01*
X133247367Y-86802633D01*
X133247366Y-86802632D01*
X133178115Y-86746967D01*
X133138196Y-86689624D01*
X133135616Y-86619802D01*
X133171194Y-86559669D01*
X133178089Y-86553694D01*
X133247722Y-86497722D01*
X133367030Y-86349296D01*
X133370649Y-86341999D01*
X136800000Y-86341999D01*
X136800000Y-87550000D01*
X138050000Y-87550000D01*
X138050000Y-85400000D01*
X138550000Y-85400000D01*
X138550000Y-90200000D01*
X138857998Y-90200000D01*
X138858000Y-90199999D01*
X138977325Y-90189391D01*
X138977328Y-90189390D01*
X139172861Y-90133442D01*
X139353130Y-90039278D01*
X139397138Y-90003394D01*
X139461534Y-89976284D01*
X139530364Y-89988293D01*
X139581775Y-90035607D01*
X139599500Y-90099495D01*
X139599500Y-92101622D01*
X139579815Y-92168661D01*
X139527011Y-92214416D01*
X139457853Y-92224360D01*
X139401189Y-92200889D01*
X139342089Y-92156647D01*
X139342086Y-92156645D01*
X139207379Y-92106403D01*
X139207372Y-92106401D01*
X139147844Y-92100000D01*
X139050000Y-92100000D01*
X139050000Y-93900000D01*
X139147828Y-93900000D01*
X139147844Y-93899999D01*
X139207372Y-93893598D01*
X139207379Y-93893596D01*
X139342086Y-93843354D01*
X139342089Y-93843352D01*
X139425271Y-93781082D01*
X139490735Y-93756664D01*
X139559008Y-93771515D01*
X139573887Y-93781077D01*
X139657076Y-93843352D01*
X139657668Y-93843795D01*
X139657671Y-93843797D01*
X139694529Y-93857544D01*
X139792517Y-93894091D01*
X139852127Y-93900500D01*
X140547872Y-93900499D01*
X140607483Y-93894091D01*
X140742331Y-93843796D01*
X140857546Y-93757546D01*
X140943796Y-93642331D01*
X140994091Y-93507483D01*
X141000500Y-93447873D01*
X141000499Y-92552128D01*
X140994091Y-92492517D01*
X140979027Y-92452129D01*
X140943797Y-92357671D01*
X140943793Y-92357664D01*
X140857548Y-92242457D01*
X140857546Y-92242454D01*
X140857542Y-92242451D01*
X140857540Y-92242449D01*
X140850187Y-92236944D01*
X140808317Y-92181009D01*
X140800500Y-92137679D01*
X140800500Y-91074499D01*
X140820185Y-91007460D01*
X140872989Y-90961705D01*
X140924500Y-90950499D01*
X142797871Y-90950499D01*
X142797872Y-90950499D01*
X142857483Y-90944091D01*
X142992331Y-90893796D01*
X143107546Y-90807546D01*
X143193796Y-90692331D01*
X143244091Y-90557483D01*
X143250500Y-90497873D01*
X143250499Y-89002128D01*
X143244091Y-88942517D01*
X143212952Y-88859030D01*
X143193797Y-88807671D01*
X143193793Y-88807664D01*
X143107547Y-88692455D01*
X143107544Y-88692452D01*
X142992335Y-88606206D01*
X142992328Y-88606202D01*
X142857482Y-88555908D01*
X142857483Y-88555908D01*
X142797883Y-88549501D01*
X142797881Y-88549500D01*
X142797873Y-88549500D01*
X142797865Y-88549500D01*
X140924500Y-88549500D01*
X140857461Y-88529815D01*
X140811706Y-88477011D01*
X140800500Y-88425500D01*
X140800500Y-87050096D01*
X140820185Y-86983057D01*
X140836815Y-86962419D01*
X141312416Y-86486817D01*
X141373739Y-86453333D01*
X141400097Y-86450499D01*
X142797871Y-86450499D01*
X142797872Y-86450499D01*
X142857483Y-86444091D01*
X142992331Y-86393796D01*
X143107546Y-86307546D01*
X143193796Y-86192331D01*
X143244091Y-86057483D01*
X143250500Y-85997873D01*
X143250499Y-84502128D01*
X143244091Y-84442517D01*
X143237833Y-84425739D01*
X143193797Y-84307671D01*
X143193793Y-84307664D01*
X143107547Y-84192455D01*
X143107544Y-84192452D01*
X142992335Y-84106206D01*
X142992328Y-84106202D01*
X142857482Y-84055908D01*
X142857483Y-84055908D01*
X142797883Y-84049501D01*
X142797881Y-84049500D01*
X142797873Y-84049500D01*
X142797864Y-84049500D01*
X140602129Y-84049500D01*
X140602123Y-84049501D01*
X140542516Y-84055908D01*
X140407671Y-84106202D01*
X140407664Y-84106206D01*
X140292455Y-84192452D01*
X140292452Y-84192455D01*
X140206206Y-84307664D01*
X140206202Y-84307671D01*
X140155908Y-84442517D01*
X140149501Y-84502116D01*
X140149501Y-84502123D01*
X140149500Y-84502135D01*
X140149500Y-85899902D01*
X140129815Y-85966941D01*
X140113185Y-85987578D01*
X140011645Y-86089119D01*
X139958074Y-86142690D01*
X139896751Y-86176174D01*
X139827059Y-86171190D01*
X139771126Y-86129318D01*
X139751177Y-86089119D01*
X139733442Y-86027138D01*
X139639278Y-85846870D01*
X139510753Y-85689246D01*
X139353129Y-85560721D01*
X139172861Y-85466557D01*
X138977328Y-85410609D01*
X138977325Y-85410608D01*
X138858000Y-85400000D01*
X138550000Y-85400000D01*
X138050000Y-85400000D01*
X137741999Y-85400000D01*
X137622674Y-85410608D01*
X137622671Y-85410609D01*
X137427138Y-85466557D01*
X137246870Y-85560721D01*
X137089246Y-85689246D01*
X136960721Y-85846870D01*
X136866557Y-86027138D01*
X136810609Y-86222671D01*
X136810608Y-86222674D01*
X136800000Y-86341999D01*
X133370649Y-86341999D01*
X133451641Y-86178693D01*
X133497600Y-85993889D01*
X133500500Y-85951123D01*
X133500499Y-85048878D01*
X133497600Y-85006111D01*
X133451641Y-84821307D01*
X133449046Y-84816075D01*
X133367032Y-84650707D01*
X133367030Y-84650704D01*
X133247722Y-84502278D01*
X133247721Y-84502277D01*
X133099295Y-84382969D01*
X133099292Y-84382967D01*
X132928697Y-84298360D01*
X132743892Y-84252400D01*
X132722506Y-84250950D01*
X132701123Y-84249500D01*
X132701120Y-84249500D01*
X131298877Y-84249500D01*
X131298874Y-84249501D01*
X131256113Y-84252399D01*
X131256112Y-84252399D01*
X131071303Y-84298360D01*
X130900707Y-84382967D01*
X130900704Y-84382969D01*
X130752278Y-84502277D01*
X130752277Y-84502278D01*
X130632969Y-84650704D01*
X130618146Y-84680594D01*
X130570725Y-84731907D01*
X130507058Y-84749500D01*
X128636081Y-84749500D01*
X128491093Y-84778340D01*
X128491087Y-84778342D01*
X128354509Y-84834914D01*
X128354497Y-84834921D01*
X128305270Y-84867813D01*
X128231589Y-84917044D01*
X128231581Y-84917050D01*
X127437049Y-85711582D01*
X127392442Y-85778341D01*
X127392443Y-85778342D01*
X127354914Y-85834509D01*
X127298343Y-85971083D01*
X127298340Y-85971093D01*
X127269500Y-86116080D01*
X127269500Y-87900028D01*
X127262542Y-87940982D01*
X127234631Y-88020747D01*
X127214435Y-88199996D01*
X124500500Y-88199996D01*
X124500500Y-76697844D01*
X128250000Y-76697844D01*
X128256401Y-76757372D01*
X128256403Y-76757379D01*
X128306645Y-76892086D01*
X128306649Y-76892093D01*
X128392809Y-77007187D01*
X128392812Y-77007190D01*
X128507906Y-77093350D01*
X128507913Y-77093354D01*
X128642620Y-77143596D01*
X128642627Y-77143598D01*
X128702155Y-77149999D01*
X128702172Y-77150000D01*
X128800000Y-77150000D01*
X128800000Y-76500000D01*
X128250000Y-76500000D01*
X128250000Y-76697844D01*
X124500500Y-76697844D01*
X124500500Y-75802155D01*
X128250000Y-75802155D01*
X128250000Y-76000000D01*
X128800000Y-76000000D01*
X128800000Y-75350000D01*
X128702155Y-75350000D01*
X128642627Y-75356401D01*
X128642620Y-75356403D01*
X128507913Y-75406645D01*
X128507906Y-75406649D01*
X128392812Y-75492809D01*
X128392809Y-75492812D01*
X128306649Y-75607906D01*
X128306645Y-75607913D01*
X128256403Y-75742620D01*
X128256401Y-75742627D01*
X128250000Y-75802155D01*
X124500500Y-75802155D01*
X124500500Y-73447844D01*
X125000000Y-73447844D01*
X125006401Y-73507372D01*
X125006403Y-73507379D01*
X125056645Y-73642086D01*
X125056649Y-73642093D01*
X125142809Y-73757187D01*
X125142812Y-73757190D01*
X125257906Y-73843350D01*
X125257913Y-73843354D01*
X125392620Y-73893596D01*
X125392627Y-73893598D01*
X125452155Y-73899999D01*
X125452172Y-73900000D01*
X125550000Y-73900000D01*
X125550000Y-73250000D01*
X125000000Y-73250000D01*
X125000000Y-73447844D01*
X124500500Y-73447844D01*
X124500500Y-72552155D01*
X125000000Y-72552155D01*
X125000000Y-72750000D01*
X125550000Y-72750000D01*
X125550000Y-72100000D01*
X125452155Y-72100000D01*
X125392627Y-72106401D01*
X125392620Y-72106403D01*
X125257913Y-72156645D01*
X125257906Y-72156649D01*
X125142812Y-72242809D01*
X125142809Y-72242812D01*
X125056649Y-72357906D01*
X125056645Y-72357913D01*
X125006403Y-72492620D01*
X125006401Y-72492627D01*
X125000000Y-72552155D01*
X124500500Y-72552155D01*
X124500500Y-63880697D01*
X124520185Y-63813658D01*
X124572989Y-63767903D01*
X124642147Y-63757959D01*
X124705703Y-63786984D01*
X124709737Y-63790885D01*
X124709793Y-63790825D01*
X124765819Y-63842809D01*
X124905521Y-63972433D01*
X125122296Y-64120228D01*
X125122301Y-64120230D01*
X125122302Y-64120231D01*
X125122303Y-64120232D01*
X125188593Y-64152155D01*
X125358673Y-64234061D01*
X125358674Y-64234061D01*
X125358677Y-64234063D01*
X125609385Y-64311396D01*
X125868818Y-64350500D01*
X126131182Y-64350500D01*
X126390615Y-64311396D01*
X126641323Y-64234063D01*
X126877704Y-64120228D01*
X127094479Y-63972433D01*
X127286805Y-63793981D01*
X127450386Y-63588857D01*
X127581568Y-63361643D01*
X127677420Y-63117416D01*
X127735802Y-62861630D01*
X127740420Y-62800004D01*
X127755408Y-62600004D01*
X127755408Y-62599995D01*
X127735803Y-62338379D01*
X127735802Y-62338374D01*
X127735802Y-62338370D01*
X127677420Y-62082584D01*
X127581568Y-61838357D01*
X127450386Y-61611143D01*
X127286805Y-61406019D01*
X127286804Y-61406018D01*
X127286801Y-61406014D01*
X127150737Y-61279767D01*
X127094479Y-61227567D01*
X127093577Y-61226952D01*
X127093330Y-61226650D01*
X127090849Y-61224672D01*
X127091272Y-61224141D01*
X127049277Y-61172923D01*
X127041219Y-61103520D01*
X127071962Y-61040777D01*
X127131747Y-61004616D01*
X127163431Y-61000500D01*
X129966000Y-61000500D01*
X130033039Y-61020185D01*
G37*
%TD.AperFunction*%
%TA.AperFunction,Conductor*%
G36*
X158848812Y-82049111D02*
G01*
X158907910Y-82093352D01*
X158907913Y-82093354D01*
X159042620Y-82143596D01*
X159042627Y-82143598D01*
X159102155Y-82149999D01*
X159102172Y-82150000D01*
X159127810Y-82150000D01*
X159194849Y-82169685D01*
X159240604Y-82222489D01*
X159251099Y-82287256D01*
X159249500Y-82302119D01*
X159249500Y-83197870D01*
X159249501Y-83197876D01*
X159255908Y-83257483D01*
X159306202Y-83392328D01*
X159306203Y-83392329D01*
X159306204Y-83392331D01*
X159392454Y-83507546D01*
X159399808Y-83513051D01*
X159441681Y-83568983D01*
X159449500Y-83612320D01*
X159449500Y-83899902D01*
X159429815Y-83966941D01*
X159413181Y-83987583D01*
X159182721Y-84218042D01*
X159121398Y-84251527D01*
X159081784Y-84253650D01*
X159047844Y-84250000D01*
X159000000Y-84250000D01*
X158999948Y-84250051D01*
X158980315Y-84316914D01*
X158950312Y-84349141D01*
X158892454Y-84392454D01*
X158873766Y-84417418D01*
X158817832Y-84459288D01*
X158748140Y-84464272D01*
X158686818Y-84430786D01*
X158653333Y-84369462D01*
X158650500Y-84343106D01*
X158650500Y-82148377D01*
X158670185Y-82081338D01*
X158722989Y-82035583D01*
X158792147Y-82025639D01*
X158848812Y-82049111D01*
G37*
%TD.AperFunction*%
%TA.AperFunction,Conductor*%
G36*
X136795702Y-73395383D02*
G01*
X136802180Y-73401415D01*
X139238584Y-75837819D01*
X139272069Y-75899142D01*
X139267085Y-75968834D01*
X139225213Y-76024767D01*
X139159749Y-76049184D01*
X139150903Y-76049500D01*
X136654141Y-76049500D01*
X136587102Y-76029815D01*
X136541347Y-75977011D01*
X136537969Y-75968859D01*
X136533796Y-75957669D01*
X136533794Y-75957666D01*
X136530695Y-75949357D01*
X136532425Y-75948711D01*
X136519902Y-75891163D01*
X136531691Y-75851011D01*
X136530696Y-75850640D01*
X136533794Y-75842333D01*
X136533796Y-75842331D01*
X136584091Y-75707483D01*
X136590500Y-75647873D01*
X136590499Y-74652128D01*
X136584091Y-74592517D01*
X136533796Y-74457669D01*
X136533794Y-74457666D01*
X136530696Y-74449360D01*
X136532426Y-74448714D01*
X136519902Y-74391163D01*
X136531691Y-74351011D01*
X136530696Y-74350640D01*
X136533794Y-74342333D01*
X136533796Y-74342331D01*
X136584091Y-74207483D01*
X136590500Y-74147873D01*
X136590499Y-73489094D01*
X136610183Y-73422057D01*
X136662987Y-73376302D01*
X136732146Y-73366358D01*
X136795702Y-73395383D01*
G37*
%TD.AperFunction*%
%TA.AperFunction,Conductor*%
G36*
X154443039Y-68270185D02*
G01*
X154488794Y-68322989D01*
X154500000Y-68374500D01*
X154500000Y-68500000D01*
X155176000Y-68500000D01*
X155243039Y-68519685D01*
X155288794Y-68572489D01*
X155300000Y-68624000D01*
X155300000Y-68750000D01*
X155426000Y-68750000D01*
X155493039Y-68769685D01*
X155538794Y-68822489D01*
X155550000Y-68874000D01*
X155550000Y-69650000D01*
X155647828Y-69650000D01*
X155647844Y-69649999D01*
X155707372Y-69643598D01*
X155707379Y-69643596D01*
X155842086Y-69593354D01*
X155842089Y-69593352D01*
X155925271Y-69531082D01*
X155990735Y-69506664D01*
X156059008Y-69521515D01*
X156073887Y-69531077D01*
X156157076Y-69593352D01*
X156157668Y-69593795D01*
X156157671Y-69593797D01*
X156169254Y-69598117D01*
X156292517Y-69644091D01*
X156352127Y-69650500D01*
X156550903Y-69650499D01*
X156617941Y-69670183D01*
X156663696Y-69722987D01*
X156673640Y-69792145D01*
X156644615Y-69855701D01*
X156638584Y-69862180D01*
X156600765Y-69900000D01*
X156487582Y-70013182D01*
X156426262Y-70046666D01*
X156399903Y-70049500D01*
X154154141Y-70049500D01*
X154087102Y-70029815D01*
X154041347Y-69977011D01*
X154037969Y-69968859D01*
X154033796Y-69957669D01*
X154033794Y-69957666D01*
X154030695Y-69949357D01*
X154032425Y-69948711D01*
X154019902Y-69891163D01*
X154031691Y-69851011D01*
X154030696Y-69850640D01*
X154033794Y-69842333D01*
X154033796Y-69842331D01*
X154084091Y-69707483D01*
X154090500Y-69647873D01*
X154090500Y-69197844D01*
X154500000Y-69197844D01*
X154506401Y-69257372D01*
X154506403Y-69257379D01*
X154556645Y-69392086D01*
X154556649Y-69392093D01*
X154642809Y-69507187D01*
X154642812Y-69507190D01*
X154757906Y-69593350D01*
X154757913Y-69593354D01*
X154892620Y-69643596D01*
X154892627Y-69643598D01*
X154952155Y-69649999D01*
X154952172Y-69650000D01*
X155050000Y-69650000D01*
X155050000Y-69000000D01*
X154500000Y-69000000D01*
X154500000Y-69197844D01*
X154090500Y-69197844D01*
X154090499Y-68652128D01*
X154084091Y-68592517D01*
X154033796Y-68457669D01*
X154033794Y-68457666D01*
X154030696Y-68449360D01*
X154032426Y-68448714D01*
X154019902Y-68391163D01*
X154031690Y-68351014D01*
X154030695Y-68350643D01*
X154033794Y-68342333D01*
X154033796Y-68342331D01*
X154037960Y-68331165D01*
X154079829Y-68275234D01*
X154145293Y-68250816D01*
X154154141Y-68250500D01*
X154376000Y-68250500D01*
X154443039Y-68270185D01*
G37*
%TD.AperFunction*%
%TD*%
M02*
