M48
; DRILL file {KiCad 8.0.8+dfsg-1} date 2026-03-21T21:18:50-0600
; FORMAT={-:-/ absolute / inch / decimal}
; #@! TF.CreationDate,2026-03-21T21:18:50-06:00
; #@! TF.GenerationSoftware,Kicad,Pcbnew,8.0.8+dfsg-1
; #@! TF.FileFunction,Plated,1,2,PTH
FMAT,2
INCH
; #@! TA.AperFunction,Plated,PTH,ComponentDrill
T1C0.0079
; #@! TA.AperFunction,Plated,PTH,ViaDrill
T2C0.0118
; #@! TA.AperFunction,Plated,PTH,ComponentDrill
T3C0.0197
; #@! TA.AperFunction,Plated,PTH,ComponentDrill
T4C0.0256
; #@! TA.AperFunction,Plated,PTH,ComponentDrill
T5C0.0276
; #@! TA.AperFunction,Plated,PTH,ComponentDrill
T6C0.0472
%
G90
G05
T1
X5.6673Y-2.8858
X5.6673Y-2.9291
X5.689Y-2.8642
X5.689Y-2.9075
X5.689Y-2.9508
X5.7106Y-2.8858
X5.7106Y-2.9291
X5.7323Y-2.8642
X5.7323Y-2.9075
X5.7323Y-2.9508
X5.7539Y-2.8858
X5.7539Y-2.9291
T2
X5.0402Y-3.4724
X5.0563Y-2.733
X5.0591Y-2.6476
X5.1654Y-2.748
X5.1969Y-2.7087
X5.1969Y-3.3661
X5.2657Y-3.1398
X5.2791Y-2.7717
X5.3283Y-2.7815
X5.3283Y-2.8996
X5.3283Y-2.9587
X5.3937Y-3.0807
X5.4724Y-2.9843
X5.502Y-3.0217
X5.5512Y-3.0217
X5.5787Y-3.5335
X5.5827Y-2.9843
X5.7087Y-2.7008
X5.7323Y-3.6535
X5.9252Y-3.2283
X5.937Y-3.5335
X5.9449Y-2.8937
X5.9557Y-2.9291
X6.0173Y-2.7224
X6.064Y-4.2506
X6.0925Y-3.2579
X6.1122Y-2.7559
X6.123Y-4.162
X6.1489Y-4.2523
X6.1624Y-4.1718
X6.2205Y-3.4744
X6.25Y-3.3878
X6.252Y-3.4744
X6.2894Y-2.6575
X6.2894Y-2.815
X6.2894Y-2.8543
X6.3386Y-2.8346
T3
X5.2559Y-3.7992
X5.2953Y-3.7992
X5.3346Y-3.7992
T4
X5.2492Y-3.6614
X5.2992Y-3.6614
X5.3492Y-3.6614
X5.6201Y-3.7992
X5.6701Y-3.7992
X5.7201Y-3.7992
X5.7701Y-3.7992
X5.8201Y-3.7992
X6.1197Y-3.7992
X6.1197Y-3.9862
X6.1697Y-3.7992
X6.1697Y-3.9862
X6.2197Y-3.7992
X6.2197Y-3.9862
X6.2638Y-3.0315
X6.2697Y-3.7992
X6.2697Y-3.9862
X6.3138Y-3.0315
X6.3638Y-3.0315
X6.4138Y-3.0315
T5
X6.063Y-4.1024
T6
X4.9606Y-2.4646
X4.9606Y-3.8189
X6.4409Y-2.4724
X6.4567Y-3.8189
M30
