%TF.GenerationSoftware,KiCad,Pcbnew,8.0.8+dfsg-1*%
%TF.CreationDate,2026-03-21T21:18:56-06:00*%
%TF.ProjectId,scann3d,7363616e-6e33-4642-9e6b-696361645f70,rev?*%
%TF.SameCoordinates,Original*%
%TF.FileFunction,Copper,L2,Bot*%
%TF.FilePolarity,Positive*%
%FSLAX46Y46*%
G04 Gerber Fmt 4.6, Leading zero omitted, Abs format (unit mm)*
G04 Created by KiCad (PCBNEW 8.0.8+dfsg-1) date 2026-03-21 21:18:56*
%MOMM*%
%LPD*%
G01*
G04 APERTURE LIST*
%TA.AperFunction,ComponentPad*%
%ADD10R,1.000000X1.000000*%
%TD*%
%TA.AperFunction,ComponentPad*%
%ADD11O,1.000000X1.000000*%
%TD*%
%TA.AperFunction,ComponentPad*%
%ADD12C,1.500000*%
%TD*%
%TA.AperFunction,ComponentPad*%
%ADD13C,2.500000*%
%TD*%
%TA.AperFunction,HeatsinkPad*%
%ADD14C,0.600000*%
%TD*%
%TA.AperFunction,ComponentPad*%
%ADD15R,0.850000X0.850000*%
%TD*%
%TA.AperFunction,ComponentPad*%
%ADD16O,0.850000X0.850000*%
%TD*%
%TA.AperFunction,ViaPad*%
%ADD17C,0.600000*%
%TD*%
%TA.AperFunction,Conductor*%
%ADD18C,0.200000*%
%TD*%
%TA.AperFunction,Conductor*%
%ADD19C,0.500000*%
%TD*%
G04 APERTURE END LIST*
D10*
%TO.P,REF\u002A\u002A,1*%
%TO.N,/PWM*%
X135870000Y-93000000D03*
D11*
%TO.P,REF\u002A\u002A,2*%
%TO.N,+5V*%
X134600000Y-93000000D03*
%TO.P,REF\u002A\u002A,3*%
%TO.N,GND*%
X133330000Y-93000000D03*
%TD*%
D12*
%TO.P,REF\u002A\u002A,5*%
%TO.N,+3.3V*%
X154000000Y-104200000D03*
%TD*%
D10*
%TO.P,J1,1,Pin_1*%
%TO.N,+5V*%
X142750000Y-96500000D03*
D11*
%TO.P,J1,2,Pin_2*%
%TO.N,+3.3V*%
X144020000Y-96500000D03*
%TO.P,J1,3,Pin_3*%
%TO.N,GND*%
X145290000Y-96500000D03*
%TO.P,J1,4,Pin_4*%
%TO.N,/TXD*%
X146560000Y-96500000D03*
%TO.P,J1,5,Pin_5*%
%TO.N,/RXD*%
X147830000Y-96500000D03*
%TD*%
D10*
%TO.P,J3,1,Pin_1*%
%TO.N,+3.3V*%
X155440000Y-101250000D03*
D11*
%TO.P,J3,2,Pin_2*%
%TO.N,/SDA*%
X156710000Y-101250000D03*
%TO.P,J3,3,Pin_3*%
%TO.N,/SCL*%
X157980000Y-101250000D03*
%TO.P,J3,4,Pin_4*%
%TO.N,GND*%
X159250000Y-101250000D03*
%TD*%
D13*
%TO.P,,3*%
%TO.N,+3.3V*%
X164000000Y-97000000D03*
%TD*%
%TO.P,GND,2*%
%TO.N,GND*%
X163600000Y-62800000D03*
%TD*%
%TO.P,GND,1*%
%TO.N,GND*%
X126000000Y-62600000D03*
%TD*%
D14*
%TO.P,U1,19,GND*%
%TO.N,GND*%
X143950000Y-73300000D03*
X143950000Y-74400000D03*
X144500000Y-72750000D03*
X144500000Y-73850000D03*
X144500000Y-74950000D03*
X145050000Y-73300000D03*
X145050000Y-74400000D03*
X145600000Y-72750000D03*
X145600000Y-73850000D03*
X145600000Y-74950000D03*
X146150000Y-73300000D03*
X146150000Y-74400000D03*
%TD*%
D10*
%TO.P,J2,1,Pin_1*%
%TO.N,+3.3V*%
X155440000Y-96500000D03*
D11*
%TO.P,J2,2,Pin_2*%
%TO.N,/SDA*%
X156710000Y-96500000D03*
%TO.P,J2,3,Pin_3*%
%TO.N,/SCL*%
X157980000Y-96500000D03*
%TO.P,J2,4,Pin_4*%
%TO.N,GND*%
X159250000Y-96500000D03*
%TD*%
D10*
%TO.P,J4,1,Pin_1*%
%TO.N,+5V*%
X159100000Y-77000000D03*
D11*
%TO.P,J4,2,Pin_2*%
%TO.N,unconnected-(U1-IO18-Pad13)*%
X160370000Y-77000000D03*
%TO.P,J4,3,Pin_3*%
%TO.N,unconnected-(U1-IO19-Pad14)*%
X161640000Y-77000000D03*
%TO.P,J4,4,Pin_4*%
%TO.N,GND*%
X162910000Y-77000000D03*
%TD*%
D15*
%TO.P,M1,1,PWM*%
%TO.N,/PWM*%
X135500000Y-96500000D03*
D16*
%TO.P,M1,2,+*%
%TO.N,+5V*%
X134500000Y-96500000D03*
%TO.P,M1,3,-*%
%TO.N,GND*%
X133500000Y-96500000D03*
%TD*%
D13*
%TO.P,,4*%
%TO.N,+5V*%
X126000000Y-97000000D03*
%TD*%
D17*
%TO.N,+3.3V*%
X161000000Y-72000000D03*
X155250000Y-70000000D03*
X139000000Y-75800000D03*
X141800000Y-75800000D03*
%TO.N,GND*%
X132000000Y-85500000D03*
X128500000Y-67250000D03*
X128429270Y-69417486D03*
X132000000Y-68800000D03*
X128020000Y-88200000D03*
X150800000Y-89750000D03*
X145000000Y-68600000D03*
X141700000Y-89750000D03*
X133750000Y-79750000D03*
X156182096Y-108007176D03*
X145600000Y-92800000D03*
X154025000Y-107965000D03*
X158750000Y-86050000D03*
%TO.N,Net-(D2-RK)*%
X134089998Y-70400000D03*
X159750000Y-72500000D03*
%TO.N,Net-(D2-GK)*%
X159750000Y-71500000D03*
X135340000Y-70650000D03*
%TO.N,/PWM*%
X137000000Y-78250000D03*
%TO.N,/SDA*%
X135340000Y-73650000D03*
X155525000Y-105715000D03*
X158000000Y-88250000D03*
%TO.N,/SCL*%
X135340000Y-75150000D03*
X131200000Y-69800000D03*
X156524577Y-105963956D03*
X158800003Y-88250000D03*
%TO.N,/I2C_RST*%
X139750000Y-76750000D03*
X154750000Y-82750000D03*
%TO.N,Net-(U1-EN)*%
X141000000Y-76750000D03*
X150500000Y-82000000D03*
%TO.N,Net-(D1-GK)*%
X152840000Y-69150000D03*
X159750000Y-67500000D03*
%TO.N,unconnected-(U1-IO18-Pad13)*%
X151275061Y-74400000D03*
%TO.N,unconnected-(U1-IO19-Pad14)*%
X151000000Y-73500000D03*
%TD*%
D18*
%TO.N,+3.3V*%
X161000000Y-71901471D02*
X161000000Y-72000000D01*
X155250000Y-70000000D02*
X159098529Y-70000000D01*
D19*
X141800000Y-75800000D02*
X139000000Y-75800000D01*
D18*
X159098529Y-70000000D02*
X161000000Y-71901471D01*
%TO.N,Net-(D2-RK)*%
X158934315Y-72500000D02*
X159750000Y-72500000D01*
X157484315Y-71050000D02*
X157500000Y-71065685D01*
X136000000Y-71050000D02*
X157484315Y-71050000D01*
X158334314Y-71900000D02*
X158334315Y-71900000D01*
X135800000Y-71250000D02*
X136000000Y-71050000D01*
X134939998Y-71250000D02*
X135800000Y-71250000D01*
X157500000Y-71065685D02*
X158334314Y-71900000D01*
X134089998Y-70400000D02*
X134939998Y-71250000D01*
X158334315Y-71900000D02*
X158934315Y-72500000D01*
%TO.N,Net-(D2-GK)*%
X159750000Y-71500000D02*
X158500000Y-71500000D01*
X158500000Y-71500000D02*
X157650000Y-70650000D01*
X135340000Y-70650000D02*
X157650000Y-70650000D01*
D19*
%TO.N,+5V*%
X152560664Y-95550000D02*
X143626497Y-95550000D01*
X161800000Y-86310664D02*
X152560664Y-95550000D01*
X159100000Y-77000000D02*
X159100000Y-83002757D01*
X142750000Y-96426497D02*
X142750000Y-96500000D01*
X143626497Y-95550000D02*
X142750000Y-96426497D01*
X159100000Y-83002757D02*
X161800000Y-85702757D01*
X161800000Y-85702757D02*
X161800000Y-86310664D01*
D18*
%TO.N,/PWM*%
X137000000Y-78250000D02*
X135500000Y-79750000D01*
X135500000Y-79750000D02*
X135500000Y-96500000D01*
%TO.N,/SDA*%
X156710000Y-104530000D02*
X156710000Y-101250000D01*
X149940000Y-88250000D02*
X135340000Y-73650000D01*
X158000000Y-88250000D02*
X149940000Y-88250000D01*
X155525000Y-105715000D02*
X156710000Y-104530000D01*
%TO.N,/SCL*%
X149040000Y-88850000D02*
X135340000Y-75150000D01*
X158800003Y-88250000D02*
X158800003Y-88298526D01*
X158248529Y-88850000D02*
X149040000Y-88850000D01*
X131400000Y-71210000D02*
X135340000Y-75150000D01*
X156524577Y-105963956D02*
X157980000Y-104508533D01*
X131400000Y-70000000D02*
X131400000Y-71210000D01*
X158800003Y-88298526D02*
X158248529Y-88850000D01*
X131200000Y-69800000D02*
X131400000Y-70000000D01*
X157980000Y-104508533D02*
X157980000Y-101250000D01*
%TO.N,/I2C_RST*%
X154750000Y-82750000D02*
X145750000Y-82750000D01*
X145750000Y-82750000D02*
X139750000Y-76750000D01*
%TO.N,Net-(U1-EN)*%
X150500000Y-82000000D02*
X146250000Y-82000000D01*
X146250000Y-82000000D02*
X141000000Y-76750000D01*
%TO.N,Net-(D1-GK)*%
X159750000Y-67500000D02*
X158100000Y-69150000D01*
X158100000Y-69150000D02*
X152840000Y-69150000D01*
%TO.N,unconnected-(U1-IO18-Pad13)*%
X160370000Y-77000000D02*
X160370000Y-76670000D01*
X152475061Y-75600000D02*
X151275061Y-74400000D01*
X160370000Y-76670000D02*
X159300000Y-75600000D01*
X159300000Y-75600000D02*
X152475061Y-75600000D01*
%TO.N,unconnected-(U1-IO19-Pad14)*%
X151300000Y-73500000D02*
X151000000Y-73500000D01*
X159840000Y-75200000D02*
X153000000Y-75200000D01*
X153000000Y-75200000D02*
X151300000Y-73500000D01*
X161640000Y-77000000D02*
X159840000Y-75200000D01*
%TD*%
%TA.AperFunction,Conductor*%
%TO.N,GND*%
G36*
X130033039Y-61020185D02*
G01*
X130078794Y-61072989D01*
X130090000Y-61124500D01*
X130090000Y-66550000D01*
X158090000Y-66550000D01*
X158090000Y-61124500D01*
X158109685Y-61057461D01*
X158162489Y-61011706D01*
X158214000Y-61000500D01*
X162760082Y-61000500D01*
X162827121Y-61020185D01*
X162872876Y-61072989D01*
X162882820Y-61142147D01*
X162853795Y-61205703D01*
X162813884Y-61236220D01*
X162722547Y-61280205D01*
X162722539Y-61280210D01*
X162550830Y-61397277D01*
X163388941Y-62235387D01*
X163368409Y-62240889D01*
X163231592Y-62319881D01*
X163119881Y-62431592D01*
X163040889Y-62568409D01*
X163035387Y-62588940D01*
X162197874Y-61751427D01*
X162150028Y-61811425D01*
X162018883Y-62038573D01*
X161923058Y-62282729D01*
X161864693Y-62538449D01*
X161864692Y-62538454D01*
X161845093Y-62799995D01*
X161845093Y-62800004D01*
X161864692Y-63061545D01*
X161864693Y-63061550D01*
X161923058Y-63317270D01*
X162018883Y-63561426D01*
X162018882Y-63561426D01*
X162150029Y-63788576D01*
X162197873Y-63848572D01*
X163035387Y-63011058D01*
X163040889Y-63031591D01*
X163119881Y-63168408D01*
X163231592Y-63280119D01*
X163368409Y-63359111D01*
X163388940Y-63364612D01*
X162550830Y-64202720D01*
X162722546Y-64319793D01*
X162722550Y-64319795D01*
X162958854Y-64433594D01*
X162958858Y-64433595D01*
X163209494Y-64510907D01*
X163209500Y-64510909D01*
X163468848Y-64549999D01*
X163468857Y-64550000D01*
X163731143Y-64550000D01*
X163731151Y-64549999D01*
X163990499Y-64510909D01*
X163990505Y-64510907D01*
X164241143Y-64433595D01*
X164477445Y-64319798D01*
X164477447Y-64319797D01*
X164649168Y-64202720D01*
X163811059Y-63364612D01*
X163831591Y-63359111D01*
X163968408Y-63280119D01*
X164080119Y-63168408D01*
X164159111Y-63031591D01*
X164164612Y-63011059D01*
X165002125Y-63848572D01*
X165049971Y-63788573D01*
X165181116Y-63561426D01*
X165260072Y-63360251D01*
X165302888Y-63305037D01*
X165368758Y-63281736D01*
X165436768Y-63297747D01*
X165485327Y-63347985D01*
X165499500Y-63405553D01*
X165499500Y-95719302D01*
X165479815Y-95786341D01*
X165427011Y-95832096D01*
X165357853Y-95842040D01*
X165294297Y-95813015D01*
X165290262Y-95809115D01*
X165290207Y-95809175D01*
X165094479Y-95627567D01*
X165066294Y-95608351D01*
X164877704Y-95479772D01*
X164877700Y-95479770D01*
X164877697Y-95479768D01*
X164877696Y-95479767D01*
X164641325Y-95365938D01*
X164641327Y-95365938D01*
X164390623Y-95288606D01*
X164390619Y-95288605D01*
X164390615Y-95288604D01*
X164265823Y-95269794D01*
X164131187Y-95249500D01*
X164131182Y-95249500D01*
X163868818Y-95249500D01*
X163868812Y-95249500D01*
X163707247Y-95273853D01*
X163609385Y-95288604D01*
X163609382Y-95288605D01*
X163609376Y-95288606D01*
X163358673Y-95365938D01*
X163122303Y-95479767D01*
X163122302Y-95479768D01*
X162905520Y-95627567D01*
X162713198Y-95806014D01*
X162549614Y-96011143D01*
X162418432Y-96238356D01*
X162322582Y-96482578D01*
X162322576Y-96482597D01*
X162264197Y-96738374D01*
X162264196Y-96738379D01*
X162244592Y-96999995D01*
X162244592Y-97000004D01*
X162264196Y-97261620D01*
X162264197Y-97261625D01*
X162322576Y-97517402D01*
X162322578Y-97517411D01*
X162322580Y-97517416D01*
X162418432Y-97761643D01*
X162549614Y-97988857D01*
X162681736Y-98154533D01*
X162713198Y-98193985D01*
X162810860Y-98284601D01*
X162846615Y-98344629D01*
X162844240Y-98414459D01*
X162804489Y-98471919D01*
X162739984Y-98498767D01*
X162726519Y-98499500D01*
X158434108Y-98499500D01*
X158306812Y-98533608D01*
X158192686Y-98599500D01*
X158192683Y-98599502D01*
X158099502Y-98692683D01*
X158099500Y-98692686D01*
X158033608Y-98806812D01*
X157999500Y-98934108D01*
X157999500Y-99565891D01*
X158033608Y-99693187D01*
X158066554Y-99750250D01*
X158099500Y-99807314D01*
X158192686Y-99900500D01*
X158306814Y-99966392D01*
X158434108Y-100000500D01*
X158565892Y-100000500D01*
X160575500Y-100000500D01*
X160642539Y-100020185D01*
X160688294Y-100072989D01*
X160699500Y-100124500D01*
X160699500Y-109775500D01*
X160679815Y-109842539D01*
X160627011Y-109888294D01*
X160575500Y-109899500D01*
X153024500Y-109899500D01*
X152957461Y-109879815D01*
X152911706Y-109827011D01*
X152900500Y-109775500D01*
X152900500Y-105168337D01*
X152920185Y-105101298D01*
X152972989Y-105055543D01*
X153042147Y-105045599D01*
X153105703Y-105074624D01*
X153112181Y-105080656D01*
X153193123Y-105161598D01*
X153372361Y-105287102D01*
X153570670Y-105379575D01*
X153782023Y-105436207D01*
X153964926Y-105452208D01*
X153999998Y-105455277D01*
X154000000Y-105455277D01*
X154000002Y-105455277D01*
X154028254Y-105452805D01*
X154217977Y-105436207D01*
X154429330Y-105379575D01*
X154598837Y-105300532D01*
X154667911Y-105290041D01*
X154731695Y-105318560D01*
X154769935Y-105377037D01*
X154770490Y-105446904D01*
X154768281Y-105453869D01*
X154739632Y-105535742D01*
X154739630Y-105535750D01*
X154719435Y-105714996D01*
X154719435Y-105715003D01*
X154739630Y-105894249D01*
X154739631Y-105894254D01*
X154799211Y-106064523D01*
X154895184Y-106217262D01*
X155022738Y-106344816D01*
X155175478Y-106440789D01*
X155336771Y-106497228D01*
X155345745Y-106500368D01*
X155345750Y-106500369D01*
X155524996Y-106520565D01*
X155525000Y-106520565D01*
X155525004Y-106520565D01*
X155704249Y-106500369D01*
X155704252Y-106500368D01*
X155704255Y-106500368D01*
X155704256Y-106500367D01*
X155704259Y-106500367D01*
X155762991Y-106479815D01*
X155797134Y-106467867D01*
X155866913Y-106464305D01*
X155925771Y-106497228D01*
X156022315Y-106593772D01*
X156175055Y-106689745D01*
X156345322Y-106749324D01*
X156345327Y-106749325D01*
X156524573Y-106769521D01*
X156524577Y-106769521D01*
X156524581Y-106769521D01*
X156703826Y-106749325D01*
X156703829Y-106749324D01*
X156703832Y-106749324D01*
X156874099Y-106689745D01*
X157026839Y-106593772D01*
X157154393Y-106466218D01*
X157250366Y-106313478D01*
X157309945Y-106143211D01*
X157319738Y-106056285D01*
X157346803Y-105991874D01*
X157355267Y-105982499D01*
X158338506Y-104999261D01*
X158338511Y-104999257D01*
X158348714Y-104989053D01*
X158348716Y-104989053D01*
X158460520Y-104877249D01*
X158538503Y-104742178D01*
X158538512Y-104742163D01*
X158539576Y-104740320D01*
X158569316Y-104629331D01*
X158580501Y-104587590D01*
X158580501Y-104429476D01*
X158580501Y-104421881D01*
X158580500Y-104421863D01*
X158580500Y-102232915D01*
X158600185Y-102165876D01*
X158652989Y-102120121D01*
X158722147Y-102110177D01*
X158762953Y-102123556D01*
X158865465Y-102178349D01*
X159000000Y-102219159D01*
X159500000Y-102219159D01*
X159634534Y-102178349D01*
X159808260Y-102085491D01*
X159960528Y-101960528D01*
X160085492Y-101808260D01*
X160085496Y-101808253D01*
X160178347Y-101634541D01*
X160219160Y-101500000D01*
X159500000Y-101500000D01*
X159500000Y-102219159D01*
X159000000Y-102219159D01*
X159000000Y-101459618D01*
X159050446Y-101510064D01*
X159124555Y-101552851D01*
X159207213Y-101575000D01*
X159292787Y-101575000D01*
X159375445Y-101552851D01*
X159449554Y-101510064D01*
X159510064Y-101449554D01*
X159552851Y-101375445D01*
X159575000Y-101292787D01*
X159575000Y-101207213D01*
X159552851Y-101124555D01*
X159510064Y-101050446D01*
X159459618Y-101000000D01*
X159500000Y-101000000D01*
X160219160Y-101000000D01*
X160219160Y-100999999D01*
X160178347Y-100865458D01*
X160085496Y-100691746D01*
X160085492Y-100691739D01*
X159960528Y-100539471D01*
X159808260Y-100414507D01*
X159808253Y-100414503D01*
X159634541Y-100321652D01*
X159500000Y-100280839D01*
X159500000Y-101000000D01*
X159459618Y-101000000D01*
X159449554Y-100989936D01*
X159375445Y-100947149D01*
X159292787Y-100925000D01*
X159207213Y-100925000D01*
X159124555Y-100947149D01*
X159050446Y-100989936D01*
X159000000Y-101040382D01*
X159000000Y-100280839D01*
X158999999Y-100280839D01*
X158865458Y-100321652D01*
X158691742Y-100414505D01*
X158686673Y-100417893D01*
X158685556Y-100416221D01*
X158629715Y-100439921D01*
X158560851Y-100428111D01*
X158543811Y-100417158D01*
X158543601Y-100417473D01*
X158538532Y-100414086D01*
X158364733Y-100321188D01*
X158364727Y-100321186D01*
X158176132Y-100263976D01*
X158176129Y-100263975D01*
X157980000Y-100244659D01*
X157783870Y-100263975D01*
X157595266Y-100321188D01*
X157421467Y-100414086D01*
X157416399Y-100417473D01*
X157415305Y-100415836D01*
X157359337Y-100439596D01*
X157290471Y-100427795D01*
X157273843Y-100417109D01*
X157273601Y-100417473D01*
X157268532Y-100414086D01*
X157094733Y-100321188D01*
X157094727Y-100321186D01*
X156906132Y-100263976D01*
X156906129Y-100263975D01*
X156710000Y-100244659D01*
X156513870Y-100263975D01*
X156458278Y-100280839D01*
X156325273Y-100321186D01*
X156325272Y-100321186D01*
X156325267Y-100321188D01*
X156323143Y-100322324D01*
X156321898Y-100322583D01*
X156319641Y-100323518D01*
X156319463Y-100323089D01*
X156254740Y-100336564D01*
X156190382Y-100312231D01*
X156182331Y-100306204D01*
X156182328Y-100306202D01*
X156047482Y-100255908D01*
X156047483Y-100255908D01*
X155987883Y-100249501D01*
X155987881Y-100249500D01*
X155987873Y-100249500D01*
X155987864Y-100249500D01*
X154892129Y-100249500D01*
X154892123Y-100249501D01*
X154832516Y-100255908D01*
X154697671Y-100306202D01*
X154697664Y-100306206D01*
X154582455Y-100392452D01*
X154582452Y-100392455D01*
X154496206Y-100507664D01*
X154496202Y-100507671D01*
X154445908Y-100642517D01*
X154439501Y-100702116D01*
X154439500Y-100702135D01*
X154439500Y-101797870D01*
X154439501Y-101797876D01*
X154445908Y-101857483D01*
X154496202Y-101992328D01*
X154496206Y-101992335D01*
X154582452Y-102107544D01*
X154582455Y-102107547D01*
X154697664Y-102193793D01*
X154697671Y-102193797D01*
X154832517Y-102244091D01*
X154832516Y-102244091D01*
X154839444Y-102244835D01*
X154892127Y-102250500D01*
X155985500Y-102250499D01*
X156052539Y-102270184D01*
X156098294Y-102322987D01*
X156109500Y-102374499D01*
X156109500Y-104229902D01*
X156089815Y-104296941D01*
X156073181Y-104317583D01*
X155506465Y-104884298D01*
X155445142Y-104917783D01*
X155432668Y-104919837D01*
X155345748Y-104929630D01*
X155257490Y-104960513D01*
X155187712Y-104964074D01*
X155127085Y-104929345D01*
X155094858Y-104867351D01*
X155101264Y-104797775D01*
X155104139Y-104791101D01*
X155179575Y-104629330D01*
X155236207Y-104417977D01*
X155255277Y-104200000D01*
X155236207Y-103982023D01*
X155179575Y-103770670D01*
X155087102Y-103572362D01*
X155087100Y-103572359D01*
X155087099Y-103572357D01*
X154961599Y-103393124D01*
X154887818Y-103319343D01*
X154806877Y-103238402D01*
X154627639Y-103112898D01*
X154627640Y-103112898D01*
X154627638Y-103112897D01*
X154528484Y-103066661D01*
X154429330Y-103020425D01*
X154429326Y-103020424D01*
X154429322Y-103020422D01*
X154217977Y-102963793D01*
X154000002Y-102944723D01*
X153999998Y-102944723D01*
X153854682Y-102957436D01*
X153782023Y-102963793D01*
X153782020Y-102963793D01*
X153570677Y-103020422D01*
X153570668Y-103020426D01*
X153372361Y-103112898D01*
X153372357Y-103112900D01*
X153193121Y-103238402D01*
X153112181Y-103319343D01*
X153050858Y-103352828D01*
X152981166Y-103347844D01*
X152925233Y-103305972D01*
X152900816Y-103240508D01*
X152900500Y-103231662D01*
X152900500Y-100124500D01*
X152920185Y-100057461D01*
X152972989Y-100011706D01*
X153024500Y-100000500D01*
X155565890Y-100000500D01*
X155565892Y-100000500D01*
X155693186Y-99966392D01*
X155807314Y-99900500D01*
X155900500Y-99807314D01*
X155966392Y-99693186D01*
X156000500Y-99565892D01*
X156000500Y-98934108D01*
X155966392Y-98806814D01*
X155900500Y-98692686D01*
X155807314Y-98599500D01*
X155750250Y-98566554D01*
X155693187Y-98533608D01*
X155629539Y-98516554D01*
X155565892Y-98499500D01*
X155565891Y-98499500D01*
X127273481Y-98499500D01*
X127206442Y-98479815D01*
X127160687Y-98427011D01*
X127150743Y-98357853D01*
X127179768Y-98294297D01*
X127189140Y-98284601D01*
X127286801Y-98193985D01*
X127286801Y-98193983D01*
X127286805Y-98193981D01*
X127450386Y-97988857D01*
X127581568Y-97761643D01*
X127677420Y-97517416D01*
X127735802Y-97261630D01*
X127737248Y-97242331D01*
X127755408Y-97000004D01*
X127755408Y-96999995D01*
X127736674Y-96750000D01*
X132608628Y-96750000D01*
X132650316Y-96878306D01*
X132650317Y-96878307D01*
X132747536Y-97046694D01*
X132747535Y-97046694D01*
X132877639Y-97191190D01*
X132877642Y-97191192D01*
X133034950Y-97305484D01*
X133212587Y-97384573D01*
X133249999Y-97392524D01*
X133250000Y-97392524D01*
X133250000Y-96750000D01*
X132608628Y-96750000D01*
X127736674Y-96750000D01*
X127735803Y-96738379D01*
X127735802Y-96738374D01*
X127735802Y-96738370D01*
X127677420Y-96482584D01*
X127586137Y-96249999D01*
X132608628Y-96249999D01*
X132608628Y-96250000D01*
X133250000Y-96250000D01*
X133250000Y-95607473D01*
X133212585Y-95615426D01*
X133212580Y-95615428D01*
X133034953Y-95694513D01*
X132877643Y-95808806D01*
X132747535Y-95953305D01*
X132650317Y-96121692D01*
X132650316Y-96121693D01*
X132608628Y-96249999D01*
X127586137Y-96249999D01*
X127581568Y-96238357D01*
X127450386Y-96011143D01*
X127286805Y-95806019D01*
X127286804Y-95806018D01*
X127286801Y-95806014D01*
X127094479Y-95627567D01*
X127066294Y-95608351D01*
X126877704Y-95479772D01*
X126877700Y-95479770D01*
X126877697Y-95479768D01*
X126877696Y-95479767D01*
X126641325Y-95365938D01*
X126641327Y-95365938D01*
X126390623Y-95288606D01*
X126390619Y-95288605D01*
X126390615Y-95288604D01*
X126265823Y-95269794D01*
X126131187Y-95249500D01*
X126131182Y-95249500D01*
X125868818Y-95249500D01*
X125868812Y-95249500D01*
X125707247Y-95273853D01*
X125609385Y-95288604D01*
X125609382Y-95288605D01*
X125609376Y-95288606D01*
X125358673Y-95365938D01*
X125122303Y-95479767D01*
X125122302Y-95479768D01*
X124905520Y-95627567D01*
X124709793Y-95809175D01*
X124708482Y-95807762D01*
X124655370Y-95839398D01*
X124585540Y-95837023D01*
X124528080Y-95797272D01*
X124501233Y-95732766D01*
X124500500Y-95719302D01*
X124500500Y-93250000D01*
X132360840Y-93250000D01*
X132401652Y-93384541D01*
X132494503Y-93558253D01*
X132494507Y-93558260D01*
X132619471Y-93710528D01*
X132771739Y-93835491D01*
X132945465Y-93928349D01*
X133080000Y-93969159D01*
X133080000Y-93250000D01*
X132360840Y-93250000D01*
X124500500Y-93250000D01*
X124500500Y-92749999D01*
X132360839Y-92749999D01*
X132360840Y-92750000D01*
X133080000Y-92750000D01*
X133080000Y-92030839D01*
X133079999Y-92030839D01*
X132945458Y-92071652D01*
X132771746Y-92164503D01*
X132771739Y-92164507D01*
X132619471Y-92289471D01*
X132494507Y-92441739D01*
X132494503Y-92441746D01*
X132401652Y-92615458D01*
X132360839Y-92749999D01*
X124500500Y-92749999D01*
X124500500Y-69799996D01*
X130394435Y-69799996D01*
X130394435Y-69800003D01*
X130414630Y-69979249D01*
X130414631Y-69979254D01*
X130474211Y-70149523D01*
X130570184Y-70302262D01*
X130697737Y-70429815D01*
X130697740Y-70429817D01*
X130741471Y-70457295D01*
X130787763Y-70509629D01*
X130799500Y-70562289D01*
X130799500Y-71123330D01*
X130799499Y-71123348D01*
X130799499Y-71289054D01*
X130799498Y-71289054D01*
X130840423Y-71441785D01*
X130848379Y-71455565D01*
X130919477Y-71578712D01*
X130919481Y-71578717D01*
X131038349Y-71697585D01*
X131038355Y-71697590D01*
X134509298Y-75168533D01*
X134542783Y-75229856D01*
X134544837Y-75242330D01*
X134554630Y-75329249D01*
X134614210Y-75499521D01*
X134690384Y-75620750D01*
X134710184Y-75652262D01*
X134837738Y-75779816D01*
X134990478Y-75875789D01*
X135160745Y-75935368D01*
X135247669Y-75945161D01*
X135312080Y-75972226D01*
X135321465Y-75980700D01*
X136672256Y-77331491D01*
X136705741Y-77392814D01*
X136700757Y-77462506D01*
X136658885Y-77518439D01*
X136650548Y-77524165D01*
X136497740Y-77620182D01*
X136497737Y-77620184D01*
X136370184Y-77747737D01*
X136274210Y-77900478D01*
X136214630Y-78070750D01*
X136204837Y-78157668D01*
X136177770Y-78222082D01*
X136169298Y-78231465D01*
X135131286Y-79269478D01*
X135019481Y-79381282D01*
X135019479Y-79381285D01*
X134969361Y-79468094D01*
X134969359Y-79468096D01*
X134940425Y-79518209D01*
X134940424Y-79518210D01*
X134940423Y-79518215D01*
X134899499Y-79670943D01*
X134899499Y-79670945D01*
X134899499Y-79839046D01*
X134899500Y-79839059D01*
X134899500Y-91887343D01*
X134879815Y-91954382D01*
X134827011Y-92000137D01*
X134763347Y-92010746D01*
X134600001Y-91994659D01*
X134600000Y-91994659D01*
X134403870Y-92013975D01*
X134215266Y-92071188D01*
X134041467Y-92164086D01*
X134036399Y-92167473D01*
X134035386Y-92165958D01*
X133978936Y-92189920D01*
X133910071Y-92178115D01*
X133893574Y-92167511D01*
X133893322Y-92167890D01*
X133888253Y-92164503D01*
X133714541Y-92071652D01*
X133580000Y-92030839D01*
X133580000Y-92790382D01*
X133529554Y-92739936D01*
X133455445Y-92697149D01*
X133372787Y-92675000D01*
X133287213Y-92675000D01*
X133204555Y-92697149D01*
X133130446Y-92739936D01*
X133069936Y-92800446D01*
X133027149Y-92874555D01*
X133005000Y-92957213D01*
X133005000Y-93042787D01*
X133027149Y-93125445D01*
X133069936Y-93199554D01*
X133130446Y-93260064D01*
X133204555Y-93302851D01*
X133287213Y-93325000D01*
X133372787Y-93325000D01*
X133455445Y-93302851D01*
X133529554Y-93260064D01*
X133580000Y-93209618D01*
X133580000Y-93969159D01*
X133714534Y-93928349D01*
X133888259Y-93835492D01*
X133893320Y-93832111D01*
X133894444Y-93833793D01*
X133950203Y-93810086D01*
X134019075Y-93821851D01*
X134036186Y-93832843D01*
X134036399Y-93832526D01*
X134041457Y-93835906D01*
X134041462Y-93835910D01*
X134215273Y-93928814D01*
X134403868Y-93986024D01*
X134600000Y-94005341D01*
X134763346Y-93989253D01*
X134831992Y-94002272D01*
X134882702Y-94050337D01*
X134899500Y-94112656D01*
X134899500Y-95485613D01*
X134879815Y-95552652D01*
X134827011Y-95598407D01*
X134757853Y-95608351D01*
X134749719Y-95606903D01*
X134597274Y-95574500D01*
X134402726Y-95574500D01*
X134212430Y-95614948D01*
X134212427Y-95614949D01*
X134049817Y-95687346D01*
X133980567Y-95696630D01*
X133948948Y-95687346D01*
X133787414Y-95615426D01*
X133750000Y-95607473D01*
X133750000Y-95914811D01*
X133733387Y-95976811D01*
X133649857Y-96121488D01*
X133649856Y-96121489D01*
X133601176Y-96271310D01*
X133549728Y-96250000D01*
X133450272Y-96250000D01*
X133358386Y-96288060D01*
X133288060Y-96358386D01*
X133250000Y-96450272D01*
X133250000Y-96549728D01*
X133288060Y-96641614D01*
X133358386Y-96711940D01*
X133450272Y-96750000D01*
X133549728Y-96750000D01*
X133601177Y-96728689D01*
X133649856Y-96878510D01*
X133649857Y-96878511D01*
X133733387Y-97023189D01*
X133750000Y-97085189D01*
X133750000Y-97392524D01*
X133787414Y-97384573D01*
X133787415Y-97384573D01*
X133948949Y-97312653D01*
X134018199Y-97303368D01*
X134049809Y-97312648D01*
X134212429Y-97385051D01*
X134212432Y-97385051D01*
X134212433Y-97385052D01*
X134402726Y-97425500D01*
X134597274Y-97425500D01*
X134787571Y-97385051D01*
X134787573Y-97385049D01*
X134793755Y-97383042D01*
X134794756Y-97386124D01*
X134849741Y-97378197D01*
X134875463Y-97384757D01*
X134967517Y-97419091D01*
X135027127Y-97425500D01*
X135972872Y-97425499D01*
X136032483Y-97419091D01*
X136167331Y-97368796D01*
X136282546Y-97282546D01*
X136368796Y-97167331D01*
X136419091Y-97032483D01*
X136425500Y-96972873D01*
X136425499Y-96027128D01*
X136419091Y-95967517D01*
X136413790Y-95953305D01*
X136368797Y-95832671D01*
X136368793Y-95832664D01*
X136282547Y-95717455D01*
X136282544Y-95717452D01*
X136167329Y-95631202D01*
X136165068Y-95629967D01*
X136163246Y-95628145D01*
X136160231Y-95625888D01*
X136160555Y-95625454D01*
X136115665Y-95580559D01*
X136100500Y-95521138D01*
X136100500Y-94124499D01*
X136120185Y-94057460D01*
X136172989Y-94011705D01*
X136224500Y-94000499D01*
X136417871Y-94000499D01*
X136417872Y-94000499D01*
X136477483Y-93994091D01*
X136612331Y-93943796D01*
X136727546Y-93857546D01*
X136813796Y-93742331D01*
X136864091Y-93607483D01*
X136870500Y-93547873D01*
X136870499Y-92452128D01*
X136864091Y-92392517D01*
X136825657Y-92289471D01*
X136813797Y-92257671D01*
X136813793Y-92257664D01*
X136727547Y-92142455D01*
X136727544Y-92142452D01*
X136612335Y-92056206D01*
X136612328Y-92056202D01*
X136477482Y-92005908D01*
X136477483Y-92005908D01*
X136417883Y-91999501D01*
X136417881Y-91999500D01*
X136417873Y-91999500D01*
X136417865Y-91999500D01*
X136224500Y-91999500D01*
X136157461Y-91979815D01*
X136111706Y-91927011D01*
X136100500Y-91875500D01*
X136100500Y-80050096D01*
X136120185Y-79983057D01*
X136136815Y-79962419D01*
X137018535Y-79080698D01*
X137079856Y-79047215D01*
X137092311Y-79045163D01*
X137179255Y-79035368D01*
X137349522Y-78975789D01*
X137502262Y-78879816D01*
X137629816Y-78752262D01*
X137725789Y-78599522D01*
X137725788Y-78599522D01*
X137725833Y-78599452D01*
X137778168Y-78553161D01*
X137847221Y-78542513D01*
X137911070Y-78570888D01*
X137918507Y-78577742D01*
X148671284Y-89330520D01*
X148808215Y-89409577D01*
X148960943Y-89450501D01*
X148960946Y-89450501D01*
X149126654Y-89450501D01*
X149126670Y-89450500D01*
X157299435Y-89450500D01*
X157366474Y-89470185D01*
X157412229Y-89522989D01*
X157422173Y-89592147D01*
X157393148Y-89655703D01*
X157387116Y-89662180D01*
X154791632Y-92257664D01*
X152286115Y-94763181D01*
X152224792Y-94796666D01*
X152198434Y-94799500D01*
X143552577Y-94799500D01*
X143407589Y-94828340D01*
X143407583Y-94828342D01*
X143271005Y-94884914D01*
X143270993Y-94884921D01*
X143221767Y-94917811D01*
X143221768Y-94917812D01*
X143148078Y-94967049D01*
X142651946Y-95463181D01*
X142590623Y-95496666D01*
X142564265Y-95499500D01*
X142202130Y-95499500D01*
X142202123Y-95499501D01*
X142142516Y-95505908D01*
X142007671Y-95556202D01*
X142007664Y-95556206D01*
X141892455Y-95642452D01*
X141892452Y-95642455D01*
X141806206Y-95757664D01*
X141806202Y-95757671D01*
X141755908Y-95892517D01*
X141749501Y-95952116D01*
X141749500Y-95952135D01*
X141749500Y-97047870D01*
X141749501Y-97047876D01*
X141755908Y-97107483D01*
X141806202Y-97242328D01*
X141806206Y-97242335D01*
X141892452Y-97357544D01*
X141892455Y-97357547D01*
X142007664Y-97443793D01*
X142007671Y-97443797D01*
X142142517Y-97494091D01*
X142142516Y-97494091D01*
X142149444Y-97494835D01*
X142202127Y-97500500D01*
X143297872Y-97500499D01*
X143357483Y-97494091D01*
X143492331Y-97443796D01*
X143500379Y-97437770D01*
X143565842Y-97413351D01*
X143629474Y-97426895D01*
X143629645Y-97426483D01*
X143631875Y-97427406D01*
X143633146Y-97427677D01*
X143635273Y-97428814D01*
X143823868Y-97486024D01*
X144020000Y-97505341D01*
X144216132Y-97486024D01*
X144404727Y-97428814D01*
X144578538Y-97335910D01*
X144578544Y-97335904D01*
X144583607Y-97332523D01*
X144584624Y-97334045D01*
X144641021Y-97310084D01*
X144709890Y-97321866D01*
X144726424Y-97332489D01*
X144726678Y-97332110D01*
X144731738Y-97335491D01*
X144905465Y-97428349D01*
X145040000Y-97469159D01*
X145040000Y-96709618D01*
X145090446Y-96760064D01*
X145164555Y-96802851D01*
X145247213Y-96825000D01*
X145332787Y-96825000D01*
X145415445Y-96802851D01*
X145489554Y-96760064D01*
X145540000Y-96709618D01*
X145540000Y-97469159D01*
X145674534Y-97428349D01*
X145848259Y-97335492D01*
X145853320Y-97332111D01*
X145854444Y-97333793D01*
X145910203Y-97310086D01*
X145979075Y-97321851D01*
X145996186Y-97332843D01*
X145996399Y-97332526D01*
X146001457Y-97335906D01*
X146001462Y-97335910D01*
X146107379Y-97392524D01*
X146173147Y-97427678D01*
X146175273Y-97428814D01*
X146363868Y-97486024D01*
X146560000Y-97505341D01*
X146756132Y-97486024D01*
X146944727Y-97428814D01*
X147118538Y-97335910D01*
X147118544Y-97335904D01*
X147123607Y-97332523D01*
X147124703Y-97334164D01*
X147180639Y-97310405D01*
X147249507Y-97322194D01*
X147266148Y-97332888D01*
X147266393Y-97332523D01*
X147271458Y-97335907D01*
X147271462Y-97335910D01*
X147416344Y-97413351D01*
X147443147Y-97427678D01*
X147445273Y-97428814D01*
X147633868Y-97486024D01*
X147830000Y-97505341D01*
X148026132Y-97486024D01*
X148214727Y-97428814D01*
X148216853Y-97427678D01*
X148348060Y-97357546D01*
X148388538Y-97335910D01*
X148540883Y-97210883D01*
X148665910Y-97058538D01*
X148758814Y-96884727D01*
X148816024Y-96696132D01*
X148835341Y-96500000D01*
X148829102Y-96436653D01*
X148842121Y-96368008D01*
X148890186Y-96317298D01*
X148952505Y-96300500D01*
X152634584Y-96300500D01*
X152732126Y-96281096D01*
X152779577Y-96271658D01*
X152916159Y-96215084D01*
X152965393Y-96182186D01*
X153039080Y-96132952D01*
X153219897Y-95952135D01*
X154439500Y-95952135D01*
X154439500Y-97047870D01*
X154439501Y-97047876D01*
X154445908Y-97107483D01*
X154496202Y-97242328D01*
X154496206Y-97242335D01*
X154582452Y-97357544D01*
X154582455Y-97357547D01*
X154697664Y-97443793D01*
X154697671Y-97443797D01*
X154832517Y-97494091D01*
X154832516Y-97494091D01*
X154839444Y-97494835D01*
X154892127Y-97500500D01*
X155987872Y-97500499D01*
X156047483Y-97494091D01*
X156182331Y-97443796D01*
X156190379Y-97437770D01*
X156255842Y-97413351D01*
X156319474Y-97426895D01*
X156319645Y-97426483D01*
X156321875Y-97427406D01*
X156323146Y-97427677D01*
X156325273Y-97428814D01*
X156513868Y-97486024D01*
X156710000Y-97505341D01*
X156906132Y-97486024D01*
X157094727Y-97428814D01*
X157268538Y-97335910D01*
X157268544Y-97335904D01*
X157273607Y-97332523D01*
X157274703Y-97334164D01*
X157330639Y-97310405D01*
X157399507Y-97322194D01*
X157416148Y-97332888D01*
X157416393Y-97332523D01*
X157421458Y-97335907D01*
X157421462Y-97335910D01*
X157566344Y-97413351D01*
X157593147Y-97427678D01*
X157595273Y-97428814D01*
X157783868Y-97486024D01*
X157980000Y-97505341D01*
X158176132Y-97486024D01*
X158364727Y-97428814D01*
X158538538Y-97335910D01*
X158538544Y-97335904D01*
X158543607Y-97332523D01*
X158544624Y-97334045D01*
X158601021Y-97310084D01*
X158669890Y-97321866D01*
X158686424Y-97332489D01*
X158686678Y-97332110D01*
X158691738Y-97335491D01*
X158865465Y-97428349D01*
X159000000Y-97469159D01*
X159500000Y-97469159D01*
X159634534Y-97428349D01*
X159808260Y-97335491D01*
X159960528Y-97210528D01*
X160085492Y-97058260D01*
X160085496Y-97058253D01*
X160178347Y-96884541D01*
X160219160Y-96750000D01*
X159500000Y-96750000D01*
X159500000Y-97469159D01*
X159000000Y-97469159D01*
X159000000Y-96709618D01*
X159050446Y-96760064D01*
X159124555Y-96802851D01*
X159207213Y-96825000D01*
X159292787Y-96825000D01*
X159375445Y-96802851D01*
X159449554Y-96760064D01*
X159510064Y-96699554D01*
X159552851Y-96625445D01*
X159575000Y-96542787D01*
X159575000Y-96457213D01*
X159552851Y-96374555D01*
X159510064Y-96300446D01*
X159459618Y-96250000D01*
X159500000Y-96250000D01*
X160219160Y-96250000D01*
X160219160Y-96249999D01*
X160178347Y-96115458D01*
X160085496Y-95941746D01*
X160085492Y-95941739D01*
X159960528Y-95789471D01*
X159808260Y-95664507D01*
X159808253Y-95664503D01*
X159634541Y-95571652D01*
X159500000Y-95530839D01*
X159500000Y-96250000D01*
X159459618Y-96250000D01*
X159449554Y-96239936D01*
X159375445Y-96197149D01*
X159292787Y-96175000D01*
X159207213Y-96175000D01*
X159124555Y-96197149D01*
X159050446Y-96239936D01*
X159000000Y-96290382D01*
X159000000Y-95530839D01*
X158999999Y-95530839D01*
X158865458Y-95571652D01*
X158691742Y-95664505D01*
X158686673Y-95667893D01*
X158685556Y-95666221D01*
X158629715Y-95689921D01*
X158560851Y-95678111D01*
X158543811Y-95667158D01*
X158543601Y-95667473D01*
X158538532Y-95664086D01*
X158364733Y-95571188D01*
X158364727Y-95571186D01*
X158176132Y-95513976D01*
X158176129Y-95513975D01*
X157980000Y-95494659D01*
X157783870Y-95513975D01*
X157595266Y-95571188D01*
X157421467Y-95664086D01*
X157416399Y-95667473D01*
X157415305Y-95665836D01*
X157359337Y-95689596D01*
X157290471Y-95677795D01*
X157273843Y-95667109D01*
X157273601Y-95667473D01*
X157268532Y-95664086D01*
X157094733Y-95571188D01*
X157094727Y-95571186D01*
X156906132Y-95513976D01*
X156906129Y-95513975D01*
X156710000Y-95494659D01*
X156513870Y-95513975D01*
X156458278Y-95530839D01*
X156325273Y-95571186D01*
X156325272Y-95571186D01*
X156325267Y-95571188D01*
X156323143Y-95572324D01*
X156321898Y-95572583D01*
X156319641Y-95573518D01*
X156319463Y-95573089D01*
X156254740Y-95586564D01*
X156190382Y-95562231D01*
X156182331Y-95556204D01*
X156182328Y-95556202D01*
X156047482Y-95505908D01*
X156047483Y-95505908D01*
X155987883Y-95499501D01*
X155987881Y-95499500D01*
X155987873Y-95499500D01*
X155987864Y-95499500D01*
X154892129Y-95499500D01*
X154892123Y-95499501D01*
X154832516Y-95505908D01*
X154697671Y-95556202D01*
X154697664Y-95556206D01*
X154582455Y-95642452D01*
X154582452Y-95642455D01*
X154496206Y-95757664D01*
X154496202Y-95757671D01*
X154445908Y-95892517D01*
X154439501Y-95952116D01*
X154439500Y-95952135D01*
X153219897Y-95952135D01*
X162382951Y-86789080D01*
X162465084Y-86666159D01*
X162521658Y-86529577D01*
X162550500Y-86384582D01*
X162550500Y-86236747D01*
X162550500Y-85628839D01*
X162542577Y-85589006D01*
X162521659Y-85483845D01*
X162467408Y-85352874D01*
X162465764Y-85348279D01*
X162382954Y-85224345D01*
X162382953Y-85224344D01*
X162382951Y-85224341D01*
X162278416Y-85119806D01*
X159886819Y-82728208D01*
X159853334Y-82666885D01*
X159850500Y-82640527D01*
X159850500Y-78055125D01*
X159870185Y-77988086D01*
X159922989Y-77942331D01*
X159992147Y-77932387D01*
X160010491Y-77936464D01*
X160173868Y-77986024D01*
X160370000Y-78005341D01*
X160566132Y-77986024D01*
X160754727Y-77928814D01*
X160928538Y-77835910D01*
X160928544Y-77835904D01*
X160933607Y-77832523D01*
X160934703Y-77834164D01*
X160990639Y-77810405D01*
X161059507Y-77822194D01*
X161076148Y-77832888D01*
X161076393Y-77832523D01*
X161081458Y-77835907D01*
X161081462Y-77835910D01*
X161255273Y-77928814D01*
X161443868Y-77986024D01*
X161640000Y-78005341D01*
X161836132Y-77986024D01*
X162024727Y-77928814D01*
X162198538Y-77835910D01*
X162198544Y-77835904D01*
X162203607Y-77832523D01*
X162204624Y-77834045D01*
X162261021Y-77810084D01*
X162329890Y-77821866D01*
X162346424Y-77832489D01*
X162346678Y-77832110D01*
X162351738Y-77835491D01*
X162525465Y-77928349D01*
X162660000Y-77969159D01*
X163160000Y-77969159D01*
X163294534Y-77928349D01*
X163468260Y-77835491D01*
X163620528Y-77710528D01*
X163745492Y-77558260D01*
X163745496Y-77558253D01*
X163838347Y-77384541D01*
X163879160Y-77250000D01*
X163160000Y-77250000D01*
X163160000Y-77969159D01*
X162660000Y-77969159D01*
X162660000Y-77209618D01*
X162710446Y-77260064D01*
X162784555Y-77302851D01*
X162867213Y-77325000D01*
X162952787Y-77325000D01*
X163035445Y-77302851D01*
X163109554Y-77260064D01*
X163170064Y-77199554D01*
X163212851Y-77125445D01*
X163235000Y-77042787D01*
X163235000Y-76957213D01*
X163212851Y-76874555D01*
X163170064Y-76800446D01*
X163119618Y-76750000D01*
X163160000Y-76750000D01*
X163879160Y-76750000D01*
X163879160Y-76749999D01*
X163838347Y-76615458D01*
X163745496Y-76441746D01*
X163745492Y-76441739D01*
X163620528Y-76289471D01*
X163468260Y-76164507D01*
X163468253Y-76164503D01*
X163294541Y-76071652D01*
X163160000Y-76030839D01*
X163160000Y-76750000D01*
X163119618Y-76750000D01*
X163109554Y-76739936D01*
X163035445Y-76697149D01*
X162952787Y-76675000D01*
X162867213Y-76675000D01*
X162784555Y-76697149D01*
X162710446Y-76739936D01*
X162660000Y-76790382D01*
X162660000Y-76030839D01*
X162659999Y-76030839D01*
X162525458Y-76071652D01*
X162351742Y-76164505D01*
X162346673Y-76167893D01*
X162345556Y-76166221D01*
X162289715Y-76189921D01*
X162220851Y-76178111D01*
X162203811Y-76167158D01*
X162203601Y-76167473D01*
X162198532Y-76164086D01*
X162024733Y-76071188D01*
X162024727Y-76071186D01*
X161836132Y-76013976D01*
X161836129Y-76013975D01*
X161640000Y-75994659D01*
X161639999Y-75994659D01*
X161556252Y-76002906D01*
X161487606Y-75989886D01*
X161456419Y-75967184D01*
X160327590Y-74838355D01*
X160327588Y-74838352D01*
X160208717Y-74719481D01*
X160208716Y-74719480D01*
X160121904Y-74669360D01*
X160121904Y-74669359D01*
X160121900Y-74669358D01*
X160071785Y-74640423D01*
X159919057Y-74599499D01*
X159760943Y-74599499D01*
X159753347Y-74599499D01*
X159753331Y-74599500D01*
X153300097Y-74599500D01*
X153233058Y-74579815D01*
X153212416Y-74563181D01*
X151787590Y-73138355D01*
X151787588Y-73138352D01*
X151668716Y-73019480D01*
X151668712Y-73019477D01*
X151642256Y-73004203D01*
X151616575Y-72984497D01*
X151502262Y-72870184D01*
X151349523Y-72774211D01*
X151179254Y-72714631D01*
X151179249Y-72714630D01*
X151000004Y-72694435D01*
X150999996Y-72694435D01*
X150820750Y-72714630D01*
X150820745Y-72714631D01*
X150650476Y-72774211D01*
X150497737Y-72870184D01*
X150370184Y-72997737D01*
X150274211Y-73150476D01*
X150214631Y-73320745D01*
X150214630Y-73320750D01*
X150194435Y-73499996D01*
X150194435Y-73500003D01*
X150214630Y-73679249D01*
X150214631Y-73679254D01*
X150274211Y-73849523D01*
X150370184Y-74002262D01*
X150460254Y-74092332D01*
X150493739Y-74153655D01*
X150490061Y-74213686D01*
X150491242Y-74213956D01*
X150489692Y-74220746D01*
X150469496Y-74399996D01*
X150469496Y-74400003D01*
X150489691Y-74579249D01*
X150489692Y-74579254D01*
X150549272Y-74749523D01*
X150645245Y-74902262D01*
X150772799Y-75029816D01*
X150925539Y-75125789D01*
X151095806Y-75185368D01*
X151182730Y-75195161D01*
X151247141Y-75222226D01*
X151256526Y-75230700D01*
X151990200Y-75964374D01*
X151990210Y-75964385D01*
X151994540Y-75968715D01*
X151994541Y-75968716D01*
X152106345Y-76080520D01*
X152106347Y-76080521D01*
X152106351Y-76080524D01*
X152175041Y-76120182D01*
X152175045Y-76120183D01*
X152175046Y-76120184D01*
X152209161Y-76139880D01*
X152243273Y-76159576D01*
X152243275Y-76159576D01*
X152243276Y-76159577D01*
X152396003Y-76200500D01*
X152396004Y-76200500D01*
X157998933Y-76200500D01*
X158065972Y-76220185D01*
X158111727Y-76272989D01*
X158121671Y-76342147D01*
X158115115Y-76367832D01*
X158105909Y-76392514D01*
X158105908Y-76392516D01*
X158099501Y-76452116D01*
X158099500Y-76452135D01*
X158099500Y-77547870D01*
X158099501Y-77547876D01*
X158105908Y-77607483D01*
X158156202Y-77742328D01*
X158156203Y-77742329D01*
X158156204Y-77742331D01*
X158242454Y-77857546D01*
X158299804Y-77900478D01*
X158299810Y-77900482D01*
X158341682Y-77956415D01*
X158349500Y-77999749D01*
X158349500Y-83076675D01*
X158349500Y-83076677D01*
X158349499Y-83076677D01*
X158378340Y-83221664D01*
X158378343Y-83221674D01*
X158434913Y-83358247D01*
X158434916Y-83358253D01*
X158449322Y-83379811D01*
X158449323Y-83379816D01*
X158449325Y-83379816D01*
X158517051Y-83481177D01*
X158517052Y-83481178D01*
X160954904Y-85919029D01*
X160988389Y-85980352D01*
X160983405Y-86050044D01*
X160954904Y-86094391D01*
X159450087Y-87599207D01*
X159388764Y-87632692D01*
X159319072Y-87627708D01*
X159296434Y-87616520D01*
X159149526Y-87524211D01*
X158979257Y-87464631D01*
X158979252Y-87464630D01*
X158800007Y-87444435D01*
X158799999Y-87444435D01*
X158620753Y-87464630D01*
X158620740Y-87464633D01*
X158443909Y-87526510D01*
X158443160Y-87524369D01*
X158384824Y-87533958D01*
X158356408Y-87525611D01*
X158356094Y-87526510D01*
X158179262Y-87464633D01*
X158179249Y-87464630D01*
X158000004Y-87444435D01*
X157999996Y-87444435D01*
X157820750Y-87464630D01*
X157820745Y-87464631D01*
X157650476Y-87524211D01*
X157497736Y-87620185D01*
X157494903Y-87622445D01*
X157492724Y-87623334D01*
X157491842Y-87623889D01*
X157491744Y-87623734D01*
X157430217Y-87648855D01*
X157417588Y-87649500D01*
X150240097Y-87649500D01*
X150173058Y-87629815D01*
X150152416Y-87613181D01*
X146101416Y-83562181D01*
X146067931Y-83500858D01*
X146072915Y-83431166D01*
X146114787Y-83375233D01*
X146180251Y-83350816D01*
X146189097Y-83350500D01*
X154167588Y-83350500D01*
X154234627Y-83370185D01*
X154244903Y-83377555D01*
X154247736Y-83379814D01*
X154247738Y-83379816D01*
X154400478Y-83475789D01*
X154570745Y-83535368D01*
X154570750Y-83535369D01*
X154749996Y-83555565D01*
X154750000Y-83555565D01*
X154750004Y-83555565D01*
X154929249Y-83535369D01*
X154929252Y-83535368D01*
X154929255Y-83535368D01*
X155099522Y-83475789D01*
X155252262Y-83379816D01*
X155379816Y-83252262D01*
X155475789Y-83099522D01*
X155535368Y-82929255D01*
X155555565Y-82750000D01*
X155546200Y-82666885D01*
X155535369Y-82570750D01*
X155535368Y-82570745D01*
X155475788Y-82400476D01*
X155379815Y-82247737D01*
X155252262Y-82120184D01*
X155099523Y-82024211D01*
X154929254Y-81964631D01*
X154929249Y-81964630D01*
X154750004Y-81944435D01*
X154749996Y-81944435D01*
X154570750Y-81964630D01*
X154570745Y-81964631D01*
X154400476Y-82024211D01*
X154247736Y-82120185D01*
X154244903Y-82122445D01*
X154242724Y-82123334D01*
X154241842Y-82123889D01*
X154241744Y-82123734D01*
X154180217Y-82148855D01*
X154167588Y-82149500D01*
X151427476Y-82149500D01*
X151360437Y-82129815D01*
X151314682Y-82077011D01*
X151304256Y-82011614D01*
X151305565Y-81999998D01*
X151305565Y-81999996D01*
X151285369Y-81820750D01*
X151285368Y-81820745D01*
X151225788Y-81650476D01*
X151129815Y-81497737D01*
X151002262Y-81370184D01*
X150849523Y-81274211D01*
X150679254Y-81214631D01*
X150679249Y-81214630D01*
X150500004Y-81194435D01*
X150499996Y-81194435D01*
X150320750Y-81214630D01*
X150320745Y-81214631D01*
X150150476Y-81274211D01*
X149997736Y-81370185D01*
X149994903Y-81372445D01*
X149992724Y-81373334D01*
X149991842Y-81373889D01*
X149991744Y-81373734D01*
X149930217Y-81398855D01*
X149917588Y-81399500D01*
X146550097Y-81399500D01*
X146483058Y-81379815D01*
X146462416Y-81363181D01*
X141896512Y-76797277D01*
X141863027Y-76735954D01*
X141868011Y-76666262D01*
X141909883Y-76610329D01*
X141970312Y-76586375D01*
X141979255Y-76585368D01*
X142149522Y-76525789D01*
X142302262Y-76429816D01*
X142429816Y-76302262D01*
X142525789Y-76149522D01*
X142585368Y-75979255D01*
X142586160Y-75972226D01*
X142605565Y-75800003D01*
X142605565Y-75799996D01*
X142585369Y-75620750D01*
X142585368Y-75620745D01*
X142525788Y-75450476D01*
X142449619Y-75329255D01*
X142429816Y-75297738D01*
X142302262Y-75170184D01*
X142231608Y-75125789D01*
X142149523Y-75074211D01*
X141979254Y-75014631D01*
X141979249Y-75014630D01*
X141800004Y-74994435D01*
X141799996Y-74994435D01*
X141620750Y-75014630D01*
X141620745Y-75014631D01*
X141540983Y-75042542D01*
X141500028Y-75049500D01*
X139299972Y-75049500D01*
X139259017Y-75042542D01*
X139179254Y-75014631D01*
X139179249Y-75014630D01*
X139000004Y-74994435D01*
X138999996Y-74994435D01*
X138820750Y-75014630D01*
X138820745Y-75014631D01*
X138650476Y-75074211D01*
X138497737Y-75170184D01*
X138370184Y-75297737D01*
X138274209Y-75450479D01*
X138265643Y-75474961D01*
X138224921Y-75531736D01*
X138159968Y-75557483D01*
X138091406Y-75544026D01*
X138060921Y-75521686D01*
X136170700Y-73631465D01*
X136137215Y-73570142D01*
X136135163Y-73557686D01*
X136125368Y-73470745D01*
X136065789Y-73300478D01*
X135969816Y-73147738D01*
X135842262Y-73020184D01*
X135841137Y-73019477D01*
X135689523Y-72924211D01*
X135519254Y-72864631D01*
X135519249Y-72864630D01*
X135340004Y-72844435D01*
X135339996Y-72844435D01*
X135160750Y-72864630D01*
X135160745Y-72864631D01*
X134990476Y-72924211D01*
X134837737Y-73020184D01*
X134710184Y-73147737D01*
X134614210Y-73300478D01*
X134608235Y-73317554D01*
X134567512Y-73374329D01*
X134502559Y-73400075D01*
X134433997Y-73386618D01*
X134403513Y-73364278D01*
X132036819Y-70997584D01*
X132003334Y-70936261D01*
X132000500Y-70909903D01*
X132000500Y-70399996D01*
X133284433Y-70399996D01*
X133284433Y-70400003D01*
X133304628Y-70579249D01*
X133304629Y-70579254D01*
X133364209Y-70749523D01*
X133458447Y-70899500D01*
X133460182Y-70902262D01*
X133587736Y-71029816D01*
X133740476Y-71125789D01*
X133910743Y-71185368D01*
X133997667Y-71195161D01*
X134062078Y-71222226D01*
X134071462Y-71230699D01*
X134571282Y-71730520D01*
X134571284Y-71730521D01*
X134571288Y-71730524D01*
X134708207Y-71809573D01*
X134708214Y-71809577D01*
X134860941Y-71850501D01*
X134860943Y-71850501D01*
X135026652Y-71850501D01*
X135026668Y-71850500D01*
X135713331Y-71850500D01*
X135713347Y-71850501D01*
X135720943Y-71850501D01*
X135879054Y-71850501D01*
X135879057Y-71850501D01*
X136031785Y-71809577D01*
X136093040Y-71774211D01*
X136168716Y-71730520D01*
X136212417Y-71686819D01*
X136273740Y-71653334D01*
X136300098Y-71650500D01*
X157184217Y-71650500D01*
X157251256Y-71670185D01*
X157271898Y-71686819D01*
X157849453Y-72264374D01*
X157849463Y-72264385D01*
X157853793Y-72268715D01*
X157853794Y-72268716D01*
X157965598Y-72380520D01*
X157965599Y-72380520D01*
X157972666Y-72387587D01*
X157972673Y-72387593D01*
X158449454Y-72864374D01*
X158449464Y-72864385D01*
X158453794Y-72868715D01*
X158453795Y-72868716D01*
X158565599Y-72980520D01*
X158633082Y-73019481D01*
X158702530Y-73059577D01*
X158855258Y-73100500D01*
X159013372Y-73100500D01*
X159167588Y-73100500D01*
X159234627Y-73120185D01*
X159244903Y-73127555D01*
X159247736Y-73129814D01*
X159247738Y-73129816D01*
X159400478Y-73225789D01*
X159570745Y-73285368D01*
X159570750Y-73285369D01*
X159749996Y-73305565D01*
X159750000Y-73305565D01*
X159750004Y-73305565D01*
X159929249Y-73285369D01*
X159929252Y-73285368D01*
X159929255Y-73285368D01*
X160099522Y-73225789D01*
X160252262Y-73129816D01*
X160379816Y-73002262D01*
X160475789Y-72849522D01*
X160492463Y-72801869D01*
X160533184Y-72745094D01*
X160598137Y-72719346D01*
X160650460Y-72725783D01*
X160820737Y-72785366D01*
X160820743Y-72785367D01*
X160820745Y-72785368D01*
X160820746Y-72785368D01*
X160820750Y-72785369D01*
X160999996Y-72805565D01*
X161000000Y-72805565D01*
X161000004Y-72805565D01*
X161179249Y-72785369D01*
X161179252Y-72785368D01*
X161179255Y-72785368D01*
X161349522Y-72725789D01*
X161502262Y-72629816D01*
X161629816Y-72502262D01*
X161725789Y-72349522D01*
X161785368Y-72179255D01*
X161805565Y-72000000D01*
X161785368Y-71820745D01*
X161725789Y-71650478D01*
X161629816Y-71497738D01*
X161502262Y-71370184D01*
X161349521Y-71274210D01*
X161180035Y-71214905D01*
X161133308Y-71185544D01*
X159586119Y-69638355D01*
X159586117Y-69638352D01*
X159467246Y-69519481D01*
X159467238Y-69519475D01*
X159365465Y-69460717D01*
X159365463Y-69460716D01*
X159330319Y-69440425D01*
X159330318Y-69440424D01*
X159317792Y-69437067D01*
X159177586Y-69399499D01*
X159019472Y-69399499D01*
X159011876Y-69399499D01*
X159011860Y-69399500D01*
X158999097Y-69399500D01*
X158932058Y-69379815D01*
X158886303Y-69327011D01*
X158876359Y-69257853D01*
X158905384Y-69194297D01*
X158911416Y-69187819D01*
X159104800Y-68994435D01*
X159768535Y-68330698D01*
X159829856Y-68297215D01*
X159842311Y-68295163D01*
X159929255Y-68285368D01*
X160099522Y-68225789D01*
X160252262Y-68129816D01*
X160379816Y-68002262D01*
X160475789Y-67849522D01*
X160535368Y-67679255D01*
X160555565Y-67500000D01*
X160552419Y-67472082D01*
X160535369Y-67320750D01*
X160535368Y-67320745D01*
X160475788Y-67150476D01*
X160379815Y-66997737D01*
X160252262Y-66870184D01*
X160099523Y-66774211D01*
X159929254Y-66714631D01*
X159929249Y-66714630D01*
X159750004Y-66694435D01*
X159749996Y-66694435D01*
X159570750Y-66714630D01*
X159570745Y-66714631D01*
X159400476Y-66774211D01*
X159247737Y-66870184D01*
X159120184Y-66997737D01*
X159024210Y-67150478D01*
X158964630Y-67320750D01*
X158954837Y-67407668D01*
X158927770Y-67472082D01*
X158919298Y-67481465D01*
X157887584Y-68513181D01*
X157826261Y-68546666D01*
X157799903Y-68549500D01*
X153422412Y-68549500D01*
X153355373Y-68529815D01*
X153345097Y-68522445D01*
X153342263Y-68520185D01*
X153342262Y-68520184D01*
X153285496Y-68484515D01*
X153189523Y-68424211D01*
X153019254Y-68364631D01*
X153019249Y-68364630D01*
X152840004Y-68344435D01*
X152839996Y-68344435D01*
X152660750Y-68364630D01*
X152660745Y-68364631D01*
X152490476Y-68424211D01*
X152337737Y-68520184D01*
X152210184Y-68647737D01*
X152114211Y-68800476D01*
X152054631Y-68970745D01*
X152054630Y-68970750D01*
X152034435Y-69149996D01*
X152034435Y-69150003D01*
X152054630Y-69329249D01*
X152054631Y-69329254D01*
X152114211Y-69499523D01*
X152190384Y-69620750D01*
X152210184Y-69652262D01*
X152337738Y-69779816D01*
X152402496Y-69820506D01*
X152448787Y-69872841D01*
X152459435Y-69941894D01*
X152431060Y-70005743D01*
X152372670Y-70044115D01*
X152336524Y-70049500D01*
X135922412Y-70049500D01*
X135855373Y-70029815D01*
X135845097Y-70022445D01*
X135842263Y-70020185D01*
X135842262Y-70020184D01*
X135739422Y-69955565D01*
X135689523Y-69924211D01*
X135519254Y-69864631D01*
X135519249Y-69864630D01*
X135340004Y-69844435D01*
X135339996Y-69844435D01*
X135160750Y-69864630D01*
X135160745Y-69864631D01*
X134990476Y-69924211D01*
X134913347Y-69972675D01*
X134846110Y-69991675D01*
X134779275Y-69971307D01*
X134742382Y-69933654D01*
X134719815Y-69897739D01*
X134592260Y-69770184D01*
X134439521Y-69674211D01*
X134269252Y-69614631D01*
X134269247Y-69614630D01*
X134090002Y-69594435D01*
X134089994Y-69594435D01*
X133910748Y-69614630D01*
X133910743Y-69614631D01*
X133740474Y-69674211D01*
X133587735Y-69770184D01*
X133460182Y-69897737D01*
X133364209Y-70050476D01*
X133304629Y-70220745D01*
X133304628Y-70220750D01*
X133284433Y-70399996D01*
X132000500Y-70399996D01*
X132000500Y-70089060D01*
X132000501Y-70089047D01*
X132000501Y-69920940D01*
X131999440Y-69912881D01*
X131999924Y-69912817D01*
X131997099Y-69875129D01*
X132005565Y-69800000D01*
X132002891Y-69776265D01*
X131985369Y-69620750D01*
X131985368Y-69620745D01*
X131949932Y-69519475D01*
X131925789Y-69450478D01*
X131829816Y-69297738D01*
X131702262Y-69170184D01*
X131670144Y-69150003D01*
X131549523Y-69074211D01*
X131379254Y-69014631D01*
X131379249Y-69014630D01*
X131200004Y-68994435D01*
X131199996Y-68994435D01*
X131020750Y-69014630D01*
X131020745Y-69014631D01*
X130850476Y-69074211D01*
X130697737Y-69170184D01*
X130570184Y-69297737D01*
X130474211Y-69450476D01*
X130414631Y-69620745D01*
X130414630Y-69620750D01*
X130394435Y-69799996D01*
X124500500Y-69799996D01*
X124500500Y-63774262D01*
X124520185Y-63707223D01*
X124572989Y-63661468D01*
X124587759Y-63658686D01*
X125435387Y-62811058D01*
X125440889Y-62831591D01*
X125519881Y-62968408D01*
X125631592Y-63080119D01*
X125768409Y-63159111D01*
X125788940Y-63164612D01*
X124950830Y-64002720D01*
X125122546Y-64119793D01*
X125122550Y-64119795D01*
X125358854Y-64233594D01*
X125358858Y-64233595D01*
X125609494Y-64310907D01*
X125609500Y-64310909D01*
X125868848Y-64349999D01*
X125868857Y-64350000D01*
X126131143Y-64350000D01*
X126131151Y-64349999D01*
X126390499Y-64310909D01*
X126390505Y-64310907D01*
X126641143Y-64233595D01*
X126877445Y-64119798D01*
X126877447Y-64119797D01*
X127049168Y-64002720D01*
X126211059Y-63164612D01*
X126231591Y-63159111D01*
X126368408Y-63080119D01*
X126480119Y-62968408D01*
X126559111Y-62831591D01*
X126564612Y-62811059D01*
X127402125Y-63648572D01*
X127449971Y-63588573D01*
X127581116Y-63361426D01*
X127676941Y-63117270D01*
X127735306Y-62861550D01*
X127735307Y-62861545D01*
X127754907Y-62600004D01*
X127754907Y-62599995D01*
X127735307Y-62338454D01*
X127735306Y-62338449D01*
X127676941Y-62082729D01*
X127581116Y-61838573D01*
X127581117Y-61838573D01*
X127449972Y-61611426D01*
X127402124Y-61551427D01*
X126564612Y-62388939D01*
X126559111Y-62368409D01*
X126480119Y-62231592D01*
X126368408Y-62119881D01*
X126231591Y-62040889D01*
X126211058Y-62035387D01*
X127049168Y-61197278D01*
X127043726Y-61139239D01*
X127044472Y-61139168D01*
X127040333Y-61103524D01*
X127071074Y-61040780D01*
X127130857Y-61004617D01*
X127162546Y-61000500D01*
X129966000Y-61000500D01*
X130033039Y-61020185D01*
G37*
%TD.AperFunction*%
%TA.AperFunction,Conductor*%
G36*
X165442539Y-61020185D02*
G01*
X165488294Y-61072989D01*
X165499500Y-61124500D01*
X165499500Y-62194446D01*
X165479815Y-62261485D01*
X165427011Y-62307240D01*
X165357853Y-62317184D01*
X165294297Y-62288159D01*
X165260072Y-62239748D01*
X165181116Y-62038573D01*
X165181117Y-62038573D01*
X165049972Y-61811426D01*
X165002124Y-61751427D01*
X164164612Y-62588939D01*
X164159111Y-62568409D01*
X164080119Y-62431592D01*
X163968408Y-62319881D01*
X163831591Y-62240889D01*
X163811058Y-62235387D01*
X164649168Y-61397278D01*
X164477454Y-61280206D01*
X164477450Y-61280204D01*
X164386116Y-61236220D01*
X164334257Y-61189398D01*
X164315944Y-61121971D01*
X164336992Y-61055347D01*
X164390718Y-61010678D01*
X164439918Y-61000500D01*
X165375500Y-61000500D01*
X165442539Y-61020185D01*
G37*
%TD.AperFunction*%
%TA.AperFunction,Conductor*%
G36*
X124904490Y-61020185D02*
G01*
X124950245Y-61072989D01*
X124960189Y-61142147D01*
X124954917Y-61153689D01*
X124950830Y-61197277D01*
X125788941Y-62035387D01*
X125768409Y-62040889D01*
X125631592Y-62119881D01*
X125519881Y-62231592D01*
X125440889Y-62368409D01*
X125435387Y-62388940D01*
X124585176Y-61538729D01*
X124563413Y-61533645D01*
X124514770Y-61483489D01*
X124500500Y-61425736D01*
X124500500Y-61124500D01*
X124520185Y-61057461D01*
X124572989Y-61011706D01*
X124624500Y-61000500D01*
X124837451Y-61000500D01*
X124904490Y-61020185D01*
G37*
%TD.AperFunction*%
%TD*%
M02*
