%TF.GenerationSoftware,KiCad,Pcbnew,8.0.8+dfsg-1*%
%TF.CreationDate,2026-03-21T21:18:57-06:00*%
%TF.ProjectId,scann3d,7363616e-6e33-4642-9e6b-696361645f70,rev?*%
%TF.SameCoordinates,Original*%
%TF.FileFunction,Soldermask,Top*%
%TF.FilePolarity,Negative*%
%FSLAX46Y46*%
G04 Gerber Fmt 4.6, Leading zero omitted, Abs format (unit mm)*
G04 Created by KiCad (PCBNEW 8.0.8+dfsg-1) date 2026-03-21 21:18:57*
%MOMM*%
%LPD*%
G01*
G04 APERTURE LIST*
G04 Aperture macros list*
%AMRoundRect*
0 Rectangle with rounded corners*
0 $1 Rounding radius*
0 $2 $3 $4 $5 $6 $7 $8 $9 X,Y pos of 4 corners*
0 Add a 4 corners polygon primitive as box body*
4,1,4,$2,$3,$4,$5,$6,$7,$8,$9,$2,$3,0*
0 Add four circle primitives for the rounded corners*
1,1,$1+$1,$2,$3*
1,1,$1+$1,$4,$5*
1,1,$1+$1,$6,$7*
1,1,$1+$1,$8,$9*
0 Add four rect primitives between the rounded corners*
20,1,$1+$1,$2,$3,$4,$5,0*
20,1,$1+$1,$4,$5,$6,$7,0*
20,1,$1+$1,$6,$7,$8,$9,0*
20,1,$1+$1,$8,$9,$2,$3,0*%
G04 Aperture macros list end*
%ADD10C,0.010000*%
%ADD11R,0.600000X0.800000*%
%ADD12R,1.000000X1.000000*%
%ADD13O,1.000000X1.000000*%
%ADD14RoundRect,0.112500X-0.112500X-0.112500X0.112500X-0.112500X0.112500X0.112500X-0.112500X0.112500X0*%
%ADD15C,1.500000*%
%ADD16RoundRect,0.140000X0.140000X0.170000X-0.140000X0.170000X-0.140000X-0.170000X0.140000X-0.170000X0*%
%ADD17RoundRect,0.102000X-0.250000X-0.250000X0.250000X-0.250000X0.250000X0.250000X-0.250000X0.250000X0*%
%ADD18RoundRect,0.102000X-1.158000X-0.600000X1.158000X-0.600000X1.158000X0.600000X-1.158000X0.600000X0*%
%ADD19R,0.800000X0.600000*%
%ADD20RoundRect,0.375000X-0.625000X-0.375000X0.625000X-0.375000X0.625000X0.375000X-0.625000X0.375000X0*%
%ADD21RoundRect,0.500000X-0.500000X-1.400000X0.500000X-1.400000X0.500000X1.400000X-0.500000X1.400000X0*%
%ADD22R,0.650000X0.500000*%
%ADD23R,0.750000X0.400000*%
%ADD24R,0.400000X0.750000*%
%ADD25R,0.500000X0.650000*%
%ADD26R,2.100000X1.400000*%
%ADD27C,2.500000*%
%ADD28R,1.500000X0.900000*%
%ADD29C,0.600000*%
%ADD30R,2.900000X2.900000*%
%ADD31R,0.850000X0.850000*%
%ADD32O,0.850000X0.850000*%
G04 APERTURE END LIST*
D10*
%TO.C,U2*%
X156850000Y-85350000D02*
X156550000Y-85350000D01*
X156550000Y-85450000D01*
X156150000Y-85450000D01*
X156150000Y-84650000D01*
X156850000Y-84650000D01*
X156850000Y-85350000D01*
G36*
X156850000Y-85350000D02*
G01*
X156550000Y-85350000D01*
X156550000Y-85450000D01*
X156150000Y-85450000D01*
X156150000Y-84650000D01*
X156850000Y-84650000D01*
X156850000Y-85350000D01*
G37*
%TD*%
D11*
%TO.C,R2*%
X156700000Y-68750000D03*
X155300000Y-68750000D03*
%TD*%
D12*
%TO.C,REF\u002A\u002A*%
X135870000Y-93000000D03*
D13*
X134600000Y-93000000D03*
X133330000Y-93000000D03*
%TD*%
D14*
%TO.C,D2*%
X158075000Y-71575000D03*
X158925000Y-71575000D03*
X158925000Y-72425000D03*
X158075000Y-72425000D03*
%TD*%
D15*
%TO.C,REF\u002A\u002A*%
X154000000Y-104200000D03*
%TD*%
D16*
%TO.C,C2*%
X128980000Y-90000000D03*
X128020000Y-90000000D03*
%TD*%
D12*
%TO.C,J1*%
X142750000Y-96500000D03*
D13*
X144020000Y-96500000D03*
X145290000Y-96500000D03*
X146560000Y-96500000D03*
X147830000Y-96500000D03*
%TD*%
D17*
%TO.C,U2*%
X157250000Y-85000000D03*
X158000000Y-85000000D03*
X158750000Y-85000000D03*
X159500000Y-85000000D03*
X160250000Y-85000000D03*
X161000000Y-85000000D03*
X156100000Y-86050000D03*
D18*
X158750000Y-86050000D03*
D17*
X161400000Y-86050000D03*
X156500000Y-87100000D03*
X157250000Y-87100000D03*
X158000000Y-87100000D03*
X158750000Y-87100000D03*
X159500000Y-87100000D03*
X160250000Y-87100000D03*
X161000000Y-87100000D03*
%TD*%
D19*
%TO.C,R11*%
X159025000Y-106765000D03*
X159025000Y-108165000D03*
%TD*%
D20*
%TO.C,U5*%
X132000000Y-85500000D03*
X132000000Y-87800000D03*
D21*
X138300000Y-87800000D03*
D20*
X132000000Y-90100000D03*
%TD*%
D22*
%TO.C,U4*%
X155025000Y-107070000D03*
D23*
X155025000Y-107620000D03*
X155025000Y-108120000D03*
D22*
X155025000Y-108670000D03*
D24*
X155700000Y-108795000D03*
X156200000Y-108795000D03*
X156700000Y-108795000D03*
D22*
X157375000Y-108670000D03*
D23*
X157375000Y-108120000D03*
X157375000Y-107620000D03*
D22*
X157375000Y-107070000D03*
D24*
X156700000Y-106945000D03*
X156200000Y-106945000D03*
X155700000Y-106945000D03*
%TD*%
D15*
%TO.C,IO10*%
X155400000Y-76800000D03*
%TD*%
D25*
%TO.C,U3*%
X129300000Y-68400000D03*
D24*
X128750000Y-68400000D03*
X128250000Y-68400000D03*
D25*
X127700000Y-68400000D03*
D23*
X127575000Y-69075000D03*
X127575000Y-69575000D03*
X127575000Y-70075000D03*
D25*
X127700000Y-70750000D03*
D24*
X128250000Y-70750000D03*
X128750000Y-70750000D03*
D25*
X129300000Y-70750000D03*
D23*
X129425000Y-70075000D03*
X129425000Y-69575000D03*
X129425000Y-69075000D03*
%TD*%
D26*
%TO.C,S1*%
X141700000Y-85250000D03*
X150800000Y-85250000D03*
X141700000Y-89750000D03*
X150800000Y-89750000D03*
%TD*%
D15*
%TO.C,SCL*%
X132750000Y-77000000D03*
%TD*%
D12*
%TO.C,J3*%
X155440000Y-101250000D03*
D13*
X156710000Y-101250000D03*
X157980000Y-101250000D03*
X159250000Y-101250000D03*
%TD*%
D11*
%TO.C,R8*%
X155800000Y-82750000D03*
X157200000Y-82750000D03*
%TD*%
D27*
%TO.C,*%
X164000000Y-97000000D03*
%TD*%
D11*
%TO.C,R15*%
X160700000Y-64600000D03*
X159300000Y-64600000D03*
%TD*%
%TO.C,R5*%
X129050000Y-73000000D03*
X130450000Y-73000000D03*
%TD*%
%TO.C,R3*%
X156700000Y-73000000D03*
X155300000Y-73000000D03*
%TD*%
%TO.C,R14*%
X131300000Y-96600000D03*
X129900000Y-96600000D03*
%TD*%
%TO.C,R9*%
X159450000Y-81250000D03*
X158050000Y-81250000D03*
%TD*%
D16*
%TO.C,C3*%
X133680000Y-69000000D03*
X132720000Y-69000000D03*
%TD*%
D15*
%TO.C,SDA*%
X132750000Y-71750000D03*
%TD*%
D14*
%TO.C,D1*%
X158075000Y-67575000D03*
X158925000Y-67575000D03*
X158925000Y-68425000D03*
X158075000Y-68425000D03*
%TD*%
D27*
%TO.C,GND*%
X163600000Y-62800000D03*
%TD*%
D15*
%TO.C,IO8*%
X130000000Y-79800000D03*
%TD*%
D27*
%TO.C,GND*%
X126000000Y-62600000D03*
%TD*%
D11*
%TO.C,R10*%
X127200000Y-73000000D03*
X125800000Y-73000000D03*
%TD*%
%TO.C,C1*%
X129500000Y-86600000D03*
X128100000Y-86600000D03*
%TD*%
%TO.C,R6*%
X129050000Y-76250000D03*
X130450000Y-76250000D03*
%TD*%
%TO.C,R7*%
X160050000Y-82750000D03*
X161450000Y-82750000D03*
%TD*%
D28*
%TO.C,U1*%
X135340000Y-67650000D03*
X135340000Y-69150000D03*
X135340000Y-70650000D03*
X135340000Y-72150000D03*
X135340000Y-73650000D03*
X135340000Y-75150000D03*
X135340000Y-76650000D03*
X135340000Y-78150000D03*
X135340000Y-79650000D03*
X152840000Y-79650000D03*
X152840000Y-78150000D03*
X152840000Y-76650000D03*
X152840000Y-72150000D03*
X152840000Y-70650000D03*
X152840000Y-69150000D03*
X152840000Y-67650000D03*
D29*
X143950000Y-73300000D03*
X143950000Y-74400000D03*
X144500000Y-72750000D03*
X144500000Y-73850000D03*
X144500000Y-74950000D03*
X145050000Y-73300000D03*
D30*
X145050000Y-73850000D03*
D29*
X145050000Y-74400000D03*
X145600000Y-72750000D03*
X145600000Y-73850000D03*
X145600000Y-74950000D03*
X146150000Y-73300000D03*
X146150000Y-74400000D03*
D28*
X152840000Y-73650000D03*
X152840000Y-75150000D03*
%TD*%
D12*
%TO.C,J2*%
X155440000Y-96500000D03*
D13*
X156710000Y-96500000D03*
X157980000Y-96500000D03*
X159250000Y-96500000D03*
%TD*%
D11*
%TO.C,R4*%
X155800000Y-91200000D03*
X157200000Y-91200000D03*
%TD*%
%TO.C,R1*%
X140200000Y-93000000D03*
X138800000Y-93000000D03*
%TD*%
D15*
%TO.C,5v*%
X139000000Y-96250000D03*
%TD*%
%TO.C,IO2*%
X161600000Y-70000000D03*
%TD*%
%TO.C,3v3*%
X164200000Y-67400000D03*
%TD*%
D12*
%TO.C,J4*%
X159100000Y-77000000D03*
D13*
X160370000Y-77000000D03*
X161640000Y-77000000D03*
X162910000Y-77000000D03*
%TD*%
D11*
%TO.C,R12*%
X159225000Y-105215000D03*
X157825000Y-105215000D03*
%TD*%
D31*
%TO.C,M1*%
X135500000Y-96500000D03*
D32*
X134500000Y-96500000D03*
X133500000Y-96500000D03*
%TD*%
D27*
%TO.C,*%
X126000000Y-97000000D03*
%TD*%
D11*
%TO.C,R13*%
X127800000Y-66060000D03*
X129200000Y-66060000D03*
%TD*%
M02*
